<?xml version="1.0" encoding="utf-8"?>
<!-- Generator: Adobe Illustrator 16.0.4, SVG Export Plug-In . SVG Version: 6.00 Build 0)  -->
<!DOCTYPE svg PUBLIC "-//W3C//DTD SVG 1.1//EN" "http://www.w3.org/Graphics/SVG/1.1/DTD/svg11.dtd">
<svg version="1.1" id="PCHC_Logo" xmlns="http://www.w3.org/2000/svg" xmlns:xlink="http://www.w3.org/1999/xlink" x="0px" y="0px"
	 width="1080.004px" height="717.982px" viewBox="0 0 1080.004 717.982" enable-background="new 0 0 1080.004 717.982"
	 xml:space="preserve">
<g id="Backer_1_">
	<ellipse fill="#FFFFFF" cx="540.002" cy="303.785" rx="540.002" ry="303.785"/>
	<path fill="#FFFFFF" d="M836.064,508.822H243.923c-29.961,0-54.249,33.58-54.249,75c0,41.422,24.288,75,54.249,75h592.142
		c29.961,0,54.249-33.578,54.249-75C890.313,542.402,866.025,508.822,836.064,508.822z"/>
</g>
<g id="Logo">
	
		<linearGradient id="Swoosh_1_" gradientUnits="userSpaceOnUse" x1="838.4941" y1="159.1602" x2="838.4941" y2="-324.6368" gradientTransform="matrix(1 0 0 1 -298.5 346.9824)">
		<stop  offset="0" style="stop-color:#6D4C39"/>
		<stop  offset="1" style="stop-color:#8C7167"/>
	</linearGradient>
	<path id="Swoosh" fill="url(#Swoosh_1_)" d="M540.002,27.137c-282.292,0-511.936,122.103-511.936,272.191
		c0,75.142,61.905,148.136,170.011,200.738c0.015-0.029,0.044-0.043,0.073-0.061C106.641,451.99,79.072,374.294,79.072,305.839
		c0-134.715,198.15-236.31,460.93-236.31c262.764,0,460.915,101.595,460.915,236.31c0,68.396-29.033,146.283-120.646,194.286
		c0.189,0.162,0.396,0.308,0.57,0.469c108.767-52.632,171.08-125.875,171.08-201.266C1051.924,149.239,822.28,27.137,540.002,27.137
		z"/>
	<g id="PCHC">
		
			<linearGradient id="SVGID_1_" gradientUnits="userSpaceOnUse" x1="536.0483" y1="47.791" x2="536.0481" y2="-145.1846" gradientTransform="matrix(1 0 0 1 -298.5 346.9824)">
			<stop  offset="0" style="stop-color:#212058"/>
			<stop  offset="0.0693" style="stop-color:#24235F"/>
			<stop  offset="0.2522" style="stop-color:#2A2B6F"/>
			<stop  offset="0.437" style="stop-color:#2D2F7B"/>
			<stop  offset="0.6229" style="stop-color:#2F3282"/>
			<stop  offset="0.8118" style="stop-color:#2F3384"/>
		</linearGradient>
		<path fill="url(#SVGID_1_)" d="M285.294,213.318c-4.307-3.749-10.21-6.605-17.695-8.568c-7.485-1.971-17.886-2.952-31.172-2.952
			c-6.753,0-13.623,0.234-20.654,0.703c-7.017,0.469-13.813,0.703-20.361,0.703c-4.688,0-8.892-0.146-12.642-0.425
			c-3.75-0.279-7.207-0.601-10.386-0.981c0.747,12.173,1.304,24.295,1.685,36.372c0.366,12.085,0.557,25.898,0.557,41.434v38.207
			c0,15.541-0.19,29.355-0.557,41.427c-0.381,12.068-0.938,23.92-1.685,35.536c3.179-0.382,6.636-0.569,10.386-0.569
			s7.954,0,12.642,0s8.892,0,12.642,0s7.207,0.188,10.4,0.569c-0.952-13.666-1.553-27.479-1.831-41.438
			c-0.278-13.946-0.425-27.936-0.425-41.997h14.326c10.488,0,20.127-1.114,28.931-3.357c8.804-2.25,16.436-5.757,22.896-10.541
			c6.46-4.774,11.47-10.993,15.03-18.677c3.545-7.676,5.332-16.853,5.332-27.524c0-8.431-1.406-15.638-4.219-21.636
			C295.695,223.616,291.286,218.183,285.294,213.318z M254.4,277.354c-2.622,5.435-5.991,9.603-10.107,12.503
			c-4.131,2.9-8.672,4.826-13.623,5.757c-4.966,0.938-9.785,1.406-14.473,1.406c0-13.11,0.044-26.17,0.146-39.185
			c0.088-13.016,0.234-26.266,0.425-39.749c0.732-0.184,1.582-0.278,2.52-0.278s1.875,0,2.812,0h6.46
			c3.926,0,7.72,0.659,11.367,1.97c3.662,1.305,6.841,3.414,9.551,6.314c2.725,2.907,4.878,6.796,6.46,11.66
			c1.597,4.87,2.402,10.854,2.402,17.974C258.341,264.721,257.022,271.928,254.4,277.354z"/>
		
			<linearGradient id="SVGID_2_" gradientUnits="userSpaceOnUse" x1="708.0859" y1="51.438" x2="708.0859" y2="-148.8403" gradientTransform="matrix(1 0 0 1 -298.5 346.9824)">
			<stop  offset="0" style="stop-color:#212058"/>
			<stop  offset="0.0693" style="stop-color:#24235F"/>
			<stop  offset="0.2522" style="stop-color:#2A2B6F"/>
			<stop  offset="0.437" style="stop-color:#2D2F7B"/>
			<stop  offset="0.6229" style="stop-color:#2F3282"/>
			<stop  offset="0.8118" style="stop-color:#2F3384"/>
		</linearGradient>
		<path fill="url(#SVGID_2_)" d="M392.038,236.067c6.182-6.928,13.052-12.084,20.64-15.446c7.588-3.376,15.117-5.062,22.617-5.062
			c10.107,0,18.911,1.927,26.396,5.757c7.483,3.846,14.795,10.254,21.914,19.241h3.926c0.381-4.863,1.084-9.683,2.107-14.465
			c1.025-4.776,2.49-9.5,4.353-14.181c-3.18-1.875-7.062-3.654-11.646-5.339c-4.6-1.685-9.419-3.135-14.473-4.358
			c-5.054-1.208-10.298-2.197-15.732-2.943c-5.435-0.748-10.574-1.129-15.438-1.129c-14.795,0-28.945,1.971-42.422,5.903
			c-13.478,3.926-25.328,10.159-35.523,18.677c-10.21,8.526-18.354,19.57-24.448,33.15c-6.079,13.579-9.126,30.103-9.126,49.569
			c0,13.305,2.345,25.668,7.031,37.079c4.673,11.427,11.455,21.3,20.361,29.636c8.892,8.334,19.746,14.794,32.578,19.379
			c12.817,4.6,27.393,6.887,43.682,6.887c23.027,0,42.129-3.839,57.291-11.515c0.381-3.941,1.128-7.91,2.256-11.938
			c1.128-4.026,2.434-8.013,3.926-11.938l-3.646-2.239c-3.003,3.178-6.504,6.078-10.533,8.7c-4.029,2.621-8.276,4.817-12.772,6.606
			c-4.496,1.771-9.081,3.179-13.771,4.202c-4.688,1.04-9.271,1.554-13.77,1.554c-8.059,0-16.057-1.493-24.011-4.497
			c-7.954-3.003-15.071-7.732-21.343-14.181c-6.284-6.475-11.382-14.795-15.322-25.005c-3.926-10.209-5.889-22.514-5.889-36.939
			c0-14.978,1.919-27.854,5.757-38.62C380.846,251.844,385.856,242.996,392.038,236.067z"/>
		
			<linearGradient id="SVGID_3_" gradientUnits="userSpaceOnUse" x1="917.4844" y1="47.7905" x2="917.4844" y2="-145.1846" gradientTransform="matrix(1 0 0 1 -298.5 346.9824)">
			<stop  offset="0" style="stop-color:#212058"/>
			<stop  offset="0.0693" style="stop-color:#24235F"/>
			<stop  offset="0.2522" style="stop-color:#2A2B6F"/>
			<stop  offset="0.437" style="stop-color:#2D2F7B"/>
			<stop  offset="0.6229" style="stop-color:#2F3282"/>
			<stop  offset="0.8118" style="stop-color:#2F3384"/>
		</linearGradient>
		<path fill="url(#SVGID_3_)" d="M703.817,238.17c0.381-12.077,0.938-24.199,1.686-36.372c-3.18,0.381-6.65,0.703-10.387,0.981
			c-3.75,0.278-7.97,0.425-12.644,0.425c-4.688,0-8.891-0.146-12.641-0.425c-3.75-0.279-7.207-0.601-10.387-0.981
			c0.748,12.173,1.305,24.199,1.67,36.094c0.381,11.895,0.569,25.606,0.569,41.155c-5.434,0.184-11.338,0.33-17.694,0.417
			c-6.371,0.096-14.605,0.14-24.728,0.14c-10.106,0-18.571-0.044-25.416-0.14c-6.84-0.087-12.686-0.233-17.547-0.417
			c0-15.549,0.131-29.261,0.408-41.155c0.293-11.895,0.895-23.921,1.832-36.094c-3.18,0.381-6.652,0.703-10.387,0.981
			c-3.75,0.278-7.97,0.425-12.644,0.425c-4.688,0-8.904-0.146-12.641-0.425c-3.75-0.278-7.208-0.601-10.401-0.981
			c0.747,12.173,1.318,24.295,1.699,36.372c0.366,12.085,0.557,25.898,0.557,41.434v38.207c0,15.541-0.188,29.355-0.557,41.427
			c-0.381,12.068-0.952,23.92-1.699,35.536c3.193-0.382,6.65-0.569,10.401-0.569c3.733,0,7.953,0,12.641,0c4.674,0,8.894,0,12.644,0
			c3.733,0,7.206,0.188,10.387,0.569c-0.748-11.615-1.305-23.468-1.687-35.536c-0.383-12.07-0.557-25.886-0.557-41.427v-16.015
			c7.104-0.374,14.225-0.652,21.342-0.843c7.119-0.183,14.226-0.285,21.344-0.285c7.119,0,14.236,0.146,21.357,0.425
			c7.105,0.278,14.225,0.52,21.344,0.703v16.015c0,15.541-0.188,29.355-0.569,41.427c-0.365,12.068-0.925,23.92-1.67,35.536
			c3.178-0.382,6.635-0.569,10.385-0.569s7.953,0,12.643,0c4.674,0,8.894,0,12.644,0c3.733,0,7.205,0.188,10.385,0.569
			c-0.746-11.615-1.303-23.468-1.684-35.536c-0.367-12.07-0.56-25.886-0.56-41.427v-38.207
			C703.26,264.068,703.45,250.255,703.817,238.17z"/>
		
			<linearGradient id="SVGID_4_" gradientUnits="userSpaceOnUse" x1="1128.0215" y1="51.437" x2="1128.0215" y2="-148.8413" gradientTransform="matrix(1 0 0 1 -298.5 346.9824)">
			<stop  offset="0" style="stop-color:#212058"/>
			<stop  offset="0.0693" style="stop-color:#24235F"/>
			<stop  offset="0.2522" style="stop-color:#2A2B6F"/>
			<stop  offset="0.437" style="stop-color:#2D2F7B"/>
			<stop  offset="0.6229" style="stop-color:#2F3282"/>
			<stop  offset="0.8118" style="stop-color:#2F3384"/>
		</linearGradient>
		<path fill="url(#SVGID_4_)" d="M898.055,369.489c-4.026,2.621-8.291,4.817-12.771,6.606c-4.498,1.771-9.101,3.179-13.771,4.202
			c-4.688,1.04-9.27,1.554-13.77,1.554c-8.043,0-16.056-1.493-24.008-4.498c-7.974-3.002-15.074-7.731-21.359-14.18
			c-6.271-6.475-11.367-14.795-15.307-25.005c-3.927-10.209-5.892-22.514-5.892-36.939c0-14.978,1.918-27.854,5.758-38.62
			c3.839-10.768,8.849-19.615,15.029-26.544c6.182-6.928,13.051-12.084,20.639-15.446c7.591-3.376,15.119-5.062,22.619-5.062
			c10.107,0,18.91,1.927,26.396,5.757c7.483,3.846,14.795,10.254,21.914,19.241h3.926c0.381-4.863,1.084-9.683,2.109-14.465
			c1.022-4.776,2.475-9.5,4.364-14.181c-3.194-1.875-7.075-3.654-11.659-5.339c-4.603-1.685-9.42-3.135-14.476-4.358
			c-5.053-1.208-10.297-2.197-15.729-2.943c-5.438-0.748-10.576-1.129-15.441-1.129c-14.795,0-28.93,1.971-42.422,5.903
			c-13.477,3.926-25.328,10.159-35.521,18.677c-10.209,8.526-18.368,19.57-24.446,33.15c-6.08,13.579-9.127,30.103-9.127,49.569
			c0,13.305,2.344,25.668,7.018,37.08c4.688,11.426,11.469,21.299,20.361,29.635c8.906,8.334,19.76,14.794,32.592,19.379
			c12.818,4.6,27.396,6.887,43.668,6.887c23.043,0,42.146-3.839,57.318-11.515c0.366-3.941,1.114-7.91,2.241-11.938
			c1.13-4.026,2.433-8.013,3.927-11.938l-3.646-2.24C905.584,363.967,902.083,366.867,898.055,369.489z"/>
	</g>
</g>
<g id="Text">
	<path fill="#BE1E2D" d="M244.46,557.011c-0.198-6.18-0.484-12.375-0.865-18.583c1.623,0.189,3.39,0.354,5.302,0.515
		c1.912,0.129,4.072,0.193,6.456,0.193c3.352,0,6.822-0.118,10.41-0.354c3.587-0.229,7.095-0.354,10.538-0.354
		c6.783,0,12.1,0.515,15.92,1.512c3.823,0.99,6.835,2.473,9.034,4.385c3.065,2.489,5.302,5.232,6.745,8.301
		c1.424,3.062,2.145,6.757,2.145,11.047c0,5.446-0.903,10.138-2.724,14.062c-1.821,3.931-4.372,7.111-7.67,9.548
		c-3.299,2.437-7.202,4.23-11.693,5.381c-4.491,1.12-9.411,1.698-14.766,1.698h-7.32c0,7.176,0.08,14.341,0.225,21.463
		c0.129,7.122,0.442,14.18,0.929,21.141c-1.626-0.183-3.405-0.289-5.317-0.289c-1.912,0-4.06,0-6.456,0c-2.384,0-4.543,0-6.456,0
		s-3.679,0.106-5.302,0.289c0.381-5.917,0.667-11.979,0.865-18.132c0.182-6.179,0.29-13.236,0.29-21.173v-19.508
		C244.75,570.222,244.642,563.163,244.46,557.011z M286.264,556.785c-0.812-2.484-1.912-4.46-3.299-5.954
		c-1.39-1.468-3.012-2.555-4.871-3.208c-1.874-0.68-3.809-1.022-5.812-1.022h-3.298c-0.473,0-0.957,0-1.428,0
		c-0.484,0-0.918,0.054-1.295,0.16c-0.095,6.887-0.171,13.655-0.209,20.273c-0.054,6.657-0.08,13.318-0.08,20.022
		c2.396,0,4.856-0.236,7.385-0.708c2.537-0.496,4.856-1.476,6.966-2.944c2.091-1.493,3.82-3.63,5.157-6.403
		c1.333-2.748,2.003-6.437,2.003-11.021C287.482,562.338,287.074,559.275,286.264,556.785z"/>
	<path fill="#BE1E2D" d="M333.673,613.45c0.758,3.353,1.936,6.249,3.507,8.68c1.585,2.438,3.588,4.35,6.037,5.736
		c2.434,1.387,5.275,2.083,8.521,2.083c6.6,0,12.477-2.147,17.649-6.469l1.717,1.312l-3.157,8.006
		c-2.381,1.837-5.249,3.294-8.6,4.391c-3.355,1.098-7.751,1.634-13.197,1.634c-4.688,0-9.129-0.643-13.342-1.922
		c-4.204-1.281-7.91-3.417-11.117-6.373c-3.208-2.985-5.732-6.721-7.591-11.277c-1.874-4.524-2.803-9.96-2.803-16.273
		c0-6.201,0.838-11.625,2.514-16.21c1.66-4.577,3.991-8.401,6.951-11.464c2.958-3.062,6.481-5.371,10.539-6.887
		c4.075-1.547,8.485-2.308,13.277-2.308c9.468,0,16.708,2.78,21.72,8.326c5.028,5.554,7.53,13.383,7.53,23.514v3.01
		c0,0.867-0.042,1.446-0.145,1.729h-41.164C332.519,606.512,332.896,610.099,333.673,613.45z M351.962,579.02
		c-1.584-4.296-4.228-6.443-7.96-6.443c-2.109,0-3.876,0.707-5.317,2.147c-1.428,1.44-2.578,3.257-3.443,5.511
		c-0.849,2.255-1.505,4.793-1.923,7.625c-0.434,2.796-0.693,5.618-0.8,8.359h22.086C354.422,589.075,353.532,583.315,351.962,579.02
		z"/>
	<path fill="#BE1E2D" d="M449.566,613.579c0.183,7.86,0.468,15.638,0.864,23.385c-1.245-0.183-2.829-0.289-4.741-0.289
		s-3.928,0-6.021,0c-1.912,0-3.759,0-5.526,0c-1.768,0-3.127,0.106-4.083,0.289c0.091-0.183,0.182-0.808,0.29-1.857
		c0.091-1.045,0.209-2.255,0.351-3.588c0.145-1.334,0.262-2.592,0.369-3.717c0.091-1.151,0.141-1.89,0.141-2.18l-0.286-0.283
		c-1.82,4.321-4.307,7.631-7.464,9.991c-3.154,2.33-7.5,3.492-13.052,3.492c-4.871,0-9.034-0.926-12.477-2.784
		s-6.258-4.466-8.456-7.818c-2.202-3.352-3.839-7.281-4.886-11.761c-1.048-4.502-1.569-9.316-1.569-14.474
		c0-5.188,0.705-9.943,2.147-14.286c1.424-4.349,3.39-8.118,5.877-11.342c2.487-3.191,5.431-5.692,8.825-7.529
		c3.389-1.798,7.003-2.72,10.827-2.72c4.308,0,8.155,1.022,11.548,3.01c3.389,2.018,5.903,4.562,7.526,7.624h0.289
		c0-8.615-0.091-16.723-0.289-24.311c-0.195-7.625-0.485-15.49-0.865-23.609c1.245,0.183,2.83,0.354,4.742,0.515
		c1.912,0.128,3.915,0.192,6.021,0.192c2.094,0,4.109-0.064,6.021-0.192c1.912-0.161,3.496-0.332,4.741-0.515
		c-0.396,8.037-0.681,15.974-0.864,23.803c-0.198,7.855-0.289,16.439-0.289,25.815v9.323
		C449.277,597.141,449.368,605.756,449.566,613.579z M405.249,616.459c0.667,3.359,1.569,6.037,2.724,8.108
		c1.138,2.041,2.459,3.534,3.941,4.449c1.478,0.891,3.036,1.351,4.658,1.351c3.927,0,7.149-2.212,9.689-6.668
		c2.525-4.449,3.797-11.818,3.797-22.163c0-8.874-1.192-15.353-3.588-19.442c-2.396-4.06-5.446-6.09-9.178-6.09
		c-1.531,0-3.063,0.449-4.594,1.285c-1.534,0.862-2.909,2.367-4.151,4.516c-1.242,2.178-2.278,5.069-3.089,8.68
		c-0.812,3.641-1.218,8.203-1.218,13.649C404.24,609.001,404.579,613.107,405.249,616.459z"/>
	<path fill="#BE1E2D" d="M469.923,532.828c2.201-2.201,4.886-3.299,8.04-3.299s5.827,1.098,8.024,3.299s3.299,4.899,3.299,8.037
		c0,3.17-1.101,5.842-3.299,8.043c-2.198,2.202-4.871,3.299-8.024,3.299s-5.839-1.097-8.04-3.299
		c-2.202-2.201-3.283-4.873-3.283-8.043C466.64,537.728,467.721,535.029,469.923,532.828z M468.145,583.404
		c-0.16-5.135-0.458-10.249-0.945-15.438c1.349,0.214,2.921,0.385,4.742,0.514c1.817,0.154,3.82,0.226,6.021,0.226
		c4.49,0,8.078-0.236,10.748-0.739c-0.472,5.188-0.785,10.303-0.929,15.438c-0.144,5.104-0.209,10.592-0.209,16.402v5.767
		c0,5.812,0.065,11.305,0.209,16.468c0.145,5.182,0.458,10.162,0.929,14.923c-1.229-0.183-2.787-0.289-4.646-0.289
		c-1.874,0-3.904,0-6.102,0c-2.201,0-4.205,0-6.021,0c-1.821,0-3.393,0.106-4.742,0.289c0.487-4.761,0.785-9.741,0.945-14.923
		c0.129-5.163,0.209-10.656,0.209-16.468v-5.767C468.354,593.996,468.274,588.508,468.145,583.404z"/>
	<path fill="#BE1E2D" d="M519.203,568.706c4.635-1.736,9.243-2.598,13.84-2.598c3.82,0,7.331,0.449,10.539,1.28
		c3.191,0.867,5.971,2.243,8.326,4.102c2.33,1.857,4.166,4.284,5.445,7.24c1.287,2.955,1.924,6.543,1.924,10.763
		c0,6.126-0.064,11.796-0.193,17.007c-0.16,5.21-0.225,10.378-0.225,15.541c0,2.302,0.17,4.096,0.514,5.382
		c0.311,1.311,0.824,2.29,1.504,2.944c0.654,0.68,1.527,1.098,2.631,1.28c1.098,0.214,2.373,0.289,3.812,0.289v3.458
		c-2.779,1.151-5.109,2.019-7.016,2.567c-1.912,0.571-3.984,0.86-6.186,0.86c-3.533,0-6.414-0.86-8.615-2.565
		c-2.201-1.729-3.877-4.214-5.011-7.459c-2.202,3.063-4.753,5.5-7.674,7.305c-2.906,1.83-6.571,2.72-10.97,2.72
		c-3.625,0-6.745-0.472-9.323-1.409c-2.578-0.974-4.715-2.318-6.375-4.101c-1.676-1.783-2.895-3.771-3.668-6.025
		c-0.758-2.248-1.135-4.514-1.135-6.821c0-3.139,0.496-5.858,1.505-8.166c0.993-2.308,2.434-4.273,4.292-5.896
		c1.874-1.622,4.086-2.967,6.68-4.064c2.578-1.104,5.497-2.029,8.745-2.821c4.019-0.938,7.186-1.795,9.544-2.503
		c2.331-0.7,4.083-1.439,5.222-2.141c1.154-0.707,1.9-1.505,2.228-2.372c0.34-0.862,0.496-1.912,0.496-3.139
		c0-3.459-1.219-6.403-3.652-8.841c-2.434-2.437-5.796-3.652-10.108-3.652c-1.623,0-3.298,0.226-5.027,0.644
		c-1.714,0.443-3.363,1.033-4.948,1.794c-1.569,0.755-3.013,1.611-4.292,2.496c-1.299,0.92-2.281,1.9-2.948,2.95h-0.994
		l-1.874-8.591C510.237,572.889,514.556,570.429,519.203,568.706z M540.283,605.767c0.053-2.147,0.065-4.047,0.065-5.671
		c-2.003,1.151-4.125,2.084-6.376,2.816c-2.254,0.707-4.308,1.622-6.166,2.726c-1.874,1.098-3.393,2.603-4.597,4.515
		c-1.192,1.912-1.793,4.691-1.793,8.326c0,3.534,0.746,6.218,2.228,8.107c1.478,1.858,3.47,2.784,5.957,2.784
		c3.154,0,5.706-1.204,7.671-3.587c1.965-2.378,2.947-5.942,2.947-10.604C540.218,611.073,540.229,607.908,540.283,605.767z"/>
	<path fill="#BE1E2D" d="M614.502,572.576c0,1.233,0.16,2.438,0.449,3.588l-12.621-0.289c-0.215,2.201-0.385,4.713-0.514,7.594
		c-0.16,2.88-0.236,5.789-0.289,8.744c-0.055,2.962-0.107,5.843-0.154,8.616c-0.029,2.779-0.064,5.109-0.064,7.015
		c0,4.98,0.111,8.987,0.348,12.049c0.266,3.063,0.674,5.425,1.221,7.047c0.572,1.623,1.387,2.721,2.463,3.299
		c1.049,0.572,2.383,0.861,4.006,0.861c1.805,0,3.137-0.142,4.006-0.379c0.861-0.235,1.729-0.589,2.59-1.061v5.864
		c-1.912,0.861-4.289,1.622-7.176,2.308c-2.848,0.679-5.682,0.99-8.455,0.99c-12.15,0-18.227-7.25-18.227-21.784
		c0-2.773,0.053-5.9,0.16-9.411c0.074-3.482,0.193-7.07,0.354-10.733c0.129-3.694,0.246-7.336,0.354-10.924
		c0.105-3.588,0.16-6.897,0.16-9.966l-10.062,0.16c0.289-1.15,0.451-2.354,0.451-3.588c0-1.15-0.162-2.431-0.451-3.87l10.062,0.412
		c0-2.956-0.055-5.729-0.16-8.327c-0.107-2.565-0.236-5.682-0.418-9.323c3.32-1.333,6.619-2.73,9.902-4.224
		c3.244-1.469,6.488-3.026,9.734-4.649l1.439,0.997c-0.182,1.547-0.354,3.341-0.508,5.381c-0.129,2.073-0.289,4.214-0.418,6.469
		c-0.16,2.223-0.236,4.531-0.289,6.886c-0.055,2.33-0.064,4.542-0.064,6.661l12.621-0.282
		C614.662,570.146,614.502,571.426,614.502,572.576z"/>
	<path fill="#BE1E2D" d="M645.48,585.776c2.484-6.597,5.492-11.459,9.033-14.575c3.561-3.116,7.748-4.644,12.623-4.644
		c0.496,0,0.902,0.012,1.246,0.064c0.305,0.054,0.658,0.064,1.055,0.064c-0.289,1.44-0.514,2.956-0.643,4.579
		c-0.154,1.623-0.219,3.534-0.219,5.735v4.609c0,0.761,0,1.569,0,2.437c0,0.862,0.047,1.677,0.152,2.438l-1.311,1.15
		c-0.936-0.578-2.029-1.05-3.201-1.44c-1.205-0.396-2.58-0.578-4.104-0.578c-4.289,0-7.693,1.43-10.184,4.23
		c-2.49,2.827-3.717,6.137-3.717,9.96v5.767c0,5.812,0.064,11.305,0.193,16.468c0.16,5.182,0.459,10.162,0.932,14.923
		c-1.23-0.183-2.781-0.289-4.637-0.289c-1.85,0-3.846,0-6.037,0s-4.17,0-5.973,0c-1.826,0-3.395,0.106-4.719,0.289
		c0.439-4.761,0.689-9.741,0.809-14.923c0.15-5.163,0.213-10.656,0.213-16.468v-5.767c0-5.811-0.062-11.299-0.213-16.402
		c-0.119-5.135-0.369-10.249-0.809-15.438c1.613,0.214,3.275,0.385,4.912,0.514c1.672,0.154,3.299,0.226,4.918,0.226
		c1.621,0,3.246-0.071,4.918-0.226c1.668-0.129,3.299-0.3,4.914-0.514l-0.443,17.521L645.48,585.776z"/>
	<path fill="#BE1E2D" d="M685.068,532.828c2.201-2.201,4.873-3.299,8.043-3.299c3.139,0,5.836,1.098,8.037,3.299
		s3.299,4.899,3.299,8.037c0,3.17-1.098,5.842-3.299,8.043c-2.201,2.202-4.898,3.299-8.037,3.299c-3.17,0-5.842-1.097-8.043-3.299
		c-2.201-2.201-3.299-4.873-3.299-8.043C681.77,537.728,682.867,535.029,685.068,532.828z M683.273,583.404
		c-0.127-5.135-0.461-10.249-0.926-15.438c1.334,0.214,2.902,0.385,4.738,0.514c1.805,0.154,3.824,0.226,6.025,0.226
		c4.473,0,8.059-0.236,10.764-0.739c-0.504,5.188-0.805,10.303-0.932,15.438c-0.162,5.104-0.227,10.592-0.227,16.402v5.767
		c0,5.812,0.064,11.305,0.227,16.468c0.127,5.182,0.428,10.162,0.932,14.923c-1.264-0.183-2.822-0.289-4.68-0.289
		c-1.859,0-3.889,0-6.084,0c-2.201,0-4.221,0-6.025,0c-1.836,0-3.404,0.106-4.738,0.289c0.465-4.761,0.799-9.741,0.926-14.923
		c0.16-5.163,0.227-10.656,0.227-16.468v-5.767C683.5,593.996,683.434,588.508,683.273,583.404z"/>
	<path fill="#BE1E2D" d="M768.32,577.386c-2.217-2.65-5.564-3.942-9.959-3.942c-5.736,0-10.025,2.604-12.912,7.813
		c-2.848,5.217-4.289,12.45-4.289,21.72c0,8.691,1.805,15.359,5.447,20.021c3.641,4.633,8.926,6.951,15.92,6.951
		c2.955,0,5.836-0.696,8.615-2.083c2.773-1.387,4.814-2.945,6.148-4.675l1.729,1.44c-0.68,1.334-1.227,2.727-1.729,4.166
		c-0.473,1.44-0.938,2.85-1.439,4.289c-2.096,1.623-4.752,3.005-7.943,4.102c-3.197,1.098-7.01,1.634-11.406,1.634
		c-6.992,0-12.857-0.99-17.648-3.009c-4.768-1.988-8.627-4.714-11.535-8.173c-2.934-3.427-5.018-7.34-6.244-11.689
		c-1.258-4.348-1.857-8.733-1.857-13.135c0-5.232,0.879-10.131,2.654-14.609c1.758-4.502,4.297-8.379,7.594-11.625
		c3.299-3.244,7.295-5.8,11.979-7.689c4.691-1.858,9.902-2.784,15.637-2.784c5.447,0,10.068,0.632,13.838,1.858
		c3.77,1.258,7.4,2.88,10.828,4.898c-1.158,1.913-2.213,4.242-3.234,7.016c-0.996,2.779-1.748,5.393-2.213,7.883h-3.457
		C772.08,583.469,770.574,579.999,768.32,577.386z"/>
	<path fill="#BE1E2D" d="M796.863,623.699c0.92,1.394,2.061,2.62,3.393,3.724c1.34,1.098,2.922,2.001,4.811,2.655
		c1.857,0.686,4.01,1.021,6.502,1.021c3.35,0,5.947-0.861,7.752-2.591c1.83-1.729,2.721-3.588,2.721-5.606
		c0-2.2-0.814-3.952-2.438-5.285c-1.621-1.334-3.652-2.579-6.082-3.683c-2.438-1.098-5.094-2.214-7.973-3.365
		c-2.855-1.15-5.518-2.607-7.947-4.359c-2.438-1.782-4.467-3.988-6.09-6.691c-1.654-2.667-2.461-6.095-2.461-10.314
		c0-4.006,0.742-7.476,2.236-10.409c1.469-2.909,3.416-5.286,5.801-7.145c2.383-1.89,5.092-3.276,8.107-4.166
		c3.01-0.915,6.006-1.376,8.963-1.376c4.006,0,7.582,0.578,10.699,1.729c3.09,1.15,6.271,2.827,9.516,5.027
		c-0.861,1.913-1.568,3.953-2.146,6.154c-0.574,2.201-0.992,4.343-1.281,6.468h-4.037c-0.258-1.151-0.754-2.426-1.408-3.812
		c-0.68-1.387-1.6-2.709-2.721-3.941c-1.156-1.258-2.543-2.259-4.166-3.074c-1.623-0.808-3.588-1.216-5.895-1.216
		c-2.85,0-5.275,0.756-7.24,2.277c-1.967,1.547-2.945,3.534-2.945,6.019c0,2.308,0.85,4.155,2.533,5.542
		c1.668,1.387,3.752,2.608,6.213,3.652c2.488,1.044,5.209,2.094,8.195,3.138c2.963,1.051,5.682,2.427,8.172,4.103
		c2.484,1.676,4.568,3.834,6.244,6.531c1.676,2.674,2.502,6.101,2.502,10.314c0,4.22-0.762,7.818-2.309,10.828
		c-1.516,3.015-3.588,5.499-6.146,7.465c-2.598,1.965-5.541,3.362-8.842,4.23c-3.297,0.861-6.742,1.279-10.377,1.279
		c-4.297,0-8.172-0.601-11.631-1.858c-3.428-1.226-6.148-2.537-8.166-3.877c1.15-4.578,1.857-9.163,2.146-13.772h3.588
		C795.229,620.862,795.979,622.313,796.863,623.699z"/>
</g>
</svg>
