<?xml version="1.0" encoding="utf-8"?>
<!-- Generator: Adobe Illustrator 16.0.1, SVG Export Plug-In . SVG Version: 6.00 Build 0)  -->
<!DOCTYPE svg PUBLIC "-//W3C//DTD SVG 1.1//EN" "http://www.w3.org/Graphics/SVG/1.1/DTD/svg11.dtd">
<svg version="1.1" id="Layer_1" xmlns="http://www.w3.org/2000/svg" xmlns:xlink="http://www.w3.org/1999/xlink" x="0px" y="0px"
	 width="1080.005px" height="604.904px" viewBox="0 0 1080.005 604.904" enable-background="new 0 0 1080.005 604.904"
	 xml:space="preserve">
<path fill="#FFFFFF" d="M1080.005,302.506c0,167.062-241.772,302.502-540.003,302.502C241.759,605.008,0,469.568,0,302.506
	C0,135.433,241.759,0,540.002,0C838.233,0,1080.005,135.433,1080.005,302.506z"/>
<g>
	<g>
		<linearGradient id="SVGID_1_" gradientUnits="userSpaceOnUse" x1="539.9956" y1="506.1426" x2="539.9956" y2="22.3458">
			<stop  offset="0" style="stop-color:#6D4C39"/>
			<stop  offset="1" style="stop-color:#8C7167"/>
		</linearGradient>
		<path fill="url(#SVGID_1_)" d="M540.002,27.137c-282.292,0-511.936,122.103-511.936,272.191
			c0,75.142,61.905,148.136,170.011,200.738c0.015-0.029,0.044-0.043,0.073-0.059C106.641,451.99,79.072,374.294,79.072,305.839
			c0-134.715,198.15-236.31,460.93-236.31c262.765,0,460.914,101.595,460.914,236.31c0,68.396-29.032,146.283-120.644,194.286
			c0.19,0.162,0.396,0.308,0.571,0.469c108.765-52.632,171.08-125.875,171.08-201.266
			C1051.924,149.239,822.279,27.137,540.002,27.137z"/>
	</g>
	<g>
		<linearGradient id="SVGID_2_" gradientUnits="userSpaceOnUse" x1="237.5474" y1="394.7725" x2="237.5473" y2="201.7983">
			<stop  offset="0" style="stop-color:#212058"/>
			<stop  offset="0.0693" style="stop-color:#24235F"/>
			<stop  offset="0.2522" style="stop-color:#2A2B6F"/>
			<stop  offset="0.437" style="stop-color:#2D2F7B"/>
			<stop  offset="0.6229" style="stop-color:#2F3282"/>
			<stop  offset="0.8118" style="stop-color:#2F3384"/>
		</linearGradient>
		<path fill="url(#SVGID_2_)" d="M174.068,238.17c-0.381-12.077-0.938-24.199-1.685-36.372c3.179,0.381,6.636,0.703,10.386,0.981
			s7.954,0.425,12.642,0.425c6.548,0,13.345-0.234,20.361-0.703c7.031-0.469,13.901-0.703,20.654-0.703
			c13.286,0,23.687,0.981,31.172,2.952c7.485,1.963,13.389,4.819,17.695,8.568c5.992,4.864,10.401,10.298,13.199,16.282
			c2.812,5.998,4.219,13.205,4.219,21.636c0,10.672-1.787,19.849-5.332,27.524c-3.56,7.684-8.569,13.902-15.03,18.677
			c-6.46,4.783-14.092,8.291-22.896,10.54c-8.804,2.244-18.442,3.358-28.931,3.358h-14.326c0,14.062,0.146,28.051,0.425,41.997
			c0.278,13.96,0.879,27.773,1.831,41.439c-3.193-0.381-6.65-0.57-10.4-0.57s-7.954,0-12.642,0c-4.688,0-8.892,0-12.642,0
			s-7.207,0.189-10.386,0.57c0.747-11.616,1.304-23.467,1.685-35.536c0.366-12.07,0.557-25.885,0.557-41.426v-38.207
			C174.625,264.068,174.434,250.255,174.068,238.17z M255.938,237.753c-1.582-4.864-3.735-8.753-6.46-11.66
			c-2.71-2.9-5.889-5.01-9.551-6.314c-3.647-1.311-7.441-1.97-11.367-1.97h-6.46c-0.938,0-1.875,0-2.812,0s-1.787,0.095-2.52,0.278
			c-0.19,13.483-0.337,26.733-0.425,39.749c-0.103,13.015-0.146,26.074-0.146,39.185c4.688,0,9.507-0.469,14.473-1.406
			c4.951-0.931,9.492-2.856,13.623-5.757c4.116-2.9,7.485-7.068,10.107-12.503c2.622-5.427,3.94-12.634,3.94-21.628
			C258.341,248.606,257.535,242.623,255.938,237.753z"/>
		<linearGradient id="SVGID_3_" gradientUnits="userSpaceOnUse" x1="409.5869" y1="398.4219" x2="409.5869" y2="198.1431">
			<stop  offset="0" style="stop-color:#212058"/>
			<stop  offset="0.0693" style="stop-color:#24235F"/>
			<stop  offset="0.2522" style="stop-color:#2A2B6F"/>
			<stop  offset="0.437" style="stop-color:#2D2F7B"/>
			<stop  offset="0.6229" style="stop-color:#2F3282"/>
			<stop  offset="0.8118" style="stop-color:#2F3384"/>
		</linearGradient>
		<path fill="url(#SVGID_3_)" d="M488.381,374.969c-1.128,4.028-1.875,7.997-2.256,11.938
			c-15.162,7.676-34.263,11.515-57.291,11.515c-16.289,0-30.864-2.287-43.682-6.887c-12.832-4.585-23.687-11.045-32.578-19.379
			c-8.906-8.336-15.688-18.209-20.361-29.635c-4.688-11.411-7.031-23.774-7.031-37.079c0-19.467,3.047-35.99,9.126-49.569
			c6.094-13.58,14.238-24.624,24.448-33.15c10.195-8.518,22.046-14.751,35.523-18.677c13.477-3.933,27.627-5.903,42.422-5.903
			c4.863,0,10.005,0.381,15.439,1.129c5.435,0.746,10.679,1.735,15.732,2.943c5.054,1.224,9.873,2.674,14.473,4.358
			c4.585,1.685,8.467,3.464,11.646,5.339c-1.86,4.681-3.325,9.404-4.351,14.181c-1.025,4.782-1.729,9.602-2.109,14.465h-3.926
			c-7.119-8.987-14.429-15.396-21.914-19.241c-7.485-3.83-16.289-5.757-26.396-5.757c-7.5,0-15.029,1.686-22.617,5.062
			c-7.588,3.362-14.458,8.519-20.64,15.446c-6.182,6.929-11.191,15.776-15.029,26.544c-3.838,10.767-5.757,23.643-5.757,38.62
			c0,14.426,1.963,26.73,5.889,36.939c3.94,10.21,9.038,18.53,15.322,25.005c6.27,6.446,13.389,11.177,21.343,14.18
			c7.954,3.004,15.952,4.498,24.009,4.498c4.497,0,9.082-0.514,13.77-1.554c4.688-1.025,9.272-2.431,13.77-4.203
			c4.497-1.788,8.745-3.985,12.773-6.607s7.53-5.522,10.533-8.7l3.647,2.24C490.813,366.956,489.509,370.94,488.381,374.969z"/>
		<linearGradient id="SVGID_4_" gradientUnits="userSpaceOnUse" x1="618.9868" y1="394.7725" x2="618.9868" y2="201.7983">
			<stop  offset="0" style="stop-color:#212058"/>
			<stop  offset="0.0693" style="stop-color:#24235F"/>
			<stop  offset="0.2522" style="stop-color:#2A2B6F"/>
			<stop  offset="0.437" style="stop-color:#2D2F7B"/>
			<stop  offset="0.6229" style="stop-color:#2F3282"/>
			<stop  offset="0.8118" style="stop-color:#2F3384"/>
		</linearGradient>
		<path fill="url(#SVGID_4_)" d="M640.344,301.093c-7.12-0.278-14.238-0.425-21.357-0.425s-14.224,0.103-21.343,0.285
			c-7.118,0.19-14.239,0.469-21.342,0.843v16.015c0,15.541,0.174,29.355,0.555,41.426c0.382,12.069,0.938,23.92,1.686,35.536
			c-3.179-0.381-6.651-0.57-10.386-0.57c-3.75,0-7.969,0-12.642,0c-4.688,0-8.906,0-12.642,0c-3.75,0-7.207,0.189-10.4,0.57
			c0.747-11.616,1.318-23.467,1.699-35.536c0.366-12.07,0.557-25.885,0.557-41.426v-38.207c0-15.535-0.19-29.349-0.557-41.434
			c-0.381-12.077-0.952-24.199-1.699-36.372c3.193,0.381,6.65,0.703,10.4,0.981c3.735,0.278,7.954,0.425,12.642,0.425
			c4.673,0,8.892-0.146,12.642-0.425c3.734-0.278,7.207-0.601,10.386-0.981c-0.938,12.173-1.539,24.199-1.831,36.094
			c-0.278,11.895-0.409,25.606-0.409,41.155c4.862,0.184,10.707,0.33,17.548,0.417c6.842,0.096,15.308,0.14,25.415,0.14
			c10.121,0,18.354-0.044,24.726-0.14c6.359-0.087,12.263-0.233,17.696-0.417c0-15.549-0.189-29.261-0.57-41.155
			c-0.365-11.895-0.923-23.921-1.67-36.094c3.179,0.381,6.636,0.703,10.386,0.981s7.953,0.425,12.642,0.425
			c4.673,0,8.892-0.146,12.642-0.425c3.735-0.278,7.206-0.601,10.386-0.981c-0.747,12.173-1.304,24.295-1.685,36.372
			c-0.367,12.085-0.557,25.898-0.557,41.434v38.207c0,15.541,0.189,29.355,0.557,41.426c0.381,12.069,0.938,23.92,1.685,35.536
			c-3.18-0.381-6.65-0.57-10.386-0.57c-3.75,0-7.969,0-12.642,0c-4.688,0-8.892,0-12.642,0s-7.207,0.189-10.386,0.57
			c0.747-11.616,1.305-23.467,1.67-35.536c0.381-12.07,0.57-25.885,0.57-41.426v-16.015
			C654.569,301.612,647.45,301.371,640.344,301.093z"/>
		<linearGradient id="SVGID_5_" gradientUnits="userSpaceOnUse" x1="829.5229" y1="398.4219" x2="829.5229" y2="198.1431">
			<stop  offset="0" style="stop-color:#212058"/>
			<stop  offset="0.0693" style="stop-color:#24235F"/>
			<stop  offset="0.2522" style="stop-color:#2A2B6F"/>
			<stop  offset="0.437" style="stop-color:#2D2F7B"/>
			<stop  offset="0.6229" style="stop-color:#2F3282"/>
			<stop  offset="0.8118" style="stop-color:#2F3384"/>
		</linearGradient>
		<path fill="url(#SVGID_5_)" d="M908.31,374.969c-1.128,4.028-1.875,7.997-2.242,11.938c-15.175,7.676-34.276,11.515-57.318,11.515
			c-16.275,0-30.851-2.287-43.668-6.887c-12.832-4.585-23.687-11.045-32.593-19.379c-8.893-8.336-15.675-18.209-20.361-29.635
			c-4.673-11.411-7.017-23.774-7.017-37.079c0-19.467,3.046-35.99,9.126-49.569c6.079-13.58,14.238-24.624,24.448-33.15
			c10.194-8.518,22.046-14.751,35.522-18.677c13.491-3.933,27.627-5.903,42.422-5.903c4.864,0,10.005,0.381,15.44,1.129
			c5.435,0.746,10.679,1.735,15.732,2.943c5.054,1.224,9.873,2.674,14.473,4.358c4.585,1.685,8.466,3.464,11.66,5.339
			c-1.89,4.681-3.341,9.404-4.365,14.181c-1.025,4.782-1.729,9.602-2.109,14.465h-3.926c-7.119-8.987-14.429-15.396-21.914-19.241
			c-7.485-3.83-16.289-5.757-26.396-5.757c-7.5,0-15.03,1.686-22.619,5.062c-7.588,3.362-14.457,8.519-20.639,15.446
			c-6.182,6.929-11.192,15.776-15.03,26.544c-3.838,10.767-5.756,23.643-5.756,38.62c0,14.426,1.964,26.73,5.889,36.939
			c3.94,10.21,9.038,18.53,15.308,25.005c6.285,6.446,13.388,11.177,21.358,14.18c7.953,3.004,15.966,4.498,24.009,4.498
			c4.498,0,9.082-0.514,13.77-1.554c4.672-1.025,9.271-2.431,13.77-4.203c4.482-1.788,8.744-3.985,12.773-6.607
			c4.027-2.622,7.529-5.522,10.532-8.7l3.647,2.24C910.741,366.956,909.438,370.94,908.31,374.969z"/>
	</g>
</g>
</svg>
