<?xml version="1.0" encoding="utf-8"?>
<!-- Generator: Adobe Illustrator 16.0.1, SVG Export Plug-In . SVG Version: 6.00 Build 0)  -->
<!DOCTYPE svg PUBLIC "-//W3C//DTD SVG 1.1//EN" "http://www.w3.org/Graphics/SVG/1.1/DTD/svg11.dtd">
<svg version="1.1" id="PCHC_Logo" xmlns="http://www.w3.org/2000/svg" xmlns:xlink="http://www.w3.org/1999/xlink" x="0px" y="0px"
	 width="1080.004px" height="717.982px" viewBox="0 0 1080.004 717.982" enable-background="new 0 0 1080.004 717.982"
	 xml:space="preserve">
<g id="Backer_1_">
	<ellipse fill="#FFFFFF" cx="540.002" cy="303.785" rx="540.002" ry="303.785"/>
	<path fill="#FFFFFF" d="M963.661,486.774H117.502c-31.765,0-57.515,31.562-57.515,70.498c0,38.934,25.75,70.496,57.515,70.496
		h194.979c-7.458,7.407-12.059,17.521-12.059,28.682c0,22.703,19.018,41.108,42.477,41.108h395.365
		c23.459,0,42.477-18.405,42.477-41.108c0-11.16-4.602-21.274-12.059-28.682h194.979c31.764,0,57.514-31.562,57.514-70.496
		C1021.174,518.337,995.424,486.774,963.661,486.774z"/>
</g>
<g id="Text_1_">
	<path fill="#BE1E2D" d="M89.538,542.513c-0.106-3.396-0.265-6.806-0.474-10.23c0.895,0.106,1.868,0.197,2.923,0.276
		c1.053,0.079,2.237,0.119,3.555,0.119c1.738,0,3.686-0.065,5.846-0.198c2.159-0.131,4.978-0.197,8.453-0.197
		c4.529,0,8.65,0.409,12.363,1.225c3.714,0.817,6.913,2.2,9.599,4.147c2.687,1.949,4.767,4.569,6.241,7.86
		c1.474,3.292,2.212,7.439,2.212,12.442c0,4.373-0.725,8.322-2.172,11.851c-1.449,3.529-3.425,6.545-5.926,9.045
		c-2.502,2.503-5.398,4.412-8.689,5.728c-3.292,1.317-6.808,1.976-10.547,1.976c-3.95,0-7.321-0.027-10.112-0.079
		c-2.792-0.053-5.214-0.079-7.268-0.079c-1.317,0-2.502,0-3.555,0c-1.055,0-2.028,0.052-2.923,0.158
		c0.209-3.265,0.367-6.597,0.474-9.994c0.104-3.396,0.158-7.28,0.158-11.652v-10.744C89.696,549.795,89.642,545.91,89.538,542.513z
		 M101.387,570.677v4.739c0,1.528,0.013,2.924,0.04,4.188c0.025,1.264,0.039,2.081,0.039,2.449c0.79,0.053,1.738,0.105,2.845,0.158
		c1.105,0.053,2.475,0.078,4.107,0.078c5.951,0,10.665-2.026,14.141-6.083c3.477-4.055,5.215-10.19,5.215-18.406
		c0-3.266-0.435-6.188-1.304-8.77c-0.869-2.58-2.094-4.779-3.674-6.597c-1.58-1.816-3.476-3.212-5.688-4.187
		c-2.212-0.974-4.688-1.462-7.427-1.462c-1.896,0-3.437,0.04-4.621,0.119s-2.384,0.171-3.595,0.276c0,0.369-0.014,1.185-0.039,2.449
		c-0.027,1.264-0.04,2.686-0.04,4.266v4.74v3.95v14.062V570.677z"/>
	<path fill="#BE1E2D" d="M159.057,573.6c0.421,1.844,1.066,3.437,1.936,4.779s1.976,2.397,3.318,3.16
		c1.343,0.764,2.909,1.146,4.7,1.146c3.634,0,6.873-1.186,9.717-3.555l0.948,0.711l-1.738,4.424
		c-1.316,1.001-2.896,1.805-4.739,2.409c-1.845,0.604-4.267,0.908-7.269,0.908c-2.581,0-5.03-0.355-7.347-1.066
		c-2.318-0.711-4.358-1.882-6.122-3.516c-1.766-1.632-3.16-3.699-4.188-6.201c-1.027-2.501-1.54-5.49-1.54-8.967
		c0-3.423,0.46-6.398,1.382-8.927c0.921-2.527,2.198-4.634,3.832-6.319c1.632-1.686,3.567-2.949,5.807-3.792
		c2.237-0.843,4.673-1.265,7.307-1.265c5.215,0,9.204,1.528,11.969,4.582c2.766,3.056,4.147,7.374,4.147,12.956v1.659
		c0,0.474-0.027,0.79-0.079,0.948h-22.673C158.425,569.781,158.635,571.757,159.057,573.6z M169.13,554.64
		c-0.869-2.37-2.331-3.556-4.385-3.556c-1.159,0-2.133,0.396-2.923,1.186s-1.422,1.805-1.896,3.041
		c-0.474,1.238-0.829,2.635-1.066,4.188c-0.237,1.554-0.383,3.095-0.435,4.621h12.166C170.485,560.17,169.999,557.01,169.13,554.64z
		"/>
	<path fill="#BE1E2D" d="M199.032,554.481c1.474-2.212,3.199-3.923,5.174-5.135c1.976-1.211,4.227-1.817,6.755-1.817
		c3.95,0,6.991,1.146,9.125,3.437c2.133,2.291,3.199,5.992,3.199,11.1c0,2.686-0.054,5.056-0.158,7.11
		c-0.106,2.054-0.158,4.107-0.158,6.162c0,1.686,0.04,3.515,0.119,5.49c0.078,1.975,0.17,3.885,0.276,5.728
		c-0.686-0.106-1.555-0.158-2.607-0.158c-1.054,0-2.16,0-3.318,0s-2.265,0-3.317,0c-1.055,0-1.923,0.052-2.607,0.158
		c0.368-2.738,0.605-5.965,0.711-9.678s0.158-7.966,0.158-12.759c0-3.317-0.566-5.753-1.698-7.308
		c-1.133-1.553-2.726-2.33-4.779-2.33c-2.37,0-4.108,1.027-5.214,3.081c-1.106,2.054-1.659,4.898-1.659,8.532v3.16
		c0,3.213,0.039,6.24,0.118,9.085c0.079,2.844,0.249,5.583,0.514,8.216c-0.686-0.106-1.541-0.158-2.567-0.158
		c-1.027,0-2.146,0-3.357,0c-1.213,0-2.318,0-3.318,0c-1.001,0-1.87,0.052-2.607,0.158c0.264-2.633,0.435-5.372,0.514-8.216
		c0.079-2.845,0.119-5.872,0.119-9.085v-3.16c0-3.212-0.04-6.228-0.119-9.046c-0.079-2.816-0.25-5.648-0.514-8.492
		c0.948,0.106,1.883,0.197,2.805,0.276c0.921,0.079,1.856,0.118,2.805,0.118s1.883-0.039,2.805-0.118
		c0.921-0.079,1.908-0.17,2.963-0.276l-0.316,5.925H199.032z"/>
	<path fill="#BE1E2D" d="M252.277,551.084c0,0.686,0.079,1.344,0.237,1.976l-6.952-0.158c-0.105,1.212-0.197,2.607-0.276,4.188
		s-0.132,3.187-0.158,4.818c-0.026,1.634-0.053,3.213-0.079,4.74c-0.026,1.528-0.039,2.818-0.039,3.871
		c0,2.739,0.065,4.951,0.197,6.636c0.131,1.687,0.355,2.977,0.672,3.871c0.315,0.896,0.763,1.501,1.343,1.817
		c0.579,0.315,1.316,0.474,2.212,0.474c1,0,1.738-0.065,2.212-0.197c0.475-0.131,0.948-0.328,1.422-0.593v3.239
		c-1.054,0.474-2.369,0.895-3.949,1.264c-1.58,0.368-3.135,0.553-4.661,0.553c-6.689,0-10.033-4.001-10.033-12.008
		c0-1.526,0.025-3.251,0.079-5.174c0.052-1.922,0.118-3.897,0.197-5.926c0.079-2.026,0.145-4.028,0.197-6.004
		c0.052-1.975,0.079-3.804,0.079-5.49l-5.529,0.079c0.157-0.632,0.236-1.29,0.236-1.976c0-0.632-0.079-1.343-0.236-2.133
		l5.529,0.237c0-1.632-0.027-3.16-0.079-4.582c-0.053-1.422-0.132-3.133-0.236-5.135c1.843-0.737,3.659-1.514,5.45-2.331
		c1.79-0.815,3.581-1.671,5.372-2.567l0.79,0.553c-0.105,0.844-0.197,1.831-0.276,2.963c-0.079,1.133-0.158,2.318-0.236,3.555
		c-0.079,1.238-0.133,2.503-0.158,3.792c-0.027,1.292-0.04,2.516-0.04,3.674l6.952-0.158
		C252.356,549.741,252.277,550.452,252.277,551.084z"/>
	<path fill="#BE1E2D" d="M265.588,548.951c2.554-0.947,5.096-1.422,7.624-1.422c2.105,0,4.041,0.237,5.806,0.711
		c1.765,0.475,3.291,1.225,4.582,2.252c1.29,1.026,2.291,2.357,3.002,3.989c0.711,1.633,1.066,3.608,1.066,5.925
		c0,3.371-0.039,6.492-0.118,9.361c-0.079,2.871-0.118,5.728-0.118,8.572c0,1.264,0.091,2.251,0.276,2.962
		c0.184,0.711,0.46,1.252,0.829,1.62c0.368,0.369,0.855,0.605,1.462,0.711c0.604,0.105,1.304,0.157,2.094,0.157v1.896
		c-1.528,0.632-2.818,1.105-3.871,1.422c-1.055,0.316-2.187,0.474-3.397,0.474c-1.949,0-3.529-0.474-4.74-1.422
		c-1.212-0.947-2.133-2.316-2.765-4.107c-1.212,1.686-2.62,3.029-4.227,4.028c-1.607,1-3.621,1.501-6.043,1.501
		c-2.003,0-3.713-0.264-5.136-0.79c-1.422-0.525-2.595-1.275-3.515-2.251c-0.923-0.974-1.594-2.08-2.015-3.318
		c-0.423-1.236-0.632-2.488-0.632-3.752c0-1.738,0.276-3.239,0.829-4.503c0.553-1.265,1.343-2.343,2.37-3.239
		c1.026-0.895,2.251-1.646,3.673-2.252c1.423-0.604,3.028-1.118,4.819-1.54c2.212-0.526,3.963-0.987,5.254-1.383
		c1.29-0.395,2.251-0.79,2.883-1.185c0.633-0.396,1.04-0.83,1.225-1.304s0.276-1.053,0.276-1.738c0-1.896-0.671-3.516-2.014-4.858
		c-1.344-1.343-3.2-2.015-5.57-2.015c-0.896,0-1.816,0.119-2.765,0.355c-0.948,0.237-1.856,0.567-2.726,0.988
		c-0.869,0.422-1.659,0.882-2.37,1.382c-0.711,0.501-1.251,1.041-1.619,1.62h-0.553l-1.027-4.74
		C260.651,551.27,263.034,549.899,265.588,548.951z M277.202,569.373c0.025-1.186,0.039-2.225,0.039-3.12
		c-1.105,0.632-2.278,1.146-3.516,1.54s-2.37,0.896-3.396,1.501c-1.027,0.606-1.87,1.436-2.528,2.488
		c-0.659,1.055-0.987,2.581-0.987,4.582c0,1.949,0.407,3.437,1.225,4.464c0.815,1.026,1.908,1.54,3.278,1.54
		c1.738,0,3.146-0.657,4.227-1.975c1.079-1.316,1.619-3.265,1.619-5.846C277.162,572.283,277.174,570.558,277.202,569.373z"/>
	<path fill="#BE1E2D" d="M298.887,540.104c-0.106-4.318-0.265-8.69-0.475-13.114c0.685,0.106,1.553,0.197,2.607,0.276
		c1.053,0.079,2.159,0.118,3.318,0.118c1.157,0,2.264-0.039,3.317-0.118c1.053-0.079,1.922-0.17,2.607-0.276
		c-0.211,4.424-0.369,8.796-0.475,13.114c-0.105,4.319-0.157,9.059-0.157,14.22v5.135c0,5.163,0.052,9.902,0.157,14.221
		s0.264,8.61,0.475,12.877c-0.686-0.106-1.555-0.158-2.607-0.158c-1.054,0-2.16,0-3.317,0c-1.159,0-2.266,0-3.318,0
		c-1.055,0-1.923,0.052-2.607,0.158c0.21-4.267,0.368-8.559,0.475-12.877c0.104-4.318,0.158-9.058,0.158-14.221v-5.135
		C299.045,549.162,298.992,544.423,298.887,540.104z"/>
	<path fill="#BE1E2D" d="M356.003,561.671v3.238c0,4.372,0.052,8.256,0.158,11.652c0.105,3.397,0.263,6.729,0.475,9.994
		c-0.896-0.106-1.87-0.158-2.924-0.158s-2.239,0-3.555,0c-1.317,0-2.502,0-3.555,0c-1.055,0-2.028,0.052-2.923,0.158
		c0.209-3.265,0.367-6.597,0.474-9.994c0.104-3.396,0.158-7.28,0.158-11.652v-10.744c0-4.37-0.054-8.255-0.158-11.652
		c-0.106-3.396-0.265-6.806-0.474-10.23c0.895,0.106,1.868,0.197,2.923,0.276c1.053,0.079,2.237,0.119,3.555,0.119
		c1.422,0,3.042-0.065,4.858-0.198c1.817-0.131,4.068-0.197,6.755-0.197c2.001,0,3.713,0.053,5.135,0.158
		c1.422,0.106,2.646,0.265,3.674,0.474c1.026,0.212,1.922,0.488,2.686,0.83c0.763,0.343,1.487,0.75,2.173,1.225
		c1.58,1.159,2.83,2.595,3.752,4.306c0.921,1.712,1.383,3.752,1.383,6.122c0,3.845-1.054,6.979-3.16,9.401
		c-2.106,2.423-5.135,4.135-9.085,5.135c2.528,4.477,5.24,8.94,8.137,13.391c2.896,4.451,5.793,8.861,8.69,13.232
		c-1.212-0.106-2.397-0.158-3.555-0.158c-1.159,0-2.345,0-3.556,0c-1.212,0-2.409,0-3.594,0c-1.186,0-2.384,0.052-3.595,0.158
		l-14.142-24.885H356.003z M367.775,541.604c-0.475-1.369-1.198-2.409-2.173-3.12s-2.239-1.172-3.792-1.383
		c-1.554-0.21-3.41-0.316-5.569-0.316c-0.158,7.163-0.237,14.326-0.237,21.488c0.316,0.053,0.619,0.093,0.909,0.118
		c0.288,0.027,0.565,0.04,0.829,0.04c3.476,0,6.135-0.935,7.979-2.805c1.843-1.869,2.765-4.7,2.765-8.492
		C368.486,544.817,368.249,542.975,367.775,541.604z"/>
	<path fill="#BE1E2D" d="M400.48,573.6c0.421,1.844,1.066,3.437,1.936,4.779s1.976,2.397,3.318,3.16
		c1.343,0.764,2.909,1.146,4.7,1.146c3.634,0,6.873-1.186,9.717-3.555l0.948,0.711l-1.738,4.424
		c-1.316,1.001-2.896,1.805-4.739,2.409c-1.845,0.604-4.267,0.908-7.269,0.908c-2.581,0-5.03-0.355-7.347-1.066
		c-2.318-0.711-4.358-1.882-6.122-3.516c-1.766-1.632-3.16-3.699-4.188-6.201c-1.027-2.501-1.54-5.49-1.54-8.967
		c0-3.423,0.46-6.398,1.382-8.927c0.921-2.527,2.198-4.634,3.832-6.319c1.632-1.686,3.567-2.949,5.807-3.792
		c2.237-0.843,4.673-1.265,7.307-1.265c5.215,0,9.204,1.528,11.969,4.582c2.766,3.056,4.147,7.374,4.147,12.956v1.659
		c0,0.474-0.027,0.79-0.079,0.948h-22.673C399.848,569.781,400.058,571.757,400.48,573.6z M410.553,554.64
		c-0.869-2.37-2.331-3.556-4.385-3.556c-1.159,0-2.133,0.396-2.923,1.186s-1.422,1.805-1.896,3.041
		c-0.474,1.238-0.829,2.635-1.066,4.188c-0.237,1.554-0.383,3.095-0.435,4.621h12.166C411.908,560.17,411.421,557.01,410.553,554.64
		z"/>
	<path fill="#BE1E2D" d="M431.725,579.248c0.5,0.764,1.118,1.449,1.856,2.054c0.736,0.606,1.619,1.094,2.646,1.462
		c1.026,0.369,2.225,0.553,3.595,0.553c1.843,0,3.265-0.474,4.266-1.422c1-0.948,1.501-1.975,1.501-3.081
		c0-1.211-0.448-2.185-1.343-2.923c-0.896-0.737-2.015-1.408-3.357-2.015c-1.344-0.604-2.805-1.225-4.385-1.856
		s-3.042-1.435-4.385-2.409s-2.462-2.199-3.357-3.674c-0.896-1.474-1.343-3.37-1.343-5.688c0-2.212,0.407-4.12,1.225-5.728
		c0.815-1.605,1.882-2.923,3.199-3.949c1.315-1.027,2.805-1.79,4.464-2.291c1.658-0.5,3.304-0.751,4.938-0.751
		c2.212,0,4.173,0.316,5.885,0.948c1.711,0.632,3.463,1.554,5.254,2.765c-0.474,1.055-0.869,2.187-1.185,3.397
		c-0.316,1.212-0.554,2.396-0.711,3.555h-2.213c-0.157-0.632-0.422-1.329-0.79-2.094c-0.368-0.763-0.868-1.487-1.501-2.172
		c-0.632-0.685-1.396-1.251-2.291-1.699c-0.896-0.446-1.975-0.671-3.238-0.671c-1.58,0-2.911,0.422-3.99,1.264
		c-1.08,0.844-1.619,1.949-1.619,3.318c0,1.264,0.461,2.278,1.383,3.041c0.921,0.765,2.066,1.436,3.437,2.015
		c1.369,0.58,2.87,1.159,4.503,1.738c1.632,0.58,3.133,1.33,4.503,2.251c1.369,0.923,2.515,2.121,3.437,3.595
		c0.921,1.476,1.383,3.371,1.383,5.688s-0.423,4.306-1.265,5.964c-0.843,1.659-1.975,3.029-3.396,4.108
		c-1.422,1.08-3.042,1.856-4.858,2.33c-1.817,0.475-3.727,0.711-5.728,0.711c-2.37,0-4.503-0.343-6.399-1.026
		c-1.896-0.684-3.396-1.396-4.503-2.133c0.632-2.528,1.027-5.057,1.185-7.584h1.976
		C430.816,577.682,431.224,578.485,431.725,579.248z"/>
	<path fill="#BE1E2D" d="M462.336,529.201c1.211-1.211,2.687-1.817,4.425-1.817c1.737,0,3.211,0.606,4.424,1.817
		c1.211,1.212,1.816,2.687,1.816,4.424c0,1.738-0.605,3.214-1.816,4.425c-1.213,1.212-2.687,1.816-4.424,1.816
		c-1.738,0-3.214-0.604-4.425-1.816c-1.212-1.211-1.816-2.687-1.816-4.425C460.52,531.888,461.125,530.413,462.336,529.201z
		 M461.349,557.049c-0.079-2.816-0.25-5.648-0.514-8.492c0.737,0.106,1.606,0.197,2.607,0.276c1,0.079,2.105,0.118,3.318,0.118
		c2.475,0,4.449-0.131,5.925-0.395c-0.265,2.844-0.435,5.676-0.514,8.492c-0.079,2.818-0.118,5.834-0.118,9.046v3.16
		c0,3.213,0.039,6.24,0.118,9.085c0.079,2.844,0.249,5.583,0.514,8.216c-0.686-0.106-1.541-0.158-2.567-0.158
		c-1.027,0-2.146,0-3.357,0c-1.213,0-2.318,0-3.318,0c-1.001,0-1.87,0.052-2.607,0.158c0.264-2.633,0.435-5.372,0.514-8.216
		c0.079-2.845,0.119-5.872,0.119-9.085v-3.16C461.468,562.883,461.428,559.867,461.349,557.049z"/>
	<path fill="#BE1E2D" d="M517.004,573.679c0.105,4.318,0.264,8.61,0.475,12.877c-0.686-0.106-1.555-0.158-2.607-0.158
		c-1.054,0-2.16,0-3.318,0c-1.054,0-2.067,0-3.041,0c-0.976,0-1.726,0.052-2.252,0.158c0.053-0.106,0.105-0.447,0.158-1.027
		c0.052-0.579,0.119-1.236,0.197-1.975c0.079-0.737,0.145-1.422,0.198-2.055c0.052-0.632,0.079-1.026,0.079-1.185l-0.158-0.158
		c-1.001,2.37-2.37,4.201-4.108,5.49c-1.737,1.29-4.135,1.936-7.188,1.936c-2.687,0-4.978-0.513-6.873-1.54
		c-1.896-1.027-3.45-2.461-4.661-4.306c-1.212-1.843-2.107-4.002-2.687-6.478c-0.58-2.476-0.868-5.136-0.868-7.979
		s0.395-5.463,1.185-7.86c0.79-2.396,1.869-4.476,3.239-6.241c1.369-1.764,2.988-3.146,4.858-4.147c1.869-1,3.857-1.501,5.964-1.501
		c2.37,0,4.49,0.553,6.36,1.659c1.868,1.106,3.251,2.502,4.147,4.187h0.157c0-4.739-0.053-9.203-0.157-13.39
		c-0.106-4.188-0.265-8.52-0.475-12.996c0.685,0.106,1.553,0.197,2.607,0.276c1.053,0.079,2.159,0.118,3.317,0.118
		s2.265-0.039,3.318-0.118c1.053-0.079,1.922-0.17,2.607-0.276c-0.211,4.424-0.369,8.796-0.475,13.114
		c-0.105,4.319-0.157,9.059-0.157,14.22v5.135C516.847,564.621,516.899,569.36,517.004,573.679z M492.593,575.259
		c0.368,1.844,0.869,3.331,1.501,4.463c0.633,1.134,1.355,1.949,2.173,2.449c0.816,0.501,1.672,0.751,2.567,0.751
		c2.159,0,3.937-1.225,5.333-3.674c1.395-2.449,2.093-6.518,2.093-12.206c0-4.897-0.659-8.465-1.975-10.704
		c-1.317-2.238-3.002-3.357-5.056-3.357c-0.844,0-1.687,0.237-2.528,0.711c-0.843,0.474-1.607,1.304-2.291,2.488
		c-0.685,1.186-1.252,2.779-1.698,4.779c-0.448,2.003-0.672,4.504-0.672,7.506C492.041,571.15,492.225,573.416,492.593,575.259z"/>
	<path fill="#BE1E2D" d="M536.596,573.6c0.421,1.844,1.066,3.437,1.936,4.779s1.976,2.397,3.318,3.16
		c1.343,0.764,2.909,1.146,4.7,1.146c3.634,0,6.873-1.186,9.717-3.555l0.948,0.711l-1.738,4.424
		c-1.316,1.001-2.896,1.805-4.739,2.409c-1.845,0.604-4.267,0.908-7.269,0.908c-2.581,0-5.03-0.355-7.347-1.066
		c-2.318-0.711-4.358-1.882-6.122-3.516c-1.766-1.632-3.16-3.699-4.188-6.201c-1.027-2.501-1.54-5.49-1.54-8.967
		c0-3.423,0.46-6.398,1.382-8.927c0.921-2.527,2.198-4.634,3.832-6.319c1.632-1.686,3.567-2.949,5.807-3.792
		c2.237-0.843,4.673-1.265,7.307-1.265c5.215,0,9.204,1.528,11.969,4.582c2.766,3.056,4.147,7.374,4.147,12.956v1.659
		c0,0.474-0.027,0.79-0.079,0.948h-22.673C535.964,569.781,536.174,571.757,536.596,573.6z M546.669,554.64
		c-0.869-2.37-2.331-3.556-4.385-3.556c-1.159,0-2.133,0.396-2.923,1.186s-1.422,1.805-1.896,3.041
		c-0.474,1.238-0.829,2.635-1.066,4.188c-0.237,1.554-0.383,3.095-0.435,4.621h12.166C548.024,560.17,547.538,557.01,546.669,554.64
		z"/>
	<path fill="#BE1E2D" d="M576.571,554.481c1.474-2.212,3.199-3.923,5.174-5.135c1.976-1.211,4.227-1.817,6.755-1.817
		c3.95,0,6.991,1.146,9.125,3.437c2.133,2.291,3.199,5.992,3.199,11.1c0,2.686-0.054,5.056-0.158,7.11
		c-0.106,2.054-0.158,4.107-0.158,6.162c0,1.686,0.04,3.515,0.119,5.49c0.078,1.975,0.17,3.885,0.276,5.728
		c-0.686-0.106-1.555-0.158-2.607-0.158c-1.054,0-2.16,0-3.318,0s-2.265,0-3.317,0c-1.055,0-1.923,0.052-2.607,0.158
		c0.368-2.738,0.605-5.965,0.711-9.678s0.158-7.966,0.158-12.759c0-3.317-0.566-5.753-1.698-7.308
		c-1.133-1.553-2.726-2.33-4.779-2.33c-2.37,0-4.108,1.027-5.214,3.081c-1.106,2.054-1.659,4.898-1.659,8.532v3.16
		c0,3.213,0.039,6.24,0.118,9.085c0.079,2.844,0.249,5.583,0.514,8.216c-0.686-0.106-1.541-0.158-2.567-0.158
		c-1.027,0-2.146,0-3.357,0c-1.213,0-2.318,0-3.318,0c-1.001,0-1.87,0.052-2.607,0.158c0.264-2.633,0.435-5.372,0.514-8.216
		c0.079-2.845,0.119-5.872,0.119-9.085v-3.16c0-3.212-0.04-6.228-0.119-9.046c-0.079-2.816-0.25-5.648-0.514-8.492
		c0.948,0.106,1.883,0.197,2.805,0.276c0.921,0.079,1.856,0.118,2.805,0.118s1.883-0.039,2.805-0.118
		c0.921-0.079,1.908-0.17,2.963-0.276l-0.316,5.925H576.571z"/>
	<path fill="#BE1E2D" d="M635.543,553.731c-1.237-1.448-3.068-2.173-5.49-2.173c-3.16,0-5.53,1.436-7.11,4.306
		c-1.579,2.871-2.369,6.86-2.369,11.968c0,4.794,0.999,8.467,3.002,11.021c2.001,2.556,4.924,3.832,8.769,3.832
		c1.632,0,3.212-0.382,4.74-1.146c1.526-0.763,2.659-1.619,3.396-2.567l0.948,0.79c-0.369,0.738-0.685,1.501-0.948,2.291
		s-0.526,1.58-0.79,2.37c-1.158,0.896-2.62,1.646-4.384,2.251c-1.766,0.604-3.859,0.908-6.281,0.908
		c-3.845,0-7.084-0.553-9.717-1.658c-2.634-1.106-4.753-2.607-6.359-4.503c-1.607-1.896-2.753-4.042-3.437-6.438
		c-0.685-2.396-1.026-4.806-1.026-7.229c0-2.896,0.486-5.582,1.461-8.059c0.974-2.475,2.37-4.607,4.188-6.398
		c1.816-1.79,4.015-3.2,6.596-4.227c2.58-1.027,5.451-1.541,8.611-1.541c3.002,0,5.542,0.344,7.624,1.027
		c2.079,0.685,4.068,1.58,5.964,2.686c-0.632,1.055-1.225,2.345-1.777,3.871c-0.553,1.528-0.962,2.977-1.225,4.345h-1.896
		C637.61,557.089,636.781,555.18,635.543,553.731z"/>
	<path fill="#BE1E2D" d="M667.975,566.608c0.79-2.08,1.54-4.095,2.251-6.044c0.711-1.948,1.396-3.896,2.055-5.846
		c0.657-1.948,1.329-4.002,2.014-6.162c0.579,0.106,1.119,0.197,1.62,0.276c0.5,0.079,1.014,0.118,1.54,0.118
		s1.053-0.039,1.58-0.118c0.526-0.079,1.106-0.17,1.738-0.276c-0.265,0.685-0.883,2.146-1.856,4.385
		c-0.976,2.238-2.16,5.004-3.556,8.295c-1.396,3.292-2.937,6.939-4.621,10.941c-1.687,4.003-3.385,8.045-5.096,12.126
		c-1.712,4.081-3.371,8.124-4.977,12.127c-1.607,4.002-3.016,7.636-4.227,10.901c-0.58-0.105-1.133-0.197-1.659-0.276
		c-0.527-0.079-1.08-0.118-1.659-0.118c-0.58,0-1.133,0.039-1.659,0.118s-1.08,0.171-1.658,0.276
		c1.737-3.476,3.448-6.912,5.135-10.309c1.685-3.397,3.318-6.834,4.897-10.31c-1.264-3.002-2.673-6.399-4.227-10.191
		s-3.08-7.505-4.581-11.139c-1.501-3.635-2.872-6.952-4.108-9.954c-1.238-3.002-2.173-5.293-2.805-6.873
		c1,0.106,1.987,0.197,2.963,0.276c0.974,0.079,1.961,0.118,2.962,0.118c1,0,1.976-0.039,2.923-0.118
		c0.948-0.079,1.923-0.17,2.924-0.276c1.526,4.161,3.067,8.295,4.621,12.402c1.553,4.108,3.173,8.243,4.858,12.403
		C666.316,570.94,667.185,568.689,667.975,566.608z"/>
	<path fill="#BE1E2D" d="M710.319,542.513c-0.106-3.396-0.265-6.806-0.474-10.23c0.895,0.106,1.868,0.197,2.923,0.276
		c1.053,0.079,2.237,0.119,3.555,0.119c1.843,0,3.753-0.065,5.728-0.198c1.975-0.131,3.91-0.197,5.807-0.197
		c3.738,0,6.662,0.276,8.769,0.83c2.106,0.553,3.765,1.356,4.978,2.409c1.685,1.37,2.923,2.897,3.713,4.582
		c0.79,1.687,1.185,3.713,1.185,6.083c0,3.002-0.501,5.583-1.501,7.742c-1.001,2.16-2.409,3.91-4.227,5.253
		c-1.816,1.344-3.963,2.331-6.438,2.963s-5.188,0.948-8.137,0.948h-4.029c0,3.949,0.04,7.888,0.119,11.811
		c0.079,3.924,0.249,7.809,0.513,11.652c-0.896-0.106-1.87-0.158-2.923-0.158c-1.054,0-2.239,0-3.555,0c-1.317,0-2.502,0-3.555,0
		c-1.055,0-2.028,0.052-2.923,0.158c0.209-3.265,0.367-6.597,0.474-9.994c0.104-3.396,0.158-7.28,0.158-11.652v-10.744
		C710.477,549.795,710.423,545.91,710.319,542.513z M733.347,542.395c-0.448-1.369-1.054-2.461-1.817-3.278
		c-0.764-0.816-1.658-1.408-2.686-1.777c-1.027-0.368-2.094-0.554-3.199-0.554h-1.817c-0.264,0-0.527,0-0.79,0
		c-0.264,0-0.501,0.027-0.711,0.079c-0.053,3.792-0.093,7.519-0.118,11.179c-0.027,3.661-0.04,7.335-0.04,11.021
		c1.316,0,2.673-0.131,4.068-0.395s2.673-0.803,3.832-1.62c1.158-0.815,2.105-1.987,2.844-3.516
		c0.737-1.526,1.106-3.555,1.106-6.083C734.019,545.449,733.794,543.765,733.347,542.395z"/>
	<path fill="#BE1E2D" d="M763.565,558.353c1.368-3.634,3.027-6.307,4.977-8.019c1.948-1.711,4.266-2.567,6.952-2.567
		c0.263,0,0.486,0.014,0.672,0.039c0.184,0.027,0.381,0.04,0.592,0.04c-0.158,0.79-0.276,1.633-0.355,2.527
		c-0.079,0.896-0.118,1.949-0.118,3.16v2.528c0,0.422,0,0.869,0,1.343c0,0.475,0.025,0.922,0.079,1.343l-0.711,0.633
		c-0.527-0.316-1.12-0.579-1.777-0.79c-0.659-0.21-1.41-0.316-2.252-0.316c-2.37,0-4.24,0.777-5.609,2.33
		c-1.37,1.555-2.054,3.385-2.054,5.491v3.16c0,3.213,0.04,6.24,0.118,9.085c0.079,2.844,0.25,5.583,0.514,8.216
		c-0.684-0.106-1.534-0.158-2.554-0.158s-2.132,0-3.334,0s-2.301,0-3.295,0c-0.993,0-1.856,0.052-2.588,0.158
		c0.229-2.633,0.38-5.372,0.449-8.216c0.069-2.845,0.104-5.872,0.104-9.085v-3.16c0-3.212-0.034-6.228-0.104-9.046
		c-0.069-2.816-0.22-5.648-0.449-8.492c0.889,0.106,1.79,0.197,2.704,0.276c0.915,0.079,1.817,0.118,2.706,0.118
		s1.79-0.039,2.706-0.118c0.914-0.079,1.816-0.17,2.707-0.276l-0.237,9.638L763.565,558.353z"/>
	<path fill="#BE1E2D" d="M783.038,559.38c1.079-2.634,2.515-4.832,4.306-6.597c1.79-1.765,3.857-3.081,6.201-3.95
		c2.343-0.869,4.753-1.304,7.229-1.304c6.162,0,10.928,1.738,14.299,5.214c3.37,3.477,5.057,8.19,5.057,14.142
		c0,3.213-0.475,6.109-1.423,8.689c-0.947,2.581-2.278,4.779-3.989,6.597c-1.712,1.817-3.752,3.174-6.122,4.068
		c-2.37,0.896-4.978,1.343-7.821,1.343c-2.37,0-4.7-0.315-6.991-0.947s-4.358-1.699-6.202-3.2s-3.331-3.462-4.463-5.885
		c-1.134-2.422-1.698-5.398-1.698-8.928C781.418,565.095,781.958,562.014,783.038,559.38z M806.698,554.916
		c-1.159-2.554-3.081-3.832-5.767-3.832c-2.423,0-4.333,1.423-5.728,4.267c-1.396,2.844-2.094,7.295-2.094,13.351
		c0,2.212,0.131,4.267,0.396,6.162c0.263,1.896,0.697,3.543,1.303,4.938c0.605,1.396,1.396,2.488,2.37,3.278
		s2.199,1.186,3.674,1.186c5.056,0,7.584-6.188,7.584-18.565C808.436,561.065,807.856,557.471,806.698,554.916z"/>
	<path fill="#BE1E2D" d="M853.782,551.559c1.316,0.948,2.356,2.146,3.121,3.595c0.763,1.449,1.146,3.173,1.146,5.174
		c0,1.949-0.369,3.727-1.106,5.333c-0.738,1.607-1.777,2.989-3.12,4.147c-1.344,1.159-2.95,2.054-4.819,2.686
		c-1.87,0.632-3.964,0.948-6.28,0.948c-0.58,0-1.146-0.013-1.699-0.039c-0.553-0.026-1.172-0.04-1.856-0.04
		c-0.632,0-1.172,0.29-1.619,0.869c-0.448,0.58-0.672,1.238-0.672,1.975c0,1.265,0.486,2.266,1.462,3.002
		c0.974,0.738,2.515,1.134,4.621,1.186l5.847,0.079c4.424,0.053,7.675,0.883,9.756,2.488c2.08,1.607,3.121,4.174,3.121,7.702
		c0,3.16-0.646,5.807-1.936,7.939c-1.291,2.134-2.95,3.871-4.978,5.215c-2.027,1.343-4.279,2.303-6.754,2.883
		c-2.477,0.579-4.872,0.869-7.189,0.869c-4.951,0-8.809-0.962-11.573-2.884c-2.765-1.923-4.147-4.463-4.147-7.623
		c0-2.528,0.697-4.569,2.094-6.122c1.395-1.555,3.278-2.779,5.648-3.674v-0.158c-1.37-0.474-2.463-1.197-3.278-2.173
		c-0.817-0.974-1.225-2.198-1.225-3.673c0-1.738,0.671-3.423,2.014-5.057c1.344-1.632,3.121-2.737,5.333-3.317v-0.158
		c-3.213-0.79-5.688-2.212-7.426-4.266c-1.791-2.106-2.687-4.846-2.687-8.217c0-2.001,0.407-3.792,1.225-5.372
		c0.816-1.579,1.962-2.909,3.437-3.989c1.474-1.078,3.239-1.908,5.293-2.488c2.054-0.579,4.318-0.869,6.794-0.869
		c0.948,0,1.922,0.04,2.923,0.119c1,0.078,1.976,0.146,2.924,0.197c0.684,0.053,1.382,0.093,2.093,0.118
		c0.711,0.027,1.487,0.04,2.331,0.04c1.315,0,2.686-0.013,4.107-0.04c1.422-0.025,2.845-0.039,4.267-0.039
		c-0.054,0.315-0.093,0.632-0.119,0.947c-0.026,0.316-0.039,0.633-0.039,0.948c0,0.316,0.013,0.632,0.039,0.948
		c0.026,0.315,0.065,0.632,0.119,0.948l-6.952-0.316L853.782,551.559z M851.728,591.177c-0.527-0.975-1.277-1.726-2.252-2.251
		c-0.975-0.527-2.172-0.883-3.594-1.066c-1.423-0.186-3.029-0.277-4.819-0.277c-2.739,0-4.635,0.264-5.688,0.79
		c-0.632,0.316-1.303,1.079-2.014,2.291c-0.712,1.211-1.067,2.738-1.067,4.582c0,1.527,0.277,2.856,0.83,3.99
		c0.553,1.132,1.304,2.066,2.251,2.804c0.948,0.737,2.041,1.304,3.279,1.699c1.236,0.395,2.567,0.592,3.989,0.592
		c1.526,0,2.896-0.25,4.107-0.75c1.211-0.501,2.252-1.186,3.121-2.054c0.869-0.869,1.526-1.87,1.975-3.002
		c0.447-1.134,0.672-2.331,0.672-3.595C852.518,593.401,852.253,592.151,851.728,591.177z M836.639,561.196
		c0,1.738,0.157,3.199,0.474,4.385c0.316,1.185,0.724,2.146,1.225,2.884c0.5,0.737,1.053,1.264,1.659,1.58
		c0.604,0.315,1.225,0.474,1.856,0.474c1.738,0,3.027-0.763,3.871-2.291c0.842-1.527,1.264-4.108,1.264-7.742
		c0-3.581-0.474-6.096-1.422-7.544s-2.133-2.173-3.555-2.173C838.428,550.769,836.639,554.244,836.639,561.196z"/>
	<path fill="#BE1E2D" d="M877.719,558.353c1.368-3.634,3.027-6.307,4.977-8.019c1.948-1.711,4.266-2.567,6.952-2.567
		c0.263,0,0.486,0.014,0.672,0.039c0.184,0.027,0.381,0.04,0.592,0.04c-0.158,0.79-0.276,1.633-0.355,2.527
		c-0.079,0.896-0.118,1.949-0.118,3.16v2.528c0,0.422,0,0.869,0,1.343c0,0.475,0.025,0.922,0.079,1.343l-0.711,0.633
		c-0.527-0.316-1.12-0.579-1.777-0.79c-0.659-0.21-1.41-0.316-2.252-0.316c-2.37,0-4.24,0.777-5.609,2.33
		c-1.37,1.555-2.054,3.385-2.054,5.491v3.16c0,3.213,0.04,6.24,0.118,9.085c0.079,2.844,0.25,5.583,0.514,8.216
		c-0.684-0.106-1.534-0.158-2.554-0.158s-2.132,0-3.334,0s-2.301,0-3.295,0c-0.993,0-1.856,0.052-2.588,0.158
		c0.229-2.633,0.38-5.372,0.449-8.216c0.069-2.845,0.104-5.872,0.104-9.085v-3.16c0-3.212-0.034-6.228-0.104-9.046
		c-0.069-2.816-0.22-5.648-0.449-8.492c0.889,0.106,1.79,0.197,2.704,0.276c0.915,0.079,1.817,0.118,2.706,0.118
		s1.79-0.039,2.706-0.118c0.914-0.079,1.816-0.17,2.707-0.276l-0.237,9.638L877.719,558.353z"/>
	<path fill="#BE1E2D" d="M903.75,548.951c2.554-0.947,5.096-1.422,7.624-1.422c2.105,0,4.041,0.237,5.806,0.711
		c1.765,0.475,3.291,1.225,4.582,2.252c1.29,1.026,2.291,2.357,3.002,3.989c0.711,1.633,1.066,3.608,1.066,5.925
		c0,3.371-0.039,6.492-0.118,9.361c-0.079,2.871-0.118,5.728-0.118,8.572c0,1.264,0.091,2.251,0.276,2.962
		c0.184,0.711,0.46,1.252,0.829,1.62c0.368,0.369,0.855,0.605,1.462,0.711c0.604,0.105,1.304,0.157,2.094,0.157v1.896
		c-1.528,0.632-2.818,1.105-3.871,1.422c-1.055,0.316-2.187,0.474-3.397,0.474c-1.949,0-3.529-0.474-4.74-1.422
		c-1.212-0.947-2.133-2.316-2.765-4.107c-1.212,1.686-2.62,3.029-4.227,4.028c-1.607,1-3.621,1.501-6.043,1.501
		c-2.003,0-3.713-0.264-5.136-0.79c-1.422-0.525-2.595-1.275-3.515-2.251c-0.923-0.974-1.594-2.08-2.015-3.318
		c-0.423-1.236-0.632-2.488-0.632-3.752c0-1.738,0.276-3.239,0.829-4.503c0.553-1.265,1.343-2.343,2.37-3.239
		c1.026-0.895,2.251-1.646,3.673-2.252c1.423-0.604,3.028-1.118,4.819-1.54c2.212-0.526,3.963-0.987,5.254-1.383
		c1.29-0.395,2.251-0.79,2.883-1.185c0.633-0.396,1.04-0.83,1.225-1.304s0.276-1.053,0.276-1.738c0-1.896-0.671-3.516-2.014-4.858
		c-1.344-1.343-3.2-2.015-5.57-2.015c-0.896,0-1.816,0.119-2.765,0.355c-0.948,0.237-1.856,0.567-2.726,0.988
		c-0.869,0.422-1.659,0.882-2.37,1.382c-0.711,0.501-1.251,1.041-1.619,1.62h-0.553l-1.027-4.74
		C898.812,551.27,901.195,549.899,903.75,548.951z M915.363,569.373c0.025-1.186,0.039-2.225,0.039-3.12
		c-1.105,0.632-2.278,1.146-3.516,1.54s-2.37,0.896-3.396,1.501c-1.027,0.606-1.87,1.436-2.528,2.488
		c-0.659,1.055-0.987,2.581-0.987,4.582c0,1.949,0.407,3.437,1.225,4.464c0.815,1.026,1.908,1.54,3.278,1.54
		c1.738,0,3.146-0.657,4.227-1.975c1.079-1.316,1.619-3.265,1.619-5.846C915.323,572.283,915.335,570.558,915.363,569.373z"/>
	<path fill="#BE1E2D" d="M946.686,554.481c1.474-2.212,3.199-3.923,5.175-5.135c1.975-1.211,4.227-1.817,6.754-1.817
		c2.37,0,4.411,0.646,6.123,1.936c1.711,1.291,3.041,3.147,3.989,5.569c1.58-2.422,3.423-4.278,5.53-5.569
		c2.105-1.29,4.345-1.936,6.715-1.936c3.95,0,6.991,1.146,9.124,3.437c2.134,2.291,3.2,5.992,3.2,11.1
		c0,2.686-0.054,5.056-0.158,7.11c-0.106,2.054-0.158,4.107-0.158,6.162c0,1.686,0.04,3.515,0.118,5.49
		c0.079,1.975,0.171,3.885,0.277,5.728c-0.686-0.106-1.555-0.158-2.607-0.158c-1.054,0-2.16,0-3.318,0c-1.159,0-2.265,0-3.317,0
		c-1.055,0-1.924,0.052-2.607,0.158c0.368-2.738,0.605-5.965,0.711-9.678s0.158-7.966,0.158-12.759c0-3.317-0.553-5.753-1.659-7.308
		c-1.105-1.553-2.66-2.33-4.661-2.33c-1.264,0-2.305,0.29-3.12,0.869c-0.817,0.58-1.462,1.33-1.936,2.251
		c-0.474,0.923-0.79,1.91-0.948,2.963c-0.158,1.054-0.236,2.054-0.236,3.002v5.688c0,3.213,0.039,6.24,0.118,9.085
		c0.079,2.844,0.249,5.583,0.514,8.216c-0.686-0.106-1.541-0.158-2.567-0.158c-1.027,0-2.146,0-3.357,0c-1.213,0-2.318,0-3.318,0
		c-1.001,0-1.87,0.052-2.607,0.158c0.264-2.633,0.435-5.372,0.514-8.216c0.079-2.845,0.118-5.872,0.118-9.085v-4.819
		c0-3.16-0.395-5.609-1.185-7.347c-0.79-1.738-2.291-2.607-4.503-2.607c-2.37,0-4.108,1.027-5.214,3.081
		c-1.106,2.054-1.659,4.898-1.659,8.532v3.16c0,3.213,0.039,6.24,0.118,9.085c0.079,2.844,0.25,5.583,0.514,8.216
		c-0.685-0.106-1.54-0.158-2.567-0.158s-2.146,0-3.357,0c-1.212,0-2.318,0-3.318,0c-1.001,0-1.87,0.052-2.606,0.158
		c0.263-2.633,0.435-5.372,0.514-8.216c0.079-2.845,0.118-5.872,0.118-9.085v-3.16c0-3.212-0.039-6.228-0.118-9.046
		c-0.079-2.816-0.251-5.648-0.514-8.492c0.948,0.106,1.882,0.197,2.805,0.276c0.921,0.079,1.856,0.118,2.804,0.118
		c0.948,0,1.883-0.039,2.805-0.118c0.921-0.079,1.908-0.17,2.963-0.276l-0.316,5.925H946.686z"/>
</g>
<g id="ADA">
	<path fill="#2F3485" d="M341.606,631.595h4.08l17.88,42.48h-4.44l-4.62-11.28h-22.5l-4.8,11.28h-4.14L341.606,631.595z
		 M343.467,635.915l-9.9,23.28h19.5L343.467,635.915z"/>
	<path fill="#2F3485" d="M369.146,631.595h13.14c3.68,0,6.8,0.45,9.36,1.351c2.56,0.899,4.689,2.05,6.39,3.45
		c1.7,1.4,3.04,2.95,4.02,4.649c0.98,1.701,1.7,3.33,2.16,4.891c0.459,1.56,0.75,2.97,0.87,4.229c0.12,1.26,0.18,2.15,0.18,2.67
		c0,0.521-0.06,1.41-0.18,2.67c-0.12,1.261-0.411,2.67-0.87,4.23c-0.46,1.56-1.18,3.19-2.16,4.89c-0.98,1.701-2.32,3.251-4.02,4.65
		c-1.701,1.4-3.831,2.55-6.39,3.45c-2.56,0.899-5.68,1.35-9.36,1.35h-13.14V631.595z M373.107,670.476h8.16
		c2.799,0,5.42-0.35,7.86-1.051c2.439-0.699,4.56-1.77,6.36-3.21c1.8-1.439,3.219-3.27,4.26-5.489c1.04-2.221,1.56-4.85,1.56-7.891
		c0-3.039-0.52-5.67-1.56-7.89c-1.041-2.22-2.46-4.05-4.26-5.49c-1.8-1.439-3.921-2.51-6.36-3.21c-2.44-0.699-5.061-1.05-7.86-1.05
		h-8.16V670.476z"/>
	<path fill="#2F3485" d="M427.166,631.595h4.08l17.88,42.48h-4.44l-4.62-11.28h-22.5l-4.8,11.28h-4.14L427.166,631.595z
		 M429.026,635.915l-9.9,23.28h19.5L429.026,635.915z"/>
	<path fill="#2F3485" d="M483.866,631.595h4.08l17.88,42.48h-4.44l-4.62-11.28h-22.5l-4.8,11.28h-4.14L483.866,631.595z
		 M485.726,635.915l-9.9,23.28h19.5L485.726,635.915z"/>
	<path fill="#2F3485" d="M534.146,669.995c-1.36,1.641-2.901,2.85-4.62,3.63c-1.72,0.78-3.58,1.17-5.58,1.17
		c-2.121,0-4.08-0.359-5.88-1.08c-1.8-0.72-3.34-1.729-4.62-3.029c-1.28-1.3-2.28-2.84-3-4.62c-0.72-1.779-1.08-3.729-1.08-5.851
		c0-2.119,0.36-4.069,1.08-5.85c0.72-1.779,1.72-3.319,3-4.62c1.28-1.299,2.82-2.31,4.62-3.03c1.8-0.72,3.759-1.08,5.88-1.08
		c2.04,0,3.93,0.421,5.67,1.261c1.74,0.84,3.29,2.02,4.65,3.54l-2.88,2.159c-1.041-1.159-2.18-2.069-3.42-2.729
		c-1.24-0.66-2.58-0.99-4.02-0.99c-1.68,0-3.201,0.3-4.56,0.9c-1.36,0.6-2.52,1.41-3.48,2.43c-0.96,1.021-1.69,2.22-2.19,3.601
		c-0.5,1.38-0.75,2.85-0.75,4.409c0,1.561,0.25,3.03,0.75,4.41c0.5,1.38,1.23,2.58,2.19,3.601c0.96,1.02,2.12,1.83,3.48,2.43
		c1.359,0.6,2.88,0.9,4.56,0.9c1.52,0,2.91-0.351,4.17-1.051c1.26-0.699,2.349-1.629,3.27-2.79L534.146,669.995z"/>
	<path fill="#2F3485" d="M563.004,669.995c-1.359,1.641-2.9,2.85-4.619,3.63c-1.721,0.78-3.581,1.17-5.58,1.17
		c-2.121,0-4.08-0.359-5.881-1.08c-1.799-0.72-3.34-1.729-4.619-3.029c-1.281-1.3-2.28-2.84-3-4.62
		c-0.72-1.779-1.08-3.729-1.08-5.851c0-2.119,0.36-4.069,1.08-5.85c0.72-1.779,1.719-3.319,3-4.62c1.279-1.299,2.82-2.31,4.619-3.03
		c1.801-0.72,3.76-1.08,5.881-1.08c2.04,0,3.93,0.421,5.67,1.261s3.289,2.02,4.649,3.54l-2.88,2.159
		c-1.04-1.159-2.181-2.069-3.42-2.729c-1.24-0.66-2.58-0.99-4.02-0.99c-1.68,0-3.201,0.3-4.561,0.9c-1.359,0.6-2.52,1.41-3.48,2.43
		c-0.959,1.021-1.689,2.22-2.189,3.601c-0.5,1.38-0.75,2.85-0.75,4.409c0,1.561,0.25,3.03,0.75,4.41s1.23,2.58,2.189,3.601
		c0.961,1.02,2.121,1.83,3.48,2.43s2.881,0.9,4.561,0.9c1.52,0,2.91-0.351,4.17-1.051c1.26-0.699,2.35-1.629,3.27-2.79
		L563.004,669.995z"/>
	<path fill="#2F3485" d="M568.644,654.155c0-0.52-0.021-1.149-0.06-1.89c-0.041-0.74-0.07-1.49-0.09-2.25
		c-0.021-0.76-0.051-1.471-0.091-2.131c-0.04-0.659-0.06-1.17-0.06-1.529h3.6c0.04,1.04,0.069,2.04,0.091,3
		c0.02,0.96,0.069,1.58,0.149,1.859c0.92-1.64,2.101-2.979,3.54-4.02c1.44-1.04,3.2-1.561,5.28-1.561c0.359,0,0.71,0.03,1.05,0.091
		c0.34,0.06,0.69,0.13,1.05,0.21l-0.42,3.54c-0.479-0.16-0.94-0.24-1.38-0.24c-1.56,0-2.91,0.25-4.05,0.75
		c-1.141,0.5-2.08,1.19-2.82,2.07s-1.29,1.91-1.649,3.09c-0.36,1.18-0.54,2.45-0.54,3.81v15.12h-3.601V654.155z"/>
	<path fill="#2F3485" d="M612.025,668.855c-1.401,2.12-3.131,3.64-5.19,4.56c-2.061,0.92-4.33,1.38-6.81,1.38
		c-2.121,0-4.041-0.359-5.761-1.08c-1.72-0.72-3.2-1.729-4.439-3.029c-1.24-1.3-2.19-2.84-2.85-4.62
		c-0.66-1.779-0.99-3.75-0.99-5.91c0-2.079,0.339-3.999,1.02-5.76c0.68-1.76,1.64-3.29,2.88-4.59c1.239-1.3,2.7-2.32,4.38-3.061
		c1.681-0.739,3.54-1.11,5.58-1.11c2.12,0,3.99,0.371,5.61,1.11c1.62,0.74,2.979,1.721,4.08,2.94c1.1,1.221,1.93,2.609,2.49,4.17
		c0.56,1.56,0.84,3.141,0.84,4.739v2.521h-23.28c0,0.761,0.15,1.73,0.45,2.91s0.85,2.33,1.65,3.45c0.799,1.12,1.869,2.08,3.21,2.88
		c1.339,0.801,3.069,1.2,5.189,1.2c1.84,0,3.62-0.44,5.34-1.32s3.04-2.079,3.96-3.601L612.025,668.855z M609.264,657.875
		c0-1.239-0.25-2.399-0.75-3.479s-1.18-2.03-2.039-2.851c-0.861-0.819-1.881-1.47-3.061-1.95c-1.181-0.479-2.43-0.72-3.75-0.72
		c-1.96,0-3.591,0.4-4.89,1.2c-1.301,0.801-2.331,1.721-3.09,2.76c-0.761,1.041-1.301,2.051-1.62,3.03
		c-0.321,0.98-0.48,1.65-0.48,2.01H609.264z"/>
	<path fill="#2F3485" d="M645.144,669.215h-0.12c-0.561,0.96-1.26,1.791-2.1,2.49c-0.84,0.7-1.751,1.28-2.73,1.74
		c-0.98,0.46-2.01,0.8-3.09,1.02s-2.141,0.33-3.18,0.33c-2.121,0-4.08-0.359-5.88-1.08c-1.801-0.72-3.341-1.729-4.62-3.029
		c-1.281-1.3-2.28-2.84-3-4.62c-0.721-1.779-1.08-3.729-1.08-5.851c0-2.119,0.359-4.069,1.08-5.85c0.72-1.779,1.719-3.319,3-4.62
		c1.279-1.299,2.819-2.31,4.62-3.03c1.8-0.72,3.759-1.08,5.88-1.08c1.039,0,2.1,0.111,3.18,0.33c1.08,0.221,2.109,0.561,3.09,1.021
		c0.979,0.46,1.891,1.04,2.73,1.74s1.539,1.529,2.1,2.489h0.12v-22.5h3.6v45.36h-3.6V669.215z M645.504,660.215
		c0-1.56-0.301-3.029-0.9-4.409c-0.6-1.381-1.42-2.58-2.46-3.601c-1.041-1.02-2.261-1.83-3.66-2.43c-1.4-0.601-2.92-0.9-4.56-0.9
		c-1.681,0-3.201,0.3-4.561,0.9c-1.36,0.6-2.52,1.41-3.479,2.43c-0.96,1.021-1.69,2.22-2.19,3.601c-0.5,1.38-0.75,2.85-0.75,4.409
		c0,1.561,0.25,3.03,0.75,4.41s1.23,2.58,2.19,3.601c0.96,1.02,2.119,1.83,3.479,2.43c1.359,0.6,2.88,0.9,4.561,0.9
		c1.64,0,3.159-0.301,4.56-0.9c1.399-0.6,2.619-1.41,3.66-2.43c1.04-1.021,1.86-2.221,2.46-3.601S645.504,661.775,645.504,660.215z"
		/>
	<path fill="#2F3485" d="M657.324,635.375c0-0.759,0.26-1.399,0.78-1.92c0.52-0.52,1.159-0.78,1.92-0.78
		c0.759,0,1.399,0.261,1.92,0.78c0.52,0.521,0.78,1.161,0.78,1.92c0,0.761-0.261,1.4-0.78,1.92c-0.521,0.521-1.161,0.78-1.92,0.78
		c-0.761,0-1.4-0.26-1.92-0.78C657.583,636.775,657.324,636.136,657.324,635.375z M658.224,646.355h3.6v27.72h-3.6V646.355z"/>
	<path fill="#2F3485" d="M685.583,649.595h-7.92v18.061c0,1.24,0.339,2.2,1.02,2.88c0.68,0.681,1.62,1.021,2.82,1.021
		c0.68,0,1.369-0.091,2.069-0.271s1.37-0.409,2.011-0.69l0.3,3.24c-0.681,0.24-1.461,0.46-2.34,0.66c-0.881,0.2-1.66,0.3-2.34,0.3
		c-1.281,0-2.381-0.19-3.301-0.569c-0.92-0.38-1.66-0.89-2.22-1.53c-0.561-0.64-0.971-1.39-1.229-2.25
		c-0.261-0.859-0.391-1.79-0.391-2.79v-18.061h-6v-3.239h6v-7.98h3.601v7.98h7.92V649.595z"/>
	<path fill="#2F3485" d="M716.483,668.855c-1.401,2.12-3.131,3.64-5.19,4.56c-2.061,0.92-4.33,1.38-6.81,1.38
		c-2.121,0-4.041-0.359-5.761-1.08c-1.72-0.72-3.2-1.729-4.439-3.029c-1.24-1.3-2.19-2.84-2.85-4.62
		c-0.66-1.779-0.99-3.75-0.99-5.91c0-2.079,0.339-3.999,1.02-5.76c0.68-1.76,1.64-3.29,2.88-4.59c1.239-1.3,2.7-2.32,4.38-3.061
		c1.681-0.739,3.54-1.11,5.58-1.11c2.12,0,3.99,0.371,5.61,1.11c1.62,0.74,2.979,1.721,4.08,2.94c1.1,1.221,1.93,2.609,2.49,4.17
		c0.56,1.56,0.84,3.141,0.84,4.739v2.521h-23.28c0,0.761,0.15,1.73,0.45,2.91s0.85,2.33,1.65,3.45c0.799,1.12,1.869,2.08,3.21,2.88
		c1.339,0.801,3.069,1.2,5.189,1.2c1.84,0,3.62-0.44,5.34-1.32s3.04-2.079,3.96-3.601L716.483,668.855z M713.722,657.875
		c0-1.239-0.25-2.399-0.75-3.479s-1.18-2.03-2.039-2.851c-0.861-0.819-1.881-1.47-3.061-1.95c-1.181-0.479-2.43-0.72-3.75-0.72
		c-1.96,0-3.591,0.4-4.89,1.2c-1.301,0.801-2.331,1.721-3.09,2.76c-0.761,1.041-1.301,2.051-1.62,3.03
		c-0.321,0.98-0.48,1.65-0.48,2.01H713.722z"/>
	<path fill="#2F3485" d="M749.602,669.215h-0.12c-0.561,0.96-1.26,1.791-2.1,2.49c-0.84,0.7-1.751,1.28-2.73,1.74
		c-0.98,0.46-2.01,0.8-3.09,1.02s-2.141,0.33-3.18,0.33c-2.121,0-4.08-0.359-5.88-1.08c-1.801-0.72-3.341-1.729-4.62-3.029
		c-1.281-1.3-2.28-2.84-3-4.62c-0.721-1.779-1.08-3.729-1.08-5.851c0-2.119,0.359-4.069,1.08-5.85c0.72-1.779,1.719-3.319,3-4.62
		c1.279-1.299,2.819-2.31,4.62-3.03c1.8-0.72,3.759-1.08,5.88-1.08c1.039,0,2.1,0.111,3.18,0.33c1.08,0.221,2.109,0.561,3.09,1.021
		c0.979,0.46,1.891,1.04,2.73,1.74s1.539,1.529,2.1,2.489h0.12v-22.5h3.6v45.36h-3.6V669.215z M749.962,660.215
		c0-1.56-0.301-3.029-0.9-4.409c-0.6-1.381-1.42-2.58-2.46-3.601c-1.041-1.02-2.261-1.83-3.66-2.43c-1.4-0.601-2.92-0.9-4.56-0.9
		c-1.681,0-3.201,0.3-4.561,0.9c-1.36,0.6-2.52,1.41-3.479,2.43c-0.96,1.021-1.69,2.22-2.19,3.601c-0.5,1.38-0.75,2.85-0.75,4.409
		c0,1.561,0.25,3.03,0.75,4.41s1.23,2.58,2.19,3.601c0.96,1.02,2.119,1.83,3.479,2.43c1.359,0.6,2.88,0.9,4.561,0.9
		c1.64,0,3.159-0.301,4.56-0.9c1.399-0.6,2.619-1.41,3.66-2.43c1.04-1.021,1.86-2.221,2.46-3.601S749.962,661.775,749.962,660.215z"
		/>
</g>
<g id="Logo">
	
		<linearGradient id="Swoosh_1_" gradientUnits="userSpaceOnUse" x1="539.9941" y1="212.8398" x2="539.9941" y2="696.6367" gradientTransform="matrix(1 0 0 -1 0 718.9824)">
		<stop  offset="0" style="stop-color:#6D4C39"/>
		<stop  offset="1" style="stop-color:#8C7167"/>
	</linearGradient>
	<path id="Swoosh" fill="url(#Swoosh_1_)" d="M540.002,27.137c-282.292,0-511.936,122.103-511.936,272.191
		c0,75.142,61.905,148.136,170.011,200.738c0.015-0.029,0.044-0.043,0.073-0.06C106.641,451.99,79.072,374.294,79.072,305.839
		c0-134.715,198.15-236.31,460.93-236.31c262.764,0,460.915,101.595,460.915,236.31c0,68.396-29.033,146.283-120.645,194.286
		c0.189,0.162,0.396,0.308,0.57,0.469c108.766-52.632,171.08-125.875,171.08-201.266C1051.924,149.239,822.28,27.137,540.002,27.137
		z"/>
	<g id="PCHC">
		
			<linearGradient id="SVGID_1_" gradientUnits="userSpaceOnUse" x1="237.5479" y1="324.21" x2="237.5477" y2="517.1846" gradientTransform="matrix(1 0 0 -1 0 718.9824)">
			<stop  offset="0" style="stop-color:#212058"/>
			<stop  offset="0.0693" style="stop-color:#24235F"/>
			<stop  offset="0.2522" style="stop-color:#2A2B6F"/>
			<stop  offset="0.437" style="stop-color:#2D2F7B"/>
			<stop  offset="0.6229" style="stop-color:#2F3282"/>
			<stop  offset="0.8118" style="stop-color:#2F3384"/>
		</linearGradient>
		<path fill="url(#SVGID_1_)" d="M285.294,213.318c-4.307-3.749-10.21-6.605-17.695-8.568c-7.485-1.971-17.886-2.952-31.172-2.952
			c-6.753,0-13.623,0.234-20.654,0.703c-7.017,0.469-13.813,0.703-20.361,0.703c-4.688,0-8.892-0.146-12.642-0.425
			c-3.75-0.279-7.207-0.601-10.386-0.981c0.747,12.173,1.304,24.295,1.685,36.372c0.366,12.085,0.557,25.898,0.557,41.434v38.207
			c0,15.541-0.19,29.355-0.557,41.426c-0.381,12.069-0.938,23.92-1.685,35.536c3.179-0.381,6.636-0.569,10.386-0.569
			s7.954,0,12.642,0s8.892,0,12.642,0s7.207,0.188,10.4,0.569c-0.952-13.666-1.553-27.479-1.831-41.438
			c-0.278-13.946-0.425-27.936-0.425-41.997h14.326c10.488,0,20.127-1.114,28.931-3.358c8.804-2.249,16.436-5.757,22.896-10.54
			c6.46-4.774,11.47-10.993,15.03-18.677c3.545-7.676,5.332-16.853,5.332-27.524c0-8.431-1.406-15.638-4.219-21.636
			C295.695,223.616,291.286,218.183,285.294,213.318z M254.4,277.354c-2.622,5.435-5.991,9.603-10.107,12.503
			c-4.131,2.9-8.672,4.826-13.623,5.757c-4.966,0.938-9.785,1.406-14.473,1.406c0-13.11,0.044-26.17,0.146-39.185
			c0.088-13.016,0.234-26.266,0.425-39.749c0.732-0.184,1.582-0.278,2.52-0.278s1.875,0,2.812,0h6.46
			c3.926,0,7.72,0.659,11.367,1.97c3.662,1.305,6.841,3.414,9.551,6.314c2.725,2.907,4.878,6.796,6.46,11.66
			c1.597,4.87,2.402,10.854,2.402,17.974C258.341,264.721,257.022,271.928,254.4,277.354z"/>
		
			<linearGradient id="SVGID_2_" gradientUnits="userSpaceOnUse" x1="409.5859" y1="320.562" x2="409.5859" y2="520.8403" gradientTransform="matrix(1 0 0 -1 0 718.9824)">
			<stop  offset="0" style="stop-color:#212058"/>
			<stop  offset="0.0693" style="stop-color:#24235F"/>
			<stop  offset="0.2522" style="stop-color:#2A2B6F"/>
			<stop  offset="0.437" style="stop-color:#2D2F7B"/>
			<stop  offset="0.6229" style="stop-color:#2F3282"/>
			<stop  offset="0.8118" style="stop-color:#2F3384"/>
		</linearGradient>
		<path fill="url(#SVGID_2_)" d="M392.038,236.067c6.182-6.928,13.052-12.084,20.64-15.446c7.588-3.376,15.117-5.062,22.617-5.062
			c10.107,0,18.911,1.927,26.396,5.757c7.484,3.846,14.795,10.254,21.914,19.241h3.926c0.381-4.863,1.084-9.683,2.108-14.465
			c1.025-4.776,2.49-9.5,4.352-14.181c-3.179-1.875-7.062-3.654-11.646-5.339c-4.6-1.685-9.419-3.135-14.473-4.358
			c-5.054-1.208-10.298-2.197-15.732-2.943c-5.435-0.748-10.575-1.129-15.438-1.129c-14.795,0-28.945,1.971-42.422,5.903
			c-13.478,3.926-25.328,10.159-35.523,18.677c-10.21,8.526-18.354,19.57-24.448,33.15c-6.079,13.579-9.126,30.103-9.126,49.569
			c0,13.305,2.345,25.668,7.031,37.079c4.673,11.426,11.455,21.299,20.361,29.635c8.892,8.334,19.746,14.794,32.578,19.379
			c12.817,4.6,27.393,6.887,43.682,6.887c23.027,0,42.129-3.839,57.291-11.515c0.381-3.941,1.128-7.91,2.256-11.938
			c1.128-4.027,2.433-8.013,3.926-11.939l-3.646-2.239c-3.003,3.178-6.504,6.078-10.533,8.7c-4.029,2.621-8.276,4.818-12.773,6.607
			c-4.496,1.771-9.081,3.178-13.77,4.202c-4.688,1.04-9.271,1.554-13.77,1.554c-8.058,0-16.056-1.494-24.01-4.498
			c-7.954-3.002-15.072-7.732-21.343-14.18c-6.284-6.475-11.382-14.795-15.322-25.005c-3.926-10.209-5.889-22.514-5.889-36.939
			c0-14.978,1.919-27.854,5.757-38.62C380.846,251.844,385.856,242.996,392.038,236.067z"/>
		
			<linearGradient id="SVGID_3_" gradientUnits="userSpaceOnUse" x1="618.9868" y1="324.2104" x2="618.9868" y2="517.1851" gradientTransform="matrix(1 0 0 -1 0 718.9824)">
			<stop  offset="0" style="stop-color:#212058"/>
			<stop  offset="0.0693" style="stop-color:#24235F"/>
			<stop  offset="0.2522" style="stop-color:#2A2B6F"/>
			<stop  offset="0.437" style="stop-color:#2D2F7B"/>
			<stop  offset="0.6229" style="stop-color:#2F3282"/>
			<stop  offset="0.8118" style="stop-color:#2F3384"/>
		</linearGradient>
		<path fill="url(#SVGID_3_)" d="M703.817,238.17c0.381-12.077,0.938-24.199,1.686-36.372c-3.18,0.381-6.65,0.703-10.387,0.981
			c-3.75,0.278-7.969,0.425-12.643,0.425c-4.688,0-8.891-0.146-12.641-0.425c-3.75-0.279-7.207-0.601-10.387-0.981
			c0.748,12.173,1.305,24.199,1.67,36.094c0.381,11.895,0.57,25.606,0.57,41.155c-5.434,0.184-11.338,0.33-17.695,0.417
			c-6.371,0.096-14.605,0.14-24.727,0.14c-10.107,0-18.572-0.044-25.416-0.14c-6.84-0.087-12.686-0.233-17.547-0.417
			c0-15.549,0.131-29.261,0.408-41.155c0.293-11.895,0.895-23.921,1.832-36.094c-3.18,0.381-6.652,0.703-10.387,0.981
			c-3.75,0.278-7.969,0.425-12.643,0.425c-4.688,0-8.904-0.146-12.641-0.425c-3.75-0.278-7.208-0.601-10.401-0.981
			c0.747,12.173,1.318,24.295,1.699,36.372c0.366,12.085,0.557,25.898,0.557,41.434v38.207c0,15.541-0.189,29.355-0.557,41.426
			c-0.381,12.069-0.952,23.92-1.699,35.536c3.193-0.381,6.65-0.569,10.401-0.569c3.734,0,7.953,0,12.641,0c4.674,0,8.893,0,12.643,0
			c3.734,0,7.207,0.188,10.387,0.569c-0.748-11.615-1.305-23.467-1.686-35.536c-0.383-12.07-0.557-25.885-0.557-41.426v-16.015
			c7.104-0.374,14.225-0.652,21.342-0.843c7.119-0.183,14.225-0.285,21.344-0.285s14.236,0.146,21.357,0.425
			c7.105,0.278,14.225,0.52,21.344,0.703v16.015c0,15.541-0.189,29.355-0.57,41.426c-0.365,12.069-0.924,23.92-1.67,35.536
			c3.178-0.381,6.635-0.569,10.385-0.569s7.953,0,12.643,0c4.674,0,8.893,0,12.643,0c3.734,0,7.205,0.188,10.385,0.569
			c-0.746-11.615-1.303-23.467-1.684-35.536c-0.367-12.07-0.559-25.885-0.559-41.426v-38.207
			C703.26,264.068,703.45,250.255,703.817,238.17z"/>
		
			<linearGradient id="SVGID_4_" gradientUnits="userSpaceOnUse" x1="829.5229" y1="320.562" x2="829.5229" y2="520.8403" gradientTransform="matrix(1 0 0 -1 0 718.9824)">
			<stop  offset="0" style="stop-color:#212058"/>
			<stop  offset="0.0693" style="stop-color:#24235F"/>
			<stop  offset="0.2522" style="stop-color:#2A2B6F"/>
			<stop  offset="0.437" style="stop-color:#2D2F7B"/>
			<stop  offset="0.6229" style="stop-color:#2F3282"/>
			<stop  offset="0.8118" style="stop-color:#2F3384"/>
		</linearGradient>
		<path fill="url(#SVGID_4_)" d="M898.055,369.489c-4.027,2.621-8.291,4.818-12.771,6.607c-4.498,1.771-9.1,3.178-13.771,4.202
			c-4.688,1.04-9.27,1.554-13.77,1.554c-8.043,0-16.055-1.494-24.008-4.498c-7.973-3.002-15.074-7.732-21.359-14.18
			c-6.27-6.475-11.367-14.795-15.307-25.005c-3.926-10.209-5.891-22.514-5.891-36.939c0-14.978,1.918-27.854,5.758-38.62
			c3.838-10.768,8.848-19.615,15.029-26.544c6.182-6.928,13.051-12.084,20.639-15.446c7.59-3.376,15.119-5.062,22.619-5.062
			c10.107,0,18.91,1.927,26.396,5.757c7.484,3.846,14.795,10.254,21.914,19.241h3.926c0.381-4.863,1.084-9.683,2.109-14.465
			c1.023-4.776,2.475-9.5,4.365-14.181c-3.195-1.875-7.076-3.654-11.66-5.339c-4.602-1.685-9.42-3.135-14.475-4.358
			c-5.053-1.208-10.297-2.197-15.73-2.943c-5.438-0.748-10.576-1.129-15.441-1.129c-14.795,0-28.93,1.971-42.422,5.903
			c-13.477,3.926-25.328,10.159-35.521,18.677c-10.209,8.526-18.369,19.57-24.447,33.15c-6.08,13.579-9.127,30.103-9.127,49.569
			c0,13.305,2.344,25.668,7.018,37.079c4.688,11.426,11.469,21.299,20.361,29.635c8.906,8.334,19.76,14.794,32.592,19.379
			c12.818,4.6,27.395,6.887,43.668,6.887c23.043,0,42.145-3.839,57.318-11.515c0.367-3.941,1.115-7.91,2.242-11.938
			c1.129-4.027,2.432-8.013,3.926-11.938l-3.646-2.24C905.584,363.967,902.083,366.867,898.055,369.489z"/>
	</g>
</g>
</svg>
