<?xml version="1.0" encoding="utf-8"?>
<!-- Generator: Adobe Illustrator 16.0.4, SVG Export Plug-In . SVG Version: 6.00 Build 0)  -->
<!DOCTYPE svg PUBLIC "-//W3C//DTD SVG 1.1//EN" "http://www.w3.org/Graphics/SVG/1.1/DTD/svg11.dtd">
<svg version="1.1" id="PCHC_Logo" xmlns="http://www.w3.org/2000/svg" xmlns:xlink="http://www.w3.org/1999/xlink" x="0px" y="0px"
	 width="1080.004px" height="717.982px" viewBox="0 0 1080.004 717.982" enable-background="new 0 0 1080.004 717.982"
	 xml:space="preserve">
<g id="Backer_1_">
	<ellipse fill="#FFFFFF" cx="540.002" cy="303.785" rx="540.002" ry="303.785"/>
	<path fill="#FFFFFF" d="M970.939,486.774L970.939,486.774L970.939,486.774H125.517v0.107c-1.472-0.068-2.952-0.107-4.441-0.107
		c-51.582,0-93.397,41.815-93.397,93.396c0,51.582,41.815,93.397,93.397,93.397c34.196,0,64.094-18.382,80.367-45.8h769.496l0,0
		h0.001c38.934,0,70.496-31.562,70.496-70.497C1041.436,518.337,1009.873,486.774,970.939,486.774z"/>
</g>
<g id="EMAN">
	<g>
		<g id="loop">
			<path fill="#9E272A" d="M100.895,518.786c-1.218-22.365,5.715-23.957,13.29-25.852c11.329-2.503,16.493,2.347,20.207,13.75
				c-8.516-0.915-12.103-3.256-20.079-2.211C108.553,505.249,103.49,510.517,100.895,518.786z"/>
		</g>
		<g id="right">
			
				<linearGradient id="SVGID_1_" gradientUnits="userSpaceOnUse" x1="160.4482" y1="88.3379" x2="284.373" y2="-96.883" gradientTransform="matrix(0.9419 0.336 0.336 -0.9419 -93.9574 513.3741)">
				<stop  offset="0" style="stop-color:#A82226"/>
				<stop  offset="1" style="stop-color:#EC1C24"/>
			</linearGradient>
			<path fill="url(#SVGID_1_)" d="M125.761,493.703c6.168,22.361-2.574,44.886-10.948,62.411
				c-11.894,24.406-40.408,57.742-43.563,70.053c5.26,13.018,14.193,21.686,16.447,34.697c13.494-27.904,28.285-54.99,40.264-83.611
				c7.703-18.119,17.029-38.313,19.142-56.129C147.851,515.555,139.307,500.837,125.761,493.703z"/>
		</g>
		<g id="left">
			
				<linearGradient id="SVGID_2_" gradientUnits="userSpaceOnUse" x1="179.9502" y1="101.3887" x2="303.8763" y2="-83.8341" gradientTransform="matrix(0.9419 0.336 0.336 -0.9419 -93.9574 513.3741)">
				<stop  offset="0" style="stop-color:#A82226"/>
				<stop  offset="1" style="stop-color:#EC1C24"/>
			</linearGradient>
			<path fill="url(#SVGID_2_)" d="M173.967,616.835c-1.643,8.078-10.893,22.107-16.021,30.537
				c-34.344-35.594-64.709-107.621-64.545-117.994c0.12-8.271,5.673-21.852,9.783-29.405
				C99.546,515.122,161.16,609.61,173.967,616.835z"/>
		</g>
	</g>
	<g>
		<path fill="#231F20" d="M182.046,587.3c0.735-4.837,1.57-9.774,2.506-14.812c0.935-5.037,1.78-10.113,2.532-15.229
			c0.752-5.113,1.316-10.19,1.694-15.229c0.375-5.039,0.395-9.978,0.06-14.816c0.038-0.252,0.184-0.568,0.435-0.946
			c0.251-0.378,0.549-0.718,0.885-1.018c0.338-0.302,0.703-0.542,1.095-0.717c0.393-0.176,0.771-0.188,1.136-0.034
			c0.595,0.25,1.043,0.745,1.346,1.475c0.303,0.732,0.499,1.527,0.587,2.384c0.088,0.86,0.11,1.677,0.064,2.458
			s-0.095,1.348-0.148,1.701l29.194-7.199c0.422,0.1,0.734,0.367,0.937,0.795c0.201,0.429,0.251,0.906,0.147,1.436
			c-0.105,0.529-0.354,1.047-0.746,1.551c-0.395,0.503-0.921,0.854-1.583,1.055l-28.837,7.729c-0.498,3.275-0.908,6.526-1.226,9.75
			c-0.321,3.224-0.611,6.5-0.873,9.826l21.398-7.289c0.675-0.603,1.236-1.005,1.679-1.207c0.442-0.198,0.893-0.273,1.348-0.223
			c0.455,0.049,0.848,0.431,1.179,1.136c-0.153,1.009-0.877,1.927-2.171,2.754c-1.294,0.829-2.858,1.597-4.691,2.296
			c-1.834,0.703-3.81,1.367-5.923,1.992c-2.114,0.627-4.084,1.266-5.909,1.916c-1.829,0.652-3.377,1.317-4.647,1.994
			c-1.271,0.678-1.962,1.395-2.078,2.15l-3.53,19.875c0.661,0.456,1.697,0.598,3.11,0.424c1.413-0.174,3.008-0.512,4.789-1.012
			c1.779-0.498,3.673-1.113,5.68-1.838c2.009-0.73,3.938-1.418,5.79-2.068c1.85-0.651,3.555-1.229,5.115-1.729
			c1.56-0.502,2.806-0.775,3.737-0.824c0.431,0.053,0.795,0.216,1.094,0.492c0.296,0.279,0.494,0.594,0.585,0.947
			c0.092,0.352,0.048,0.717-0.13,1.098c-0.178,0.375-0.555,0.689-1.127,0.941c-2.028,0.852-4.46,1.806-7.296,2.857
			c-2.836,1.055-5.752,2.066-8.747,3.045c-2.995,0.977-5.886,1.828-8.671,2.553c-2.788,0.726-5.117,1.162-6.988,1.308
			c-0.666-0.103-1.189-0.265-1.567-0.494C182.901,588.323,182.489,587.907,182.046,587.3z"/>
		<path fill="#231F20" d="M244.804,588.337c-0.52-1.061-0.737-2.445-0.646-4.158c0.089-1.716,0.267-3.518,0.529-5.407
			s0.545-3.753,0.849-5.593c0.305-1.84,0.41-3.412,0.317-4.724c-3.075,5.187-5.842,9.224-8.299,12.116
			c-2.459,2.895-4.621,4.956-6.487,6.188c-1.865,1.23-3.472,1.783-4.813,1.652c-1.343-0.126-2.422-0.635-3.236-1.518
			c-0.814-0.885-1.392-1.969-1.732-3.256c-0.341-1.287-0.447-2.507-0.318-3.667c-0.05-1.917,0.287-4.221,1.014-6.915
			c0.725-2.695,1.709-5.477,2.947-8.35c1.239-2.87,2.688-5.677,4.345-8.42c1.657-2.742,3.428-5.12,5.315-7.133
			c1.888-2.012,3.806-3.51,5.755-4.486c1.949-0.98,3.847-1.139,5.694-0.481c0.987-0.099,1.797-0.06,2.427,0.118
			c0.63,0.178,1.122,0.546,1.475,1.1c0.354,0.558,0.553,1.324,0.598,2.307c0.044,0.986,0.001,2.232-0.13,3.744
			c-0.841,4.887-1.337,9.044-1.494,12.47c-0.155,3.431-0.19,6.454-0.1,9.075c0.088,2.618,0.203,4.988,0.344,7.106
			c0.139,2.116,0.087,4.309-0.16,6.578c-0.123,0.805-0.413,1.424-0.865,1.847c-0.456,0.432-0.935,0.703-1.439,0.83
			c-0.505,0.122-0.95,0.085-1.333-0.115C244.977,589.043,244.791,588.741,244.804,588.337z M246.37,550.161
			c-0.922-1.616-2.084-2.299-3.483-2.049c-1.401,0.247-2.883,1.115-4.446,2.598c-1.565,1.484-3.136,3.422-4.714,5.812
			c-1.581,2.393-3.015,4.947-4.303,7.665c-1.29,2.719-2.346,5.426-3.168,8.12c-0.823,2.695-1.271,5.074-1.34,7.145
			c0.336,2.266,0.957,3.63,1.861,4.084c0.904,0.455,1.975,0.295,3.211-0.484c1.237-0.779,2.571-2.023,3.999-3.732
			c1.426-1.711,2.828-3.561,4.2-5.551c1.372-1.988,2.633-3.976,3.789-5.965c1.153-1.986,2.1-3.664,2.843-5.021L246.37,550.161z"/>
		<path fill="#231F20" d="M254.271,583.669c0.809,0.758,1.877,1.164,3.209,1.215c1.33,0.053,2.768-0.131,4.319-0.561
			c1.547-0.42,3.152-1.049,4.811-1.879c1.658-0.829,3.207-1.74,4.65-2.75c1.441-1.002,2.724-2.072,3.844-3.205
			c1.121-1.131,1.929-2.212,2.427-3.246c0.497-1.029,0.617-1.973,0.357-2.833c-0.259-0.856-1.03-1.538-2.316-2.045
			c-2.572,0.599-5.125,1.074-7.66,1.419c-2.534,0.35-4.759,0.344-6.677-0.014c-1.916-0.355-3.383-1.189-4.399-2.502
			c-1.018-1.314-1.271-3.33-0.761-6.051c0.545-2.619,1.611-5.073,3.199-7.365c1.589-2.29,3.465-4.236,5.633-5.847
			c2.166-1.608,4.494-2.837,6.984-3.691c2.488-0.851,4.938-1.199,7.347-1.044c0.479,0.053,0.923,0.09,1.333,0.118
			c0.409,0.024,0.772,0.114,1.091,0.266c0.316,0.151,0.537,0.378,0.663,0.683c0.124,0.303,0.115,0.756-0.026,1.36
			c-0.162,0.756-0.523,1.36-1.077,1.812c-0.558,0.454-1.24,0.63-2.051,0.525c-2.778-0.611-5.376-0.488-7.792,0.361
			c-2.417,0.853-4.497,2.045-6.237,3.58c-1.742,1.533-3.075,3.256-3.997,5.168c-0.924,1.916-1.284,3.654-1.083,5.215
			c0.647,1.816,1.677,2.967,3.088,3.449c1.411,0.48,2.966,0.647,4.669,0.498c1.701-0.146,3.455-0.406,5.264-0.78
			c1.809-0.378,3.408-0.499,4.8-0.372c1.391,0.131,2.474,0.689,3.249,1.674c0.775,0.982,1.012,2.786,0.712,5.405
			c-0.301,1.663-1.08,3.263-2.334,4.796c-1.255,1.535-2.775,2.969-4.558,4.301c-1.784,1.332-3.733,2.537-5.841,3.618
			c-2.111,1.081-4.18,1.97-6.208,2.67c-2.029,0.702-3.901,1.177-5.618,1.426c-1.716,0.249-3.062,0.219-4.038-0.086
			c-0.966-1.009-1.399-2.004-1.297-2.986C252.052,584.987,252.825,584.22,254.271,583.669z"/>
		<path fill="#231F20" d="M291.003,553.276l-7.068,2.326c-0.512-0.15-0.92-0.428-1.224-0.833c-0.303-0.402-0.495-0.833-0.571-1.284
			c-0.078-0.454-0.049-0.881,0.086-1.285c0.135-0.402,0.387-0.705,0.758-0.91l8.811-3.229l3.104-21.39
			c0.244-0.655,0.633-1.134,1.167-1.437c0.531-0.3,1.052-0.438,1.56-0.412c0.507,0.026,0.952,0.204,1.342,0.531
			c0.387,0.33,0.616,0.746,0.685,1.25c-0.334,1.561-0.658,3.211-0.971,4.95c-0.312,1.738-0.613,3.478-0.901,5.216
			c-0.289,1.738-0.533,3.426-0.733,5.064c-0.2,1.638-0.33,3.135-0.391,4.496l12.034-4.738c0.711-0.199,1.236-0.137,1.577,0.19
			c0.338,0.331,0.528,0.758,0.57,1.287c0.041,0.528-0.075,1.048-0.345,1.55c-0.271,0.506-0.665,0.856-1.182,1.057l-13.446,5.869
			c-0.077,0.505-0.234,1.699-0.472,3.59c-0.239,1.889-0.528,4.118-0.869,6.688c-0.343,2.572-0.711,5.32-1.105,8.242
			c-0.396,2.92-0.777,5.668-1.142,8.236c-0.367,2.572-0.683,4.801-0.944,6.69c-0.264,1.89-0.433,3.087-0.509,3.589
			c-0.351,1.663-0.939,2.492-1.767,2.49c-0.825,0-1.665-0.404-2.515-1.213L291.003,553.276z"/>
		<path fill="#231F20" d="M304.959,569.028c-0.387,0.303-1,0.414-1.839,0.338c-0.84-0.08-1.591-0.268-2.249-0.572
			c-0.66-0.305-1.07-0.719-1.233-1.25c-0.162-0.529,0.222-1.145,1.155-1.852c0.386-0.3,0.797-0.512,1.229-0.639
			c0.431-0.123,0.865-0.25,1.298-0.376c0.432-0.124,0.801-0.312,1.107-0.563c0.306-0.252,0.525-0.654,0.658-1.21
			c0.395-2.268,0.927-4.584,1.604-6.95c0.675-2.369,1.593-4.481,2.751-6.345c1.159-1.865,2.638-3.347,4.435-4.454
			c1.798-1.103,4.016-1.527,6.654-1.27c0.973,0.002,2.031,0.242,3.175,0.725c1.142,0.48,2.213,1.111,3.214,1.896
			c1,0.783,1.831,1.717,2.494,2.801c0.661,1.086,0.994,2.259,0.998,3.52c0.263,0.502-0.026,1.134-0.871,1.887
			c-0.844,0.756-1.993,1.598-3.449,2.525c-1.455,0.93-3.083,1.873-4.882,2.828c-1.799,0.951-3.529,1.856-5.191,2.709
			c-1.663,0.855-3.127,1.607-4.395,2.259c-1.266,0.653-2.09,1.104-2.468,1.356c-0.006,1.965-0.006,4.031,0.006,6.2
			c0.011,2.167,0.196,4.159,0.552,5.974c0.357,1.814,0.921,3.317,1.69,4.502c0.767,1.188,1.882,1.779,3.342,1.781
			c2.116,0.156,4.003-0.165,5.658-0.968c1.655-0.806,3.092-1.861,4.312-3.167c1.219-1.307,2.252-2.743,3.099-4.305
			c0.843-1.559,1.532-3.045,2.063-4.457c0.53-1.407,0.931-2.606,1.201-3.587c0.272-0.985,0.463-1.524,0.575-1.626
			c0.581-0.301,1.191-0.312,1.831-0.033c0.638,0.277,0.914,1.021,0.829,2.23c-0.251,1.966-1.004,4.209-2.262,6.726
			s-2.815,4.833-4.668,6.946c-1.854,2.113-3.937,3.81-6.247,5.09c-2.312,1.281-4.63,1.719-6.951,1.309
			c-2.473-0.054-4.33-0.803-5.571-2.244c-1.241-1.436-2.133-3.178-2.673-5.219c-0.542-2.043-0.835-4.198-0.88-6.466
			S304.983,570.794,304.959,569.028z M326.544,552.819c-1.221-2.221-2.586-3.635-4.1-4.244c-1.513-0.605-3.141-0.786-4.88-0.539
			c-1.045,0.149-2.021,0.638-2.924,1.469c-0.906,0.83-1.699,1.886-2.379,3.171c-0.682,1.282-1.242,2.72-1.675,4.306
			c-0.437,1.588-0.707,3.212-0.815,4.875L326.544,552.819z"/>
		<path fill="#231F20" d="M334.435,587.838c0.912-6.954,1.685-12.848,2.324-17.685c0.635-4.838,1.171-8.844,1.604-12.02
			c0.436-3.172,0.774-5.654,1.021-7.443c0.248-1.787,0.424-3.109,0.532-3.968c0.104-0.856,0.171-1.374,0.197-1.55
			c0.026-0.178,0.044-0.291,0.052-0.342c0.116-0.451,0.393-0.829,0.829-1.132c0.434-0.3,0.888-0.488,1.363-0.565
			c0.473-0.072,0.914-0.008,1.321,0.193c0.409,0.203,0.673,0.531,0.801,0.984l-2.423,17.386c1.257-3.476,2.877-6.37,4.859-8.688
			c1.982-2.312,4.095-4.135,6.341-5.465c2.247-1.332,4.506-2.195,6.782-2.596c2.273-0.396,4.333-0.418,6.176-0.062
			c0.608,0.152,1.041,0.432,1.296,0.834c0.255,0.404,0.357,0.844,0.31,1.324c-0.048,0.478-0.239,0.932-0.571,1.36
			c-0.334,0.427-0.733,0.739-1.202,0.941c-2.165-0.155-4.25,0.028-6.252,0.554c-2.003,0.525-3.873,1.303-5.609,2.333
			c-1.738,1.03-3.31,2.249-4.715,3.657c-1.408,1.407-2.57,2.893-3.487,4.453c-1.367,2.266-2.422,4.646-3.164,7.138
			c-0.744,2.495-1.34,4.977-1.789,7.444c-0.448,2.468-0.804,4.811-1.067,7.027c-0.264,2.219-0.547,4.157-0.848,5.82
			c-0.133,0.556-0.428,0.973-0.882,1.246c-0.455,0.275-0.94,0.425-1.455,0.451c-0.515,0.023-1.006-0.104-1.475-0.382
			C334.835,588.81,334.545,588.394,334.435,587.838z"/>
		<path fill="#231F20" d="M370.464,544.29c0.125-0.503,0.38-0.907,0.768-1.209c0.386-0.301,0.803-0.488,1.253-0.564
			c0.449-0.076,0.879-0.024,1.29,0.153c0.412,0.178,0.735,0.445,0.973,0.796l-4.811,30.233c1.475-3.626,2.859-7.216,4.153-10.767
			c1.293-3.551,2.719-6.771,4.28-9.668c1.558-2.895,3.331-5.287,5.321-7.173c1.992-1.884,4.416-2.95,7.275-3.197
			c1.531-0.149,2.772,0.321,3.727,1.405c0.955,1.087,1.692,2.564,2.211,4.43c0.519,1.867,0.856,4.045,1.013,6.541
			c0.155,2.494,0.188,5.093,0.094,7.787c-0.093,2.695-0.273,5.406-0.542,8.127c-0.267,2.721-0.553,5.24-0.856,7.559
			c-0.304,2.318-0.601,4.357-0.894,6.122c-0.292,1.763-0.524,3.048-0.694,3.853c-0.471,0.858-1.153,1.42-2.046,1.698
			c-0.894,0.273-1.604-0.093-2.132-1.099c0.097-0.959,0.324-2.611,0.679-4.953c0.355-2.343,0.728-5.025,1.113-8.049
			c0.386-3.023,0.721-6.186,1.003-9.486c0.282-3.299,0.381-6.35,0.295-9.148c-0.086-2.797-0.437-5.142-1.049-7.033
			c-0.614-1.893-1.606-2.963-2.978-3.218c-1.186-0.204-2.469,0.472-3.85,2.032c-1.38,1.559-2.788,3.623-4.225,6.192
			c-1.436,2.565-2.85,5.462-4.238,8.685c-1.39,3.223-2.676,6.396-3.855,9.518c-1.181,3.123-2.212,5.996-3.097,8.615
			c-0.883,2.616-1.506,4.633-1.866,6.043c-0.208,0.404-0.55,0.729-1.026,0.98c-0.475,0.25-0.971,0.388-1.486,0.412
			c-0.514,0.024-1.011-0.067-1.492-0.268c-0.48-0.205-0.8-0.58-0.959-1.136L370.464,544.29z"/>
		<path fill="#231F20" d="M470.039,533.683c-0.179-0.104-0.579,0.527-1.199,1.887c-0.62,1.357-1.412,3.123-2.372,5.287
			c-0.962,2.164-2.026,4.607-3.193,7.327c-1.169,2.72-2.381,5.411-3.638,8.083c-1.257,2.668-2.5,5.16-3.726,7.476
			c-1.228,2.316-2.372,4.153-3.428,5.512c-1.058,1.36-1.974,2.103-2.748,2.225c-0.772,0.124-1.346-0.668-1.716-2.384
			c-0.596-1.212-1.22-2.877-1.87-4.995c-0.652-2.118-1.337-4.413-2.056-6.885c-0.719-2.47-1.475-5.029-2.264-7.677
			c-0.791-2.648-1.622-5.107-2.492-7.377c-0.874-2.27-1.764-4.247-2.674-5.938c-0.912-1.692-1.853-2.864-2.822-3.524
			c-0.598,3.931-1.033,8.239-1.307,12.928c-0.274,4.686-0.522,9.438-0.742,14.249c-0.22,4.813-0.467,9.562-0.741,14.251
			c-0.276,4.687-0.713,9.021-1.317,12.998c0.165,0.51,0.101,1.012-0.194,1.513c-0.295,0.505-0.68,0.882-1.157,1.132
			c-0.475,0.251-0.994,0.3-1.556,0.148c-0.56-0.152-1.026-0.606-1.397-1.364c0.083-5.038,0.378-10.18,0.883-15.419
			c0.504-5.24,1.012-10.51,1.524-15.799c0.511-5.291,0.958-10.557,1.341-15.799c0.382-5.242,0.546-10.406,0.493-15.498
			c0.103-1.006,0.369-1.636,0.798-1.887c0.428-0.254,0.933-0.379,1.517-0.376c2.09,0.657,3.877,1.858,5.364,3.602
			c1.488,1.743,2.771,3.785,3.85,6.132c1.078,2.346,2.003,4.906,2.775,7.68c0.77,2.774,1.531,5.534,2.281,8.282
			c0.752,2.749,1.52,5.37,2.309,7.869c0.789,2.496,1.75,4.651,2.885,6.47c0.193,0,0.389-0.088,0.587-0.264
			c0.197-0.176,0.501-0.656,0.911-1.434c0.411-0.781,1.006-1.979,1.787-3.59c0.779-1.607,1.836-3.851,3.175-6.721
			c1.335-2.871,3.015-6.484,5.04-10.838c2.023-4.357,4.483-9.654,7.378-15.902c0.143-0.299,0.427-0.564,0.85-0.792
			c0.424-0.223,0.867-0.337,1.33-0.337c0.462,0.002,0.862,0.166,1.201,0.494c0.34,0.329,0.522,0.895,0.544,1.704
			c-0.217,4.636-0.512,9.538-0.882,14.702c-0.373,5.164-0.722,10.445-1.055,15.836c-0.334,5.395-0.602,10.848-0.807,16.366
			c-0.207,5.521-0.253,10.95-0.14,16.292c-0.206,0.705-0.5,1.195-0.881,1.475c-0.383,0.273-0.815,0.387-1.292,0.336
			c-0.48-0.052-0.977-0.217-1.494-0.495c-0.518-0.278-0.99-0.619-1.413-1.023L470.039,533.683z"/>
		<path fill="#231F20" d="M499.539,588.854c-0.521-1.058-0.735-2.445-0.646-4.156c0.089-1.715,0.267-3.516,0.529-5.406
			c0.263-1.889,0.545-3.752,0.85-5.593c0.304-1.839,0.409-3.411,0.316-4.726c-3.076,5.188-5.842,9.227-8.299,12.119
			c-2.459,2.895-4.622,4.953-6.486,6.186c-1.867,1.231-3.473,1.783-4.814,1.654c-1.343-0.129-2.422-0.637-3.236-1.52
			c-0.815-0.885-1.393-1.967-1.731-3.256c-0.341-1.285-0.448-2.508-0.318-3.668c-0.051-1.914,0.286-4.219,1.013-6.915
			c0.725-2.692,1.708-5.477,2.947-8.347c1.239-2.871,2.688-5.678,4.344-8.421c1.659-2.743,3.43-5.12,5.317-7.134
			c1.887-2.01,3.805-3.51,5.754-4.486c1.949-0.98,3.846-1.138,5.693-0.48c0.988-0.098,1.797-0.059,2.427,0.117
			c0.629,0.18,1.121,0.547,1.475,1.102s0.554,1.323,0.598,2.306c0.045,0.985,0.001,2.231-0.13,3.743
			c-0.841,4.887-1.337,9.043-1.492,12.471c-0.156,3.428-0.191,6.454-0.101,9.072c0.088,2.621,0.201,4.991,0.343,7.107
			c0.14,2.119,0.087,4.309-0.159,6.578c-0.123,0.805-0.412,1.424-0.865,1.85c-0.456,0.428-0.936,0.702-1.44,0.826
			c-0.505,0.125-0.95,0.086-1.332-0.113C499.712,589.563,499.526,589.26,499.539,588.854z M501.105,550.68
			c-0.923-1.614-2.084-2.296-3.483-2.049c-1.402,0.249-2.884,1.118-4.446,2.599c-1.565,1.484-3.137,3.424-4.715,5.812
			c-1.582,2.392-3.016,4.947-4.303,7.664c-1.29,2.719-2.346,5.428-3.168,8.121c-0.823,2.696-1.271,5.076-1.34,7.144
			c0.336,2.268,0.956,3.632,1.861,4.085c0.904,0.457,1.974,0.297,3.211-0.483c1.237-0.778,2.571-2.024,3.998-3.734
			c1.427-1.71,2.827-3.562,4.201-5.548c1.372-1.988,2.634-3.977,3.789-5.968c1.152-1.985,2.1-3.661,2.843-5.021L501.105,550.68z"/>
		<path fill="#231F20" d="M515.821,527.802c0.1-0.654,0.386-1.096,0.856-1.322c0.474-0.227,0.977-0.336,1.512-0.336
			c1.071,0.004,1.684,0.369,1.839,1.099c0.157,0.733,0.163,1.579,0.018,2.535c-0.382,0.604-0.839,1.029-1.362,1.282
			c-0.527,0.25-1.032,0.301-1.52,0.146c-0.486-0.149-0.87-0.505-1.152-1.06C515.731,529.593,515.668,528.812,515.821,527.802z
			 M514.352,543.222c0.317-0.149,0.674-0.273,1.081-0.377c0.405-0.098,0.791-0.148,1.154-0.148c0.364,0.002,0.705,0.078,1.023,0.229
			c0.317,0.154,0.542,0.432,0.676,0.834c-0.499,3.277-0.999,6.814-1.503,10.619c-0.507,3.805-0.993,7.66-1.465,11.564
			c-0.472,3.908-0.946,7.748-1.424,11.527c-0.476,3.777-0.911,7.281-1.303,10.505c-0.067,0.756-0.348,1.336-0.848,1.739
			c-0.498,0.4-1.003,0.602-1.514,0.6c-0.511,0-0.956-0.191-1.337-0.568c-0.38-0.379-0.509-0.972-0.386-1.779L514.352,543.222z"/>
		<path fill="#231F20" d="M522.393,544.599c0.125-0.501,0.38-0.905,0.768-1.207c0.386-0.303,0.803-0.488,1.252-0.564
			c0.45-0.076,0.881-0.024,1.289,0.153c0.413,0.178,0.737,0.442,0.977,0.796l-4.813,30.23c1.475-3.625,2.86-7.213,4.156-10.764
			c1.291-3.551,2.717-6.771,4.277-9.668c1.559-2.896,3.332-5.287,5.321-7.174c1.99-1.883,4.415-2.949,7.275-3.196
			c1.53-0.149,2.771,0.321,3.726,1.405c0.956,1.087,1.691,2.564,2.213,4.43c0.519,1.865,0.855,4.045,1.013,6.541
			c0.155,2.494,0.187,5.093,0.097,7.787c-0.097,2.695-0.278,5.403-0.544,8.127c-0.266,2.721-0.554,5.24-0.855,7.559
			c-0.305,2.318-0.601,4.357-0.893,6.122c-0.295,1.763-0.525,3.048-0.695,3.853c-0.474,0.856-1.156,1.42-2.047,1.698
			c-0.895,0.273-1.605-0.095-2.133-1.099c0.099-0.959,0.325-2.611,0.681-4.953c0.355-2.343,0.728-5.025,1.113-8.051
			c0.386-3.023,0.719-6.184,1.001-9.484c0.284-3.299,0.38-6.352,0.296-9.148c-0.088-2.799-0.435-5.142-1.048-7.033
			c-0.614-1.893-1.605-2.963-2.979-3.22c-1.185-0.202-2.47,0.474-3.849,2.034c-1.381,1.559-2.788,3.623-4.225,6.192
			c-1.438,2.563-2.85,5.462-4.239,8.685c-1.391,3.223-2.676,6.396-3.854,9.518c-1.181,3.123-2.212,5.996-3.097,8.613
			c-0.882,2.618-1.505,4.635-1.867,6.042c-0.206,0.405-0.547,0.731-1.023,0.983c-0.476,0.25-0.97,0.388-1.485,0.412
			c-0.515,0.024-1.013-0.067-1.491-0.268c-0.482-0.205-0.801-0.58-0.96-1.136L522.393,544.599z"/>
		<path fill="#231F20" d="M555.534,569.54c-0.386,0.303-0.999,0.412-1.838,0.339c-0.842-0.079-1.592-0.27-2.25-0.574
			c-0.657-0.302-1.07-0.72-1.233-1.248c-0.161-0.529,0.225-1.146,1.158-1.851c0.386-0.303,0.795-0.516,1.228-0.64
			c0.434-0.124,0.866-0.249,1.298-0.378c0.433-0.125,0.803-0.311,1.106-0.564c0.307-0.25,0.525-0.653,0.658-1.207
			c0.393-2.268,0.928-4.584,1.604-6.951c0.679-2.37,1.596-4.482,2.754-6.346s2.636-3.346,4.433-4.451
			c1.798-1.105,4.017-1.53,6.654-1.273c0.973,0.002,2.032,0.244,3.175,0.726c1.142,0.482,2.214,1.114,3.215,1.896
			c0.999,0.785,1.831,1.719,2.494,2.803c0.662,1.088,0.995,2.258,0.997,3.519c0.264,0.505-0.024,1.134-0.87,1.89
			c-0.846,0.754-1.994,1.596-3.448,2.525c-1.454,0.927-3.083,1.871-4.883,2.824c-1.798,0.955-3.529,1.857-5.19,2.709
			c-1.665,0.856-3.128,1.609-4.395,2.26c-1.269,0.654-2.092,1.105-2.47,1.356c-0.006,1.966-0.004,4.032,0.008,6.2
			c0.011,2.168,0.194,4.159,0.552,5.975c0.355,1.812,0.92,3.316,1.689,4.502c0.769,1.186,1.884,1.779,3.343,1.783
			c2.116,0.154,4.002-0.168,5.656-0.971s3.093-1.859,4.312-3.166c1.222-1.309,2.251-2.742,3.102-4.305
			c0.841-1.559,1.529-3.047,2.061-4.455c0.531-1.41,0.932-2.609,1.203-3.59c0.271-0.984,0.462-1.521,0.574-1.625
			c0.582-0.302,1.191-0.312,1.831-0.034c0.637,0.278,0.913,1.024,0.827,2.233c-0.249,1.965-1.003,4.206-2.26,6.723
			c-1.261,2.52-2.814,4.834-4.67,6.947c-1.853,2.113-3.935,3.809-6.247,5.09c-2.311,1.28-4.629,1.718-6.95,1.309
			c-2.472-0.055-4.328-0.805-5.572-2.242c-1.24-1.438-2.133-3.182-2.673-5.223c-0.543-2.043-0.835-4.195-0.88-6.465
			C555.594,573.321,555.559,571.307,555.534,569.54z M577.121,553.329c-1.222-2.221-2.586-3.634-4.1-4.24
			c-1.514-0.609-3.14-0.789-4.883-0.539c-1.044,0.148-2.018,0.637-2.923,1.467c-0.905,0.828-1.7,1.887-2.378,3.17
			c-0.685,1.285-1.242,2.719-1.678,4.307c-0.435,1.587-0.706,3.211-0.812,4.874L577.121,553.329z"/>
		<path fill="#231F20" d="M604.874,589.827c0.515-1.158,1.353-3.07,2.515-5.742c1.156-2.668,2.721-6.482,4.692-11.441
			s4.423-11.27,7.362-18.924c2.94-7.654,6.452-17.072,10.535-28.255c0.368-0.503,0.832-0.842,1.394-1.02
			c0.562-0.174,1.104-0.225,1.626-0.147c0.527,0.078,0.948,0.256,1.271,0.531c0.323,0.28,0.434,0.595,0.331,0.948l8.877,36.23
			l7.797-2.327c0.632,0.002,1.141,0.18,1.524,0.533s0.563,0.783,0.535,1.285c-0.028,0.504-0.282,1.046-0.758,1.624
			c-0.477,0.58-1.228,1.044-2.256,1.394c-0.41,0.15-0.949,0.314-1.605,0.49c-0.659,0.174-1.317,0.335-1.974,0.486
			c-0.655,0.148-1.211,0.3-1.673,0.449c-0.462,0.15-0.702,0.303-0.728,0.453l4.703,22.391c-0.137,0.251-0.282,0.561-0.438,0.941
			c-0.153,0.378-0.392,0.678-0.719,0.904c-0.327,0.225-0.776,0.303-1.349,0.223c-0.574-0.072-1.344-0.443-2.314-1.099l-5.015-22.237
			c-1.066,0.301-2.378,0.587-3.929,0.863c-1.549,0.271-3.173,0.547-4.868,0.82c-1.695,0.271-3.412,0.6-5.146,0.971
			c-1.734,0.376-3.352,0.84-4.846,1.389c-1.497,0.553-2.788,1.219-3.879,1.996c-1.096,0.781-1.818,1.723-2.182,2.832
			c-0.207,0.705-0.564,1.865-1.077,3.477c-0.513,1.609-1.011,3.222-1.499,4.836c-0.585,1.914-1.24,3.977-1.964,6.193
			c-1.015,0.905-1.851,1.205-2.508,0.901C606.649,591.495,605.838,590.839,604.874,589.827z M631.705,533.783l-12.844,33.618
			c0.875-0.301,2.065-0.625,3.579-0.975c1.512-0.35,3.152-0.724,4.915-1.126c1.764-0.398,3.541-0.797,5.326-1.197
			c1.789-0.4,3.422-0.825,4.905-1.274L631.705,533.783z"/>
		<path fill="#231F20" d="M660.682,526.587c0.24-0.303,0.575-0.518,1.011-0.643c0.429-0.124,0.864-0.161,1.293-0.109
			c0.429,0.051,0.836,0.178,1.22,0.379c0.382,0.205,0.625,0.432,0.735,0.684l-8.32,61.977c-0.092,0.604-0.303,1.033-0.634,1.285
			c-0.328,0.25-0.702,0.387-1.121,0.414c-0.417,0.022-0.832-0.041-1.246-0.194c-0.415-0.151-0.746-0.378-0.993-0.683
			L660.682,526.587z"/>
		<path fill="#231F20" d="M672.791,587.167c0.024-0.502,0.774-1.434,2.25-2.79c1.471-1.36,3.327-3.019,5.57-4.979
			c2.243-1.961,4.717-4.212,7.414-6.753c2.694-2.54,5.291-5.281,7.779-8.225c2.492-2.942,4.702-6.039,6.631-9.285
			c1.929-3.248,3.246-6.559,3.955-9.936c0.237-1.561,0.034-2.957-0.604-4.195c-0.642-1.236-1.53-2.348-2.67-3.332
			c-1.139-0.984-2.482-1.832-4.027-2.541c-1.548-0.709-3.101-1.306-4.657-1.785c-1.557-0.482-3.072-0.84-4.543-1.068
			c-1.476-0.231-2.722-0.346-3.745-0.348c-0.243,0-0.599,0.01-1.064,0.035s-1.001,0.1-1.602,0.223
			c-0.604,0.126-1.224,0.275-1.854,0.451c-0.638,0.176-1.222,0.414-1.753,0.715l-3.624,45.959c0.159,0.557,0.055,1.162-0.311,1.812
			c-0.37,0.657-0.842,1.21-1.422,1.661c-0.578,0.453-1.162,0.691-1.749,0.715c-0.588,0.026-0.999-0.314-1.233-1.021l3.579-47.092
			c-0.164,0.098-0.466,0.248-0.907,0.449c-0.447,0.199-0.903,0.414-1.377,0.639c-0.472,0.227-0.919,0.453-1.345,0.678
			c-0.423,0.228-0.711,0.366-0.866,0.414c-0.047,0-0.135,0.014-0.261,0.038c-0.125,0.026-0.211,0.036-0.258,0.036
			c-0.294,0-0.608-0.077-0.952-0.229c-0.343-0.148-0.476-0.479-0.398-0.984c0.129-0.855,0.417-1.547,0.864-2.076
			c0.445-0.528,0.98-1.017,1.61-1.473c0.625-0.449,1.303-0.891,2.024-1.317c0.721-0.425,1.415-0.993,2.081-1.695
			c0.666-0.705,1.265-1.585,1.788-2.644c0.524-1.057,0.915-2.416,1.168-4.08c1.068,0.002,1.706,0.207,1.915,0.609
			c0.206,0.402,0.294,0.868,0.261,1.396c-0.032,0.529-0.038,1.061-0.022,1.59c0.019,0.529,0.346,0.922,0.991,1.175
			c1.528-0.149,3.385-0.196,5.568-0.142c2.18,0.056,4.43,0.312,6.744,0.771s4.576,1.104,6.784,1.939
			c2.208,0.838,4.131,1.964,5.765,3.377c1.635,1.414,2.834,3.12,3.6,5.111c0.769,1.994,0.879,4.323,0.327,6.993
			c-1.018,4.131-2.646,8.122-4.885,11.974c-2.239,3.853-4.911,7.587-8.019,11.211c-3.103,3.622-6.596,7.156-10.476,10.601
			c-3.881,3.446-7.976,6.853-12.281,10.218c-0.05,0-0.135,0.014-0.262,0.037c-0.125,0.027-0.213,0.039-0.262,0.039
			c-0.484-0.002-0.833-0.354-1.042-1.061C672.779,588.276,672.716,587.673,672.791,587.167z"/>
		<path fill="#231F20" d="M713.279,587.78c0.094-0.303,0.842-0.68,2.249-1.129s3.156-0.987,5.248-1.614
			c2.088-0.628,4.413-1.353,6.971-2.18c2.558-0.825,5.05-1.765,7.473-2.819c2.423-1.053,4.629-2.221,6.625-3.504
			c1.996-1.281,3.523-2.698,4.59-4.262c0.123-0.805-0.318-1.436-1.319-1.891c-1.001-0.456-2.354-0.838-4.06-1.143
			c-1.703-0.307-3.662-0.562-5.869-0.768c-2.206-0.207-4.461-0.488-6.768-0.846s-4.535-0.815-6.69-1.375
			c-2.153-0.559-4.028-1.33-5.63-2.318c-1.602-0.985-2.828-2.221-3.672-3.711c-0.843-1.486-1.097-3.342-0.76-5.559
			c0.329-2.167,1.138-4.369,2.427-6.61s2.873-4.417,4.75-6.531c1.878-2.112,3.97-4.098,6.271-5.959
			c2.301-1.858,4.654-3.491,7.057-4.899c2.404-1.404,4.735-2.51,7.001-3.312c2.261-0.801,4.316-1.201,6.167-1.197
			c0.484,0.002,0.997-0.01,1.536-0.035c0.54-0.024,1.007,0.015,1.408,0.117c0.394,0.104,0.704,0.316,0.923,0.643
			c0.215,0.332,0.275,0.824,0.176,1.478c-0.245,1.612-0.932,2.771-2.06,3.473c-1.13,0.702-2.425,1.054-3.883,1.05l-2.977-1.064
			c-1.218-0.002-2.646,0.361-4.288,1.088c-1.643,0.729-3.338,1.707-5.081,2.939c-1.744,1.229-3.479,2.639-5.203,4.223
			c-1.724,1.585-3.289,3.219-4.687,4.902c-1.401,1.688-2.582,3.373-3.542,5.059c-0.962,1.689-1.547,3.209-1.753,4.57
			c-0.262,1.713,0.063,3.115,0.969,4.199c0.902,1.087,2.182,1.957,3.836,2.617c1.651,0.658,3.584,1.154,5.794,1.485
			c2.212,0.331,4.468,0.627,6.764,0.882c2.297,0.258,4.554,0.539,6.771,0.846c2.214,0.307,4.159,0.729,5.828,1.259
			c1.673,0.533,2.971,1.269,3.899,2.202c0.928,0.934,1.275,2.184,1.038,3.744c-0.23,1.512-1.044,3.021-2.441,4.531
			c-1.397,1.508-3.149,2.955-5.256,4.336c-2.108,1.381-4.482,2.664-7.115,3.842c-2.638,1.18-5.259,2.182-7.865,3.008
			c-2.608,0.827-5.128,1.465-7.555,1.912c-2.427,0.449-4.49,0.647-6.184,0.592c-0.484,0-0.875-0.178-1.16-0.529
			C712.944,589.167,712.96,588.585,713.279,587.78z"/>
		<path fill="#231F20" d="M783.677,526.61c0.657-0.805,1.336-1.043,2.043-0.715c0.704,0.329,1.332,0.834,1.886,1.516
			c0.553,0.681,0.972,1.363,1.258,2.043c0.288,0.683,0.335,0.997,0.149,0.948l19.579,47.442c0.261-0.756,0.58-1.977,0.956-3.666
			c0.38-1.688,0.768-3.677,1.164-5.969c0.396-2.293,0.791-4.801,1.179-7.521c0.389-2.722,0.756-5.441,1.093-8.162
			c0.344-2.721,0.638-5.391,0.891-8.012c0.252-2.621,0.439-4.977,0.564-7.068c0.12-2.09,0.167-3.828,0.135-5.218
			c-0.037-1.385-0.196-2.229-0.49-2.533c0.122-0.803,0.384-1.573,0.786-2.304s1.042-1.094,1.918-1.092
			c0.826,0.002,1.431,0.505,1.812,1.516c0.382,1.008,0.623,2.146,0.725,3.404c0.101,1.258,0.119,2.492,0.058,3.705
			c-0.062,1.207-0.122,1.99-0.176,2.342c-0.102,1.009-0.311,2.608-0.617,4.801c-0.311,2.191-0.666,4.698-1.07,7.52
			s-0.829,5.781-1.276,8.881c-0.447,3.099-0.872,6.059-1.275,8.88c-0.404,2.823-0.773,5.343-1.111,7.559
			c-0.337,2.217-0.558,3.831-0.663,4.835c-0.166,1.412-0.17,2.648-0.015,3.709c0.155,1.056,0.129,2.268-0.075,3.625
			c-0.17,1.109-0.699,1.941-1.586,2.492c-0.885,0.555-1.813,0.828-2.788,0.826c-0.537,0-0.999-0.078-1.388-0.227
			c-0.392-0.154-0.68-0.406-0.87-0.76c-0.191-0.352-0.253-0.82-0.188-1.4c0.062-0.578,0.279-1.295,0.653-2.152
			c-0.715-1.061-1.564-2.838-2.545-5.334c-0.985-2.498-2.052-5.322-3.203-8.477c-1.152-3.152-2.35-6.467-3.598-9.946
			c-1.248-3.481-2.449-6.772-3.61-9.876c-1.158-3.103-2.268-5.812-3.325-8.135c-1.061-2.318-1.962-3.907-2.705-4.768
			c-0.743,3.277-1.392,7.066-1.947,11.375c-0.558,4.309-1.058,8.719-1.499,13.228c-0.443,4.509-0.854,8.909-1.236,13.19
			c-0.384,4.284-0.825,8.063-1.321,11.336c-0.161,1.059-0.554,1.727-1.179,2c-0.627,0.278-1.244,0.34-1.855,0.188
			c-0.608-0.152-1.103-0.42-1.482-0.798c-0.38-0.376-0.409-0.666-0.088-0.868L783.677,526.61z"/>
		<path fill="#231F20" d="M822.104,570.085c-0.385,0.301-0.999,0.412-1.837,0.338c-0.842-0.08-1.592-0.27-2.249-0.572
			c-0.66-0.305-1.07-0.722-1.234-1.25c-0.163-0.529,0.225-1.146,1.156-1.852c0.387-0.303,0.797-0.513,1.23-0.639
			c0.431-0.123,0.863-0.25,1.297-0.379c0.431-0.122,0.803-0.311,1.107-0.563c0.304-0.249,0.524-0.651,0.655-1.208
			c0.395-2.268,0.928-4.584,1.605-6.951c0.677-2.367,1.594-4.482,2.752-6.346s2.638-3.346,4.436-4.451
			c1.798-1.104,4.016-1.527,6.653-1.272c0.971,0.002,2.03,0.243,3.173,0.728c1.142,0.48,2.214,1.111,3.215,1.894
			c0.999,0.784,1.831,1.718,2.495,2.803c0.661,1.087,0.994,2.257,0.999,3.521c0.261,0.502-0.024,1.133-0.871,1.887
			c-0.846,0.754-1.995,1.596-3.448,2.525c-1.454,0.93-3.084,1.871-4.882,2.827c-1.8,0.952-3.53,1.854-5.193,2.709
			s-3.126,1.608-4.395,2.259c-1.269,0.654-2.09,1.105-2.468,1.355c-0.006,1.967-0.004,4.032,0.009,6.199
			c0.01,2.17,0.193,4.16,0.552,5.976c0.353,1.812,0.919,3.315,1.687,4.501c0.769,1.187,1.884,1.779,3.343,1.783
			c2.116,0.155,4.002-0.166,5.658-0.971c1.653-0.803,3.091-1.859,4.312-3.166c1.222-1.308,2.252-2.742,3.1-4.303
			c0.844-1.561,1.53-3.045,2.063-4.457c0.528-1.41,0.929-2.607,1.203-3.588c0.27-0.984,0.459-1.523,0.571-1.626
			c0.583-0.3,1.191-0.312,1.831-0.032c0.64,0.275,0.915,1.021,0.829,2.23c-0.249,1.965-1.003,4.209-2.26,6.725
			c-1.262,2.518-2.814,4.834-4.67,6.946c-1.853,2.114-3.935,3.81-6.247,5.091s-4.629,1.717-6.951,1.308
			c-2.473-0.056-4.329-0.806-5.571-2.243c-1.242-1.436-2.133-3.181-2.672-5.22c-0.544-2.042-0.838-4.198-0.881-6.466
			C822.162,573.864,822.128,571.851,822.104,570.085z M843.69,553.875c-1.22-2.223-2.585-3.634-4.101-4.243
			c-1.512-0.609-3.14-0.787-4.883-0.539c-1.043,0.148-2.018,0.637-2.923,1.467c-0.905,0.831-1.697,1.887-2.378,3.17
			c-0.685,1.285-1.24,2.722-1.675,4.307c-0.438,1.588-0.709,3.211-0.813,4.875L843.69,553.875z"/>
		<path fill="#231F20" d="M859.807,554.437l-7.068,2.327c-0.513-0.149-0.92-0.429-1.224-0.833c-0.305-0.4-0.495-0.834-0.57-1.285
			c-0.077-0.454-0.049-0.881,0.086-1.285c0.133-0.402,0.388-0.705,0.756-0.907l8.812-3.231l3.105-21.389
			c0.243-0.656,0.634-1.135,1.164-1.435c0.533-0.302,1.053-0.439,1.56-0.415c0.508,0.029,0.955,0.205,1.344,0.533
			c0.386,0.329,0.615,0.744,0.685,1.25c-0.335,1.559-0.658,3.21-0.971,4.948c-0.312,1.739-0.615,3.478-0.9,5.216
			c-0.29,1.738-0.536,3.426-0.731,5.064c-0.202,1.638-0.335,3.135-0.393,4.498l12.032-4.74c0.711-0.197,1.236-0.137,1.577,0.19
			c0.338,0.331,0.527,0.759,0.57,1.287c0.039,0.529-0.075,1.048-0.346,1.551c-0.271,0.505-0.663,0.858-1.181,1.056l-13.446,5.871
			c-0.077,0.505-0.234,1.7-0.474,3.59s-0.527,4.119-0.87,6.688c-0.341,2.569-0.709,5.317-1.104,8.239
			c-0.396,2.921-0.778,5.668-1.144,8.236c-0.366,2.572-0.683,4.801-0.942,6.69c-0.263,1.89-0.433,3.087-0.508,3.589
			c-0.352,1.664-0.94,2.494-1.768,2.492s-1.665-0.406-2.515-1.215L859.807,554.437z"/>
		<path fill="#231F20" d="M879.036,589.782c-0.019-0.857-0.015-2.406,0.014-4.649c0.021-2.241,0.05-4.825,0.078-7.749
			c0.032-2.925,0.065-6.021,0.103-9.301c0.032-3.274,0.057-6.373,0.061-9.297s0.009-5.508,0.011-7.751
			c0-2.241-0.009-3.792-0.026-4.649c0.285-0.906,0.655-1.572,1.106-2c0.458-0.43,0.903-0.642,1.341-0.642
			c0.437,0.003,0.852,0.153,1.246,0.458c0.39,0.303,0.668,0.707,0.837,1.211l-0.764,34.322c0.232-0.553,0.687-1.637,1.371-3.248
			c0.682-1.611,1.465-3.486,2.351-5.628c0.883-2.139,1.839-4.419,2.862-6.837s1.992-4.697,2.901-6.836s1.701-4.016,2.384-5.626
			c0.687-1.614,1.142-2.694,1.373-3.251c0.408-0.451,0.88-0.842,1.417-1.168c0.535-0.326,1.066-0.527,1.588-0.601
			c0.522-0.075,1.005,0.026,1.448,0.307c0.443,0.275,0.784,0.771,1.018,1.475l5.058,34.938l9.939-37.552
			c0.268-0.503,0.612-0.932,1.031-1.285c0.421-0.35,0.833-0.516,1.244-0.486c0.406,0.024,0.778,0.303,1.113,0.834
			c0.331,0.528,0.572,1.426,0.723,2.684c-0.094,0.303-0.324,1.096-0.69,2.38c-0.365,1.283-0.811,2.858-1.336,4.724
			c-0.526,1.863-1.113,3.953-1.755,6.27c-0.647,2.318-1.297,4.686-1.959,7.104c-0.655,2.418-1.308,4.785-1.953,7.103
			c-0.644,2.318-1.217,4.408-1.718,6.273c-0.503,1.86-0.925,3.437-1.265,4.722c-0.341,1.285-0.56,2.077-0.653,2.379
			c-0.466,0.805-1.05,1.386-1.761,1.736c-0.709,0.352-1.39,0.514-2.045,0.486c-0.652-0.025-1.208-0.217-1.663-0.569
			c-0.46-0.354-0.713-0.833-0.769-1.438l-4.982-34.939c-1.52,4.229-2.995,8.098-4.425,11.598c-1.435,3.5-2.774,6.711-4.021,9.631
			s-2.402,5.564-3.467,7.93c-1.068,2.367-1.991,4.535-2.776,6.496c-0.376,0.557-0.797,0.941-1.271,1.171
			c-0.474,0.227-0.928,0.337-1.364,0.337c-0.439-0.002-0.836-0.104-1.197-0.307C879.435,590.339,879.183,590.087,879.036,589.782z"
			/>
		<path fill="#231F20" d="M925.977,590.181c-1.907-0.256-3.379-1.064-4.412-2.429c-1.033-1.362-1.765-3.03-2.196-4.993
			c-0.431-1.969-0.576-4.122-0.441-6.467c0.14-2.344,0.425-4.648,0.868-6.916c0.677-3.477,1.8-6.801,3.377-9.971
			c1.577-3.173,3.356-5.931,5.343-8.27c1.985-2.34,4.061-4.149,6.229-5.432c2.163-1.279,4.174-1.768,6.022-1.461
			c1.946,0.307,3.418,1.293,4.404,2.957c0.988,1.666,1.639,3.709,1.953,6.129c0.312,2.422,0.324,5.055,0.041,7.9
			c-0.286,2.848-0.728,5.581-1.32,8.199c-0.694,2.975-1.746,5.743-3.162,8.309c-1.409,2.57-3.023,4.787-4.84,6.645
			c-1.812,1.862-3.761,3.307-5.838,4.336C929.922,589.748,927.916,590.233,925.977,590.181z M939.381,548.552
			c-1.575-0.205-3.146,0.307-4.724,1.539c-1.571,1.232-3.061,2.865-4.466,4.904c-1.405,2.038-2.668,4.355-3.791,6.949
			c-1.124,2.594-2,5.148-2.626,7.667c-0.47,1.813-0.827,3.679-1.068,5.593c-0.245,1.916-0.273,3.653-0.1,5.219
			c0.176,1.561,0.64,2.835,1.392,3.819c0.751,0.983,1.879,1.479,3.387,1.481c1.207,0.051,2.549-0.372,4.024-1.279
			c1.477-0.904,2.917-2.12,4.314-3.656c1.401-1.535,2.7-3.283,3.901-5.246c1.197-1.963,2.101-3.979,2.705-6.043
			c0.67-2.166,1.093-4.396,1.271-6.688s0.138-4.423-0.122-6.39c-0.262-1.966-0.733-3.668-1.414-5.105
			C941.383,549.877,940.487,548.958,939.381,548.552z"/>
		<path fill="#231F20" d="M946.363,589.088c0.908-6.954,1.683-12.85,2.32-17.687c0.638-4.838,1.173-8.844,1.605-12.02
			c0.436-3.172,0.776-5.654,1.023-7.443c0.245-1.787,0.423-3.109,0.529-3.967c0.106-0.856,0.172-1.373,0.198-1.549
			c0.026-0.178,0.043-0.291,0.051-0.342c0.119-0.453,0.395-0.831,0.83-1.131c0.435-0.303,0.889-0.49,1.364-0.566
			c0.474-0.074,0.913-0.008,1.319,0.191c0.407,0.205,0.675,0.531,0.801,0.985l-2.423,17.385c1.259-3.476,2.877-6.37,4.858-8.687
			c1.983-2.314,4.098-4.137,6.343-5.467c2.245-1.332,4.505-2.193,6.78-2.594c2.272-0.398,4.331-0.42,6.178-0.064
			c0.607,0.154,1.042,0.432,1.296,0.834c0.253,0.406,0.357,0.846,0.311,1.326c-0.05,0.479-0.239,0.932-0.572,1.358
			s-0.733,0.741-1.201,0.942c-2.168-0.156-4.252,0.027-6.252,0.553c-2.004,0.525-3.873,1.306-5.609,2.333
			c-1.74,1.03-3.312,2.249-4.715,3.659c-1.407,1.407-2.57,2.893-3.489,4.451c-1.364,2.266-2.419,4.646-3.162,7.138
			c-0.744,2.497-1.341,4.977-1.79,7.444c-0.447,2.468-0.803,4.811-1.066,7.027c-0.264,2.219-0.545,4.158-0.848,5.82
			c-0.133,0.556-0.427,0.973-0.881,1.248c-0.457,0.273-0.941,0.426-1.456,0.449c-0.515,0.025-1.007-0.104-1.475-0.379
			C946.764,590.058,946.474,589.644,946.363,589.088z"/>
		<path fill="#231F20" d="M985.406,527.626c1.295-1.156,2.254-1.633,2.881-1.43c0.625,0.204,1.021,0.885,1.185,2.043l-6.247,42.1
			l22.915-26.414c0.827,0,1.497,0.141,2.017,0.42c0.519,0.275,0.698,0.92,0.545,1.927l-23.441,27.473l19.774,11.081
			c0.118,0.201,0.247,0.539,0.395,1.017c0.147,0.481,0.182,0.96,0.11,1.438c-0.074,0.48-0.312,0.934-0.717,1.36
			c-0.407,0.429-1.075,0.666-2.007,0.713l-20.22-11.985l-1.874,12.318c-0.472,0.857-0.921,1.408-1.346,1.663
			c-0.429,0.251-0.834,0.335-1.208,0.261c-0.382-0.079-0.725-0.266-1.046-0.569c-0.32-0.304-0.604-0.58-0.859-0.833L985.406,527.626
			z"/>
	</g>
</g>
<g id="Logo">
	
		<linearGradient id="Swoosh_1_" gradientUnits="userSpaceOnUse" x1="539.9941" y1="579.1602" x2="539.9941" y2="95.3632" gradientTransform="matrix(1 0 0 1 0 -73.0176)">
		<stop  offset="0" style="stop-color:#6D4C39"/>
		<stop  offset="1" style="stop-color:#8C7167"/>
	</linearGradient>
	<path id="Swoosh" fill="url(#Swoosh_1_)" d="M540.002,27.137c-282.292,0-511.936,122.103-511.936,272.191
		c0,75.142,61.905,148.136,170.011,200.738c0.015-0.029,0.044-0.043,0.073-0.061C106.641,451.99,79.072,374.294,79.072,305.839
		c0-134.715,198.15-236.31,460.93-236.31c262.764,0,460.915,101.595,460.915,236.31c0,68.396-29.033,146.283-120.646,194.286
		c0.189,0.162,0.396,0.308,0.57,0.469c108.767-52.632,171.08-125.875,171.08-201.266C1051.924,149.239,822.28,27.137,540.002,27.137
		z"/>
	<g id="PCHC">
		
			<linearGradient id="SVGID_3_" gradientUnits="userSpaceOnUse" x1="237.5483" y1="467.79" x2="237.5481" y2="274.8154" gradientTransform="matrix(1 0 0 1 0 -73.0176)">
			<stop  offset="0" style="stop-color:#212058"/>
			<stop  offset="0.0693" style="stop-color:#24235F"/>
			<stop  offset="0.2522" style="stop-color:#2A2B6F"/>
			<stop  offset="0.437" style="stop-color:#2D2F7B"/>
			<stop  offset="0.6229" style="stop-color:#2F3282"/>
			<stop  offset="0.8118" style="stop-color:#2F3384"/>
		</linearGradient>
		<path fill="url(#SVGID_3_)" d="M285.294,213.318c-4.307-3.749-10.21-6.605-17.695-8.568c-7.485-1.971-17.886-2.952-31.172-2.952
			c-6.753,0-13.623,0.234-20.654,0.703c-7.017,0.469-13.813,0.703-20.361,0.703c-4.688,0-8.892-0.146-12.642-0.425
			c-3.75-0.279-7.207-0.601-10.386-0.981c0.747,12.173,1.304,24.295,1.685,36.372c0.366,12.085,0.557,25.898,0.557,41.434v38.207
			c0,15.541-0.19,29.355-0.557,41.426c-0.381,12.069-0.938,23.92-1.685,35.536c3.179-0.381,6.636-0.568,10.386-0.568
			s7.954,0,12.642,0s8.892,0,12.642,0s7.207,0.188,10.4,0.568c-0.952-13.666-1.553-27.479-1.831-41.438
			c-0.278-13.946-0.425-27.936-0.425-41.997h14.326c10.488,0,20.127-1.114,28.931-3.358c8.804-2.249,16.436-5.757,22.896-10.54
			c6.46-4.774,11.47-10.993,15.03-18.677c3.545-7.676,5.332-16.853,5.332-27.524c0-8.431-1.406-15.638-4.219-21.636
			C295.695,223.616,291.286,218.183,285.294,213.318z M254.4,277.354c-2.622,5.435-5.991,9.603-10.107,12.503
			c-4.131,2.9-8.672,4.826-13.623,5.757c-4.966,0.938-9.785,1.406-14.473,1.406c0-13.11,0.044-26.17,0.146-39.185
			c0.088-13.016,0.234-26.266,0.425-39.749c0.732-0.184,1.582-0.278,2.52-0.278s1.875,0,2.812,0h6.46
			c3.926,0,7.72,0.659,11.367,1.97c3.662,1.305,6.841,3.414,9.551,6.314c2.725,2.907,4.878,6.796,6.46,11.66
			c1.597,4.87,2.402,10.854,2.402,17.974C258.341,264.721,257.022,271.928,254.4,277.354z"/>
		
			<linearGradient id="SVGID_4_" gradientUnits="userSpaceOnUse" x1="409.5869" y1="471.4385" x2="409.5869" y2="271.1602" gradientTransform="matrix(1 0 0 1 0 -73.0176)">
			<stop  offset="0" style="stop-color:#212058"/>
			<stop  offset="0.0693" style="stop-color:#24235F"/>
			<stop  offset="0.2522" style="stop-color:#2A2B6F"/>
			<stop  offset="0.437" style="stop-color:#2D2F7B"/>
			<stop  offset="0.6229" style="stop-color:#2F3282"/>
			<stop  offset="0.8118" style="stop-color:#2F3384"/>
		</linearGradient>
		<path fill="url(#SVGID_4_)" d="M392.038,236.067c6.182-6.928,13.052-12.084,20.64-15.446c7.588-3.376,15.117-5.062,22.617-5.062
			c10.107,0,18.911,1.927,26.396,5.757c7.483,3.846,14.795,10.254,21.914,19.241h3.926c0.381-4.863,1.084-9.683,2.107-14.465
			c1.025-4.776,2.49-9.5,4.353-14.181c-3.18-1.875-7.062-3.654-11.646-5.339c-4.6-1.685-9.419-3.135-14.473-4.358
			c-5.054-1.208-10.298-2.197-15.732-2.943c-5.435-0.748-10.574-1.129-15.438-1.129c-14.795,0-28.945,1.971-42.422,5.903
			c-13.479,3.926-25.328,10.159-35.523,18.677c-10.21,8.526-18.354,19.57-24.448,33.15c-6.078,13.579-9.126,30.103-9.126,49.569
			c0,13.305,2.346,25.668,7.031,37.079c4.673,11.426,11.455,21.299,20.361,29.635c8.892,8.334,19.746,14.794,32.578,19.379
			c12.816,4.6,27.393,6.887,43.682,6.887c23.027,0,42.129-3.839,57.291-11.515c0.381-3.941,1.128-7.91,2.256-11.938
			c1.128-4.027,2.434-8.013,3.926-11.939l-3.646-2.238c-3.003,3.178-6.504,6.078-10.533,8.7c-4.029,2.62-8.276,4.817-12.772,6.606
			c-4.496,1.771-9.081,3.178-13.771,4.202c-4.688,1.04-9.271,1.554-13.77,1.554c-8.059,0-16.057-1.494-24.011-4.498
			c-7.954-3.002-15.071-7.731-21.343-14.18c-6.284-6.475-11.382-14.795-15.322-25.005c-3.926-10.209-5.889-22.514-5.889-36.939
			c0-14.978,1.919-27.854,5.757-38.62C380.846,251.844,385.856,242.996,392.038,236.067z"/>
		
			<linearGradient id="SVGID_5_" gradientUnits="userSpaceOnUse" x1="618.9854" y1="467.79" x2="618.9854" y2="274.8159" gradientTransform="matrix(1 0 0 1 0 -73.0176)">
			<stop  offset="0" style="stop-color:#212058"/>
			<stop  offset="0.0693" style="stop-color:#24235F"/>
			<stop  offset="0.2522" style="stop-color:#2A2B6F"/>
			<stop  offset="0.437" style="stop-color:#2D2F7B"/>
			<stop  offset="0.6229" style="stop-color:#2F3282"/>
			<stop  offset="0.8118" style="stop-color:#2F3384"/>
		</linearGradient>
		<path fill="url(#SVGID_5_)" d="M703.817,238.17c0.381-12.077,0.938-24.199,1.686-36.372c-3.18,0.381-6.65,0.703-10.387,0.981
			c-3.75,0.278-7.97,0.425-12.644,0.425c-4.688,0-8.891-0.146-12.641-0.425c-3.75-0.279-7.207-0.601-10.387-0.981
			c0.748,12.173,1.305,24.199,1.67,36.094c0.381,11.895,0.569,25.606,0.569,41.155c-5.434,0.184-11.338,0.33-17.694,0.417
			c-6.371,0.096-14.605,0.14-24.728,0.14c-10.106,0-18.571-0.044-25.416-0.14c-6.84-0.087-12.686-0.233-17.547-0.417
			c0-15.549,0.131-29.261,0.408-41.155c0.293-11.895,0.895-23.921,1.832-36.094c-3.18,0.381-6.652,0.703-10.387,0.981
			c-3.75,0.278-7.97,0.425-12.644,0.425c-4.688,0-8.904-0.146-12.641-0.425c-3.75-0.278-7.208-0.601-10.401-0.981
			c0.747,12.173,1.318,24.295,1.699,36.372c0.366,12.085,0.557,25.898,0.557,41.434v38.207c0,15.541-0.188,29.355-0.557,41.426
			c-0.381,12.069-0.952,23.92-1.699,35.536c3.193-0.381,6.65-0.568,10.401-0.568c3.733,0,7.953,0,12.641,0c4.674,0,8.894,0,12.644,0
			c3.733,0,7.206,0.188,10.387,0.568c-0.748-11.614-1.305-23.467-1.687-35.536c-0.383-12.07-0.557-25.885-0.557-41.426v-16.015
			c7.104-0.374,14.225-0.652,21.342-0.843c7.119-0.183,14.226-0.285,21.344-0.285c7.119,0,14.236,0.146,21.357,0.425
			c7.105,0.278,14.225,0.52,21.344,0.703v16.015c0,15.541-0.188,29.355-0.569,41.426c-0.365,12.069-0.925,23.92-1.67,35.536
			c3.178-0.381,6.635-0.568,10.385-0.568s7.953,0,12.643,0c4.674,0,8.894,0,12.644,0c3.733,0,7.205,0.188,10.385,0.568
			c-0.746-11.614-1.303-23.467-1.684-35.536c-0.367-12.07-0.56-25.885-0.56-41.426v-38.207
			C703.26,264.068,703.45,250.255,703.817,238.17z"/>
		
			<linearGradient id="SVGID_6_" gradientUnits="userSpaceOnUse" x1="829.5215" y1="471.4375" x2="829.5215" y2="271.1592" gradientTransform="matrix(1 0 0 1 0 -73.0176)">
			<stop  offset="0" style="stop-color:#212058"/>
			<stop  offset="0.0693" style="stop-color:#24235F"/>
			<stop  offset="0.2522" style="stop-color:#2A2B6F"/>
			<stop  offset="0.437" style="stop-color:#2D2F7B"/>
			<stop  offset="0.6229" style="stop-color:#2F3282"/>
			<stop  offset="0.8118" style="stop-color:#2F3384"/>
		</linearGradient>
		<path fill="url(#SVGID_6_)" d="M898.055,369.489c-4.026,2.621-8.291,4.818-12.771,6.607c-4.498,1.771-9.101,3.178-13.771,4.201
			c-4.688,1.04-9.27,1.555-13.77,1.555c-8.043,0-16.056-1.494-24.008-4.498c-7.974-3.002-15.074-7.732-21.359-14.181
			c-6.271-6.475-11.367-14.795-15.307-25.005c-3.927-10.209-5.892-22.514-5.892-36.939c0-14.978,1.918-27.854,5.758-38.62
			c3.839-10.768,8.849-19.615,15.029-26.544c6.182-6.928,13.051-12.084,20.639-15.446c7.591-3.376,15.119-5.062,22.619-5.062
			c10.107,0,18.91,1.927,26.396,5.757c7.483,3.846,14.795,10.254,21.914,19.241h3.926c0.381-4.863,1.084-9.683,2.109-14.465
			c1.022-4.776,2.475-9.5,4.364-14.181c-3.194-1.875-7.075-3.654-11.659-5.339c-4.603-1.686-9.42-3.135-14.476-4.358
			c-5.053-1.208-10.297-2.197-15.729-2.943c-5.438-0.748-10.576-1.129-15.441-1.129c-14.795,0-28.93,1.971-42.422,5.903
			c-13.477,3.926-25.328,10.159-35.521,18.677c-10.209,8.526-18.368,19.57-24.446,33.15c-6.08,13.579-9.127,30.103-9.127,49.569
			c0,13.305,2.344,25.668,7.018,37.079c4.688,11.426,11.469,21.298,20.361,29.635c8.906,8.334,19.76,14.794,32.592,19.379
			c12.818,4.6,27.396,6.887,43.668,6.887c23.043,0,42.146-3.839,57.318-11.515c0.366-3.941,1.114-7.91,2.241-11.938
			c1.13-4.026,2.433-8.013,3.927-11.938l-3.646-2.24C905.584,363.967,902.083,366.867,898.055,369.489z"/>
	</g>
</g>
</svg>
