<?xml version="1.0" encoding="utf-8"?>
<!-- Generator: Adobe Illustrator 16.0.1, SVG Export Plug-In . SVG Version: 6.00 Build 0)  -->
<!DOCTYPE svg PUBLIC "-//W3C//DTD SVG 1.1//EN" "http://www.w3.org/Graphics/SVG/1.1/DTD/svg11.dtd">
<svg version="1.1" id="PCHC_Logo" xmlns="http://www.w3.org/2000/svg" xmlns:xlink="http://www.w3.org/1999/xlink" x="0px" y="0px"
	 width="1080.005px" height="717.982px" viewBox="0 0 1080.005 717.982" enable-background="new 0 0 1080.005 717.982"
	 xml:space="preserve">
<path id="Backer" fill="#FFFFFF" d="M1022.86,536.592c-0.025-0.054-0.051-0.104-0.076-0.158c-0.111-0.252-0.232-0.496-0.353-0.739
	c-17.678-37.159-38.535-46.919-57.532-46.48c72.104-51.42,115.106-116.252,115.106-186.708C1080.005,135.433,838.233,0,540.002,0
	C241.759,0,0,135.433,0,302.506C0,370.361,39.884,433,107.238,483.466c-16.458,4.189-31.712,14.63-43.401,30.51
	c-0.009,0.013-0.015,0.024-0.024,0.037c-25.309,30.35-7.833,98.124,28.719,108.025c0.011,0.003,0.022,0.007,0.033,0.011
	c11.062,3.52,40.563,2.434,58.98,2.416c0.068,0,0.144,0,0.213,0c0.478,0.007,0.952,0.018,1.438,0.018
	c0.314,0,0.623-0.014,0.935-0.02c21.173-0.013,80.52,0.02,97.989,0.02c0,0,11.491,0,21.798,0
	c-9.668,31.891-3.28,80.761,18.628,90.531c3.199,1.859,6.724,2.969,9.865,2.969c10.862,0,439.59,0,463.402,0
	c43.445,0,61.923-58.003,33.952-88.909c-1.508-1.666-3.022-3.193-4.54-4.598c6.326-0.009,11.645-0.011,16.215-0.012
	c0.219,0.005,0.437,0.019,0.656,0.019c1.137,0,2.316-0.005,3.527-0.019h1.033c24.124,0.001,114.952,0.037,124.635,0.019
	c-1.856,12.908,0.378,23.379,28.557,23.379c26.046,0,63.157-77.935,53.98-108.597
	C1023.632,538.448,1023.314,537.561,1022.86,536.592z M414.177,618.934c-0.041-0.028-0.082-0.058-0.122-0.085
	c0.047,0.024,0.093,0.051,0.141,0.075C414.189,618.927,414.184,618.931,414.177,618.934z"/>
<g id="Logo">
	<linearGradient id="Swoosh_1_" gradientUnits="userSpaceOnUse" x1="539.9956" y1="506.1426" x2="539.9956" y2="22.3458">
		<stop  offset="0" style="stop-color:#6D4C39"/>
		<stop  offset="1" style="stop-color:#8C7167"/>
	</linearGradient>
	<path id="Swoosh" fill="url(#Swoosh_1_)" d="M540.002,27.137c-282.292,0-511.936,122.103-511.936,272.191
		c0,75.142,61.905,148.136,170.011,200.738c0.015-0.029,0.044-0.043,0.073-0.059C106.641,451.99,79.072,374.294,79.072,305.839
		c0-134.715,198.15-236.31,460.93-236.31c262.765,0,460.914,101.595,460.914,236.31c0,68.396-29.032,146.283-120.644,194.286
		c0.19,0.162,0.396,0.308,0.571,0.469c108.765-52.632,171.08-125.875,171.08-201.266
		C1051.924,149.239,822.279,27.137,540.002,27.137z"/>
	<g id="PCHC">
		<linearGradient id="SVGID_1_" gradientUnits="userSpaceOnUse" x1="237.5474" y1="394.7725" x2="237.5473" y2="201.7983">
			<stop  offset="0" style="stop-color:#212058"/>
			<stop  offset="0.0693" style="stop-color:#24235F"/>
			<stop  offset="0.2522" style="stop-color:#2A2B6F"/>
			<stop  offset="0.437" style="stop-color:#2D2F7B"/>
			<stop  offset="0.6229" style="stop-color:#2F3282"/>
			<stop  offset="0.8118" style="stop-color:#2F3384"/>
		</linearGradient>
		<path fill="url(#SVGID_1_)" d="M285.294,213.318c-4.307-3.749-10.21-6.605-17.695-8.568c-7.485-1.971-17.886-2.952-31.172-2.952
			c-6.753,0-13.623,0.234-20.654,0.703c-7.017,0.469-13.813,0.703-20.361,0.703c-4.688,0-8.892-0.146-12.642-0.425
			s-7.207-0.601-10.386-0.981c0.747,12.173,1.304,24.295,1.685,36.372c0.366,12.085,0.557,25.898,0.557,41.434v38.207
			c0,15.541-0.19,29.355-0.557,41.426c-0.381,12.069-0.938,23.92-1.685,35.536c3.179-0.381,6.636-0.57,10.386-0.57s7.954,0,12.642,0
			c4.688,0,8.892,0,12.642,0s7.207,0.189,10.4,0.57c-0.952-13.666-1.553-27.479-1.831-41.439
			c-0.278-13.946-0.425-27.936-0.425-41.997h14.326c10.488,0,20.127-1.114,28.931-3.358c8.804-2.249,16.436-5.757,22.896-10.54
			c6.46-4.774,11.47-10.993,15.03-18.677c3.545-7.676,5.332-16.853,5.332-27.524c0-8.431-1.406-15.638-4.219-21.636
			C295.695,223.616,291.286,218.183,285.294,213.318z M254.4,277.354c-2.622,5.435-5.991,9.603-10.107,12.503
			c-4.131,2.9-8.672,4.826-13.623,5.757c-4.966,0.938-9.785,1.406-14.473,1.406c0-13.11,0.044-26.17,0.146-39.185
			c0.088-13.016,0.234-26.266,0.425-39.749c0.732-0.184,1.582-0.278,2.52-0.278s1.875,0,2.812,0h6.46
			c3.926,0,7.72,0.659,11.367,1.97c3.662,1.305,6.841,3.414,9.551,6.314c2.725,2.907,4.878,6.796,6.46,11.66
			c1.597,4.87,2.402,10.854,2.402,17.974C258.341,264.721,257.022,271.928,254.4,277.354z"/>
		<linearGradient id="SVGID_2_" gradientUnits="userSpaceOnUse" x1="409.5869" y1="398.4219" x2="409.5869" y2="198.1431">
			<stop  offset="0" style="stop-color:#212058"/>
			<stop  offset="0.0693" style="stop-color:#24235F"/>
			<stop  offset="0.2522" style="stop-color:#2A2B6F"/>
			<stop  offset="0.437" style="stop-color:#2D2F7B"/>
			<stop  offset="0.6229" style="stop-color:#2F3282"/>
			<stop  offset="0.8118" style="stop-color:#2F3384"/>
		</linearGradient>
		<path fill="url(#SVGID_2_)" d="M392.038,236.067c6.182-6.928,13.052-12.084,20.64-15.446c7.588-3.376,15.117-5.062,22.617-5.062
			c10.107,0,18.911,1.927,26.396,5.757c7.485,3.846,14.795,10.254,21.914,19.241h3.926c0.381-4.863,1.084-9.683,2.109-14.465
			c1.025-4.776,2.49-9.5,4.351-14.181c-3.179-1.875-7.061-3.654-11.646-5.339c-4.6-1.685-9.419-3.135-14.473-4.358
			c-5.054-1.208-10.298-2.197-15.732-2.943c-5.435-0.748-10.576-1.129-15.439-1.129c-14.795,0-28.945,1.971-42.422,5.903
			c-13.477,3.926-25.328,10.159-35.523,18.677c-10.21,8.526-18.354,19.57-24.448,33.15c-6.079,13.579-9.126,30.103-9.126,49.569
			c0,13.305,2.344,25.668,7.031,37.079c4.673,11.426,11.455,21.299,20.361,29.635c8.892,8.334,19.746,14.794,32.578,19.379
			c12.818,4.6,27.393,6.887,43.682,6.887c23.027,0,42.129-3.839,57.291-11.515c0.381-3.941,1.128-7.91,2.256-11.938
			s2.432-8.013,3.926-11.939l-3.647-2.24c-3.003,3.178-6.504,6.078-10.533,8.7s-8.276,4.819-12.773,6.607
			c-4.497,1.772-9.082,3.178-13.77,4.203c-4.688,1.04-9.272,1.554-13.77,1.554c-8.057,0-16.055-1.494-24.009-4.498
			c-7.954-3.003-15.073-7.733-21.343-14.18c-6.284-6.475-11.382-14.795-15.322-25.005c-3.926-10.209-5.889-22.514-5.889-36.939
			c0-14.978,1.919-27.854,5.757-38.62C380.846,251.844,385.856,242.996,392.038,236.067z"/>
		<linearGradient id="SVGID_3_" gradientUnits="userSpaceOnUse" x1="618.9868" y1="394.7725" x2="618.9868" y2="201.7983">
			<stop  offset="0" style="stop-color:#212058"/>
			<stop  offset="0.0693" style="stop-color:#24235F"/>
			<stop  offset="0.2522" style="stop-color:#2A2B6F"/>
			<stop  offset="0.437" style="stop-color:#2D2F7B"/>
			<stop  offset="0.6229" style="stop-color:#2F3282"/>
			<stop  offset="0.8118" style="stop-color:#2F3384"/>
		</linearGradient>
		<path fill="url(#SVGID_3_)" d="M703.817,238.17c0.381-12.077,0.938-24.199,1.685-36.372c-3.18,0.381-6.65,0.703-10.386,0.981
			c-3.75,0.278-7.969,0.425-12.642,0.425c-4.688,0-8.892-0.146-12.642-0.425s-7.207-0.601-10.386-0.981
			c0.747,12.173,1.305,24.199,1.67,36.094c0.381,11.895,0.57,25.606,0.57,41.155c-5.434,0.184-11.337,0.33-17.696,0.417
			c-6.371,0.096-14.604,0.14-24.726,0.14c-10.107,0-18.573-0.044-25.415-0.14c-6.841-0.087-12.686-0.233-17.548-0.417
			c0-15.549,0.131-29.261,0.409-41.155c0.292-11.895,0.893-23.921,1.831-36.094c-3.179,0.381-6.651,0.703-10.386,0.981
			c-3.75,0.278-7.969,0.425-12.642,0.425c-4.688,0-8.906-0.146-12.642-0.425c-3.75-0.278-7.207-0.601-10.4-0.981
			c0.747,12.173,1.318,24.295,1.699,36.372c0.366,12.085,0.557,25.898,0.557,41.434v38.207c0,15.541-0.19,29.355-0.557,41.426
			c-0.381,12.069-0.952,23.92-1.699,35.536c3.193-0.381,6.65-0.57,10.4-0.57c3.735,0,7.954,0,12.642,0c4.673,0,8.892,0,12.642,0
			c3.734,0,7.207,0.189,10.386,0.57c-0.747-11.616-1.304-23.467-1.686-35.536c-0.381-12.07-0.555-25.885-0.555-41.426v-16.015
			c7.103-0.374,14.224-0.652,21.342-0.843c7.119-0.183,14.224-0.285,21.343-0.285s14.237,0.146,21.357,0.425
			c7.105,0.278,14.225,0.52,21.343,0.703v16.015c0,15.541-0.189,29.355-0.57,41.426c-0.365,12.069-0.923,23.92-1.67,35.536
			c3.179-0.381,6.636-0.57,10.386-0.57s7.953,0,12.642,0c4.673,0,8.892,0,12.642,0c3.735,0,7.206,0.189,10.386,0.57
			c-0.747-11.616-1.304-23.467-1.685-35.536c-0.367-12.07-0.557-25.885-0.557-41.426v-38.207
			C703.26,264.068,703.45,250.255,703.817,238.17z"/>
		<linearGradient id="SVGID_4_" gradientUnits="userSpaceOnUse" x1="829.5229" y1="398.4219" x2="829.5229" y2="198.1431">
			<stop  offset="0" style="stop-color:#212058"/>
			<stop  offset="0.0693" style="stop-color:#24235F"/>
			<stop  offset="0.2522" style="stop-color:#2A2B6F"/>
			<stop  offset="0.437" style="stop-color:#2D2F7B"/>
			<stop  offset="0.6229" style="stop-color:#2F3282"/>
			<stop  offset="0.8118" style="stop-color:#2F3384"/>
		</linearGradient>
		<path fill="url(#SVGID_4_)" d="M898.056,369.489c-4.029,2.622-8.291,4.819-12.773,6.607c-4.498,1.772-9.098,3.178-13.77,4.203
			c-4.688,1.04-9.271,1.554-13.77,1.554c-8.043,0-16.056-1.494-24.009-4.498c-7.971-3.003-15.073-7.733-21.358-14.18
			c-6.27-6.475-11.367-14.795-15.308-25.005c-3.925-10.209-5.889-22.514-5.889-36.939c0-14.978,1.918-27.854,5.756-38.62
			c3.838-10.768,8.849-19.615,15.03-26.544c6.182-6.928,13.051-12.084,20.639-15.446c7.589-3.376,15.119-5.062,22.619-5.062
			c10.107,0,18.911,1.927,26.396,5.757c7.485,3.846,14.795,10.254,21.914,19.241h3.926c0.381-4.863,1.084-9.683,2.109-14.465
			c1.024-4.776,2.476-9.5,4.365-14.181c-3.194-1.875-7.075-3.654-11.66-5.339c-4.6-1.685-9.419-3.135-14.473-4.358
			c-5.054-1.208-10.298-2.197-15.732-2.943c-5.436-0.748-10.576-1.129-15.44-1.129c-14.795,0-28.931,1.971-42.422,5.903
			c-13.477,3.926-25.328,10.159-35.522,18.677c-10.21,8.526-18.369,19.57-24.448,33.15c-6.08,13.579-9.126,30.103-9.126,49.569
			c0,13.305,2.344,25.668,7.017,37.079c4.687,11.426,11.469,21.299,20.361,29.635c8.906,8.334,19.761,14.794,32.593,19.379
			c12.817,4.6,27.393,6.887,43.668,6.887c23.042,0,42.144-3.839,57.318-11.515c0.367-3.941,1.114-7.91,2.242-11.938
			s2.431-8.013,3.926-11.939l-3.647-2.24C905.585,363.967,902.083,366.867,898.056,369.489z"/>
	</g>
</g>
<g id="Text">
	<path fill="#BE1E2D" d="M123.93,534.785c-1.435-1.246-3.398-2.197-5.891-2.852c-2.494-0.655-5.954-0.982-10.379-0.982
		c-2.244,0-4.535,0.079-6.872,0.234c-2.338,0.156-4.598,0.233-6.779,0.233c-1.559,0-2.961-0.047-4.208-0.141
		c-1.248-0.093-2.4-0.201-3.46-0.327c0.249,4.053,0.436,8.088,0.561,12.108c0.125,4.021,0.187,8.618,0.187,13.792v12.716
		c0,5.175-0.062,9.771-0.187,13.792c-0.125,4.021-0.312,7.964-0.561,11.827c1.06-0.125,2.212-0.187,3.46-0.187
		c1.246,0,2.648,0,4.208,0c1.557,0,2.959,0,4.208,0c1.246,0,2.399,0.062,3.459,0.187c-0.312-4.549-0.514-9.146-0.608-13.791
		c-0.093-4.643-0.14-9.304-0.14-13.979h4.769c3.49,0,6.7-0.374,9.631-1.122c2.929-0.748,5.47-1.917,7.62-3.506
		c2.15-1.59,3.817-3.661,5.002-6.218c1.183-2.556,1.776-5.61,1.776-9.163c0-2.806-0.467-5.204-1.402-7.2
		C127.39,538.214,125.924,536.407,123.93,534.785z M113.645,556.104c-0.874,1.809-1.996,3.195-3.366,4.161
		c-1.372,0.967-2.884,1.605-4.535,1.916c-1.652,0.313-3.258,0.468-4.815,0.468c0-4.362,0.015-8.71,0.047-13.043
		c0.03-4.332,0.077-8.743,0.14-13.23c0.249-0.062,0.529-0.094,0.841-0.094c0.312,0,0.623,0,0.935,0h2.151
		c1.309,0,2.571,0.219,3.787,0.654c1.215,0.437,2.275,1.138,3.179,2.104c0.903,0.968,1.62,2.261,2.15,3.881
		c0.529,1.621,0.795,3.615,0.795,5.984C114.954,551.896,114.517,554.296,113.645,556.104z"/>
	<path fill="#BE1E2D" d="M152.167,548.997c-3.118,0-6,0.5-8.649,1.496c-2.65,0.998-4.941,2.494-6.872,4.488
		c-1.933,1.996-3.445,4.488-4.535,7.48c-1.091,2.991-1.636,6.514-1.636,10.565c0,4.114,0.608,7.652,1.823,10.612
		c1.216,2.961,2.867,5.408,4.956,7.34c2.088,1.933,4.503,3.319,7.247,4.161c2.742,0.841,5.641,1.262,8.695,1.262
		c3.553,0,6.42-0.359,8.603-1.075c2.181-0.716,4.051-1.667,5.61-2.852l2.057-5.236l-1.122-0.842c-3.366,2.806-7.2,4.208-11.5,4.208
		c-2.12,0-3.974-0.451-5.563-1.355c-1.589-0.903-2.898-2.15-3.927-3.74c-1.028-1.59-1.792-3.475-2.291-5.657
		c-0.5-2.181-0.748-4.519-0.748-7.013h26.835c0.061-0.187,0.093-0.561,0.093-1.122v-1.963c0-6.606-1.636-11.719-4.909-15.335
		C163.061,550.806,158.338,548.997,152.167,548.997z M144.313,568.633c0.062-1.808,0.234-3.631,0.514-5.47
		c0.281-1.838,0.701-3.49,1.262-4.956c0.561-1.464,1.309-2.665,2.244-3.6s2.088-1.402,3.459-1.402c2.431,0,4.161,1.402,5.189,4.207
		c1.028,2.806,1.604,6.546,1.729,11.221H144.313z"/>
	<path fill="#BE1E2D" d="M220.704,581.91c0-2.432,0.062-4.862,0.187-7.294c0.125-2.431,0.187-5.235,0.187-8.415
		c0-6.045-1.262-10.425-3.787-13.137c-2.524-2.711-6.125-4.067-10.799-4.067c-2.992,0-5.657,0.718-7.995,2.15
		c-2.337,1.435-4.38,3.46-6.124,6.078h-0.187l0.374-7.013c-1.248,0.126-2.417,0.233-3.506,0.327
		c-1.091,0.094-2.197,0.141-3.319,0.141s-2.229-0.047-3.319-0.141c-1.091-0.094-2.197-0.201-3.319-0.327
		c0.311,3.366,0.514,6.718,0.608,10.052c0.093,3.335,0.14,6.904,0.14,10.705v3.74c0,3.803-0.047,7.387-0.14,10.753
		c-0.094,3.366-0.297,6.607-0.608,9.724c0.872-0.125,1.901-0.187,3.085-0.187c1.184,0,2.493,0,3.927,0c1.433,0,2.758,0,3.974,0
		c1.216,0,2.228,0.062,3.039,0.187c-0.313-3.116-0.515-6.357-0.608-9.724c-0.094-3.366-0.14-6.95-0.14-10.753v-3.74
		c0-4.301,0.654-7.667,1.963-10.098s3.366-3.646,6.171-3.646c2.431,0,4.316,0.92,5.657,2.758c1.339,1.84,2.01,4.722,2.01,8.649
		c0,5.673-0.063,10.706-0.187,15.101c-0.126,4.395-0.406,8.213-0.842,11.453c0.81-0.125,1.838-0.187,3.085-0.187
		c1.247,0,2.556,0,3.927,0c1.371,0,2.68,0,3.927,0c1.246,0,2.274,0.062,3.085,0.187c-0.125-2.181-0.234-4.44-0.327-6.778
		C220.75,586.07,220.704,583.905,220.704,581.91z"/>
	<path fill="#BE1E2D" d="M252.12,548.997c-2.931,0-5.782,0.515-8.555,1.543c-2.774,1.028-5.222,2.587-7.34,4.675
		c-2.12,2.09-3.819,4.691-5.096,7.808c-1.278,3.118-1.917,6.765-1.917,10.939c0,4.177,0.669,7.699,2.01,10.566
		c1.34,2.867,3.1,5.188,5.283,6.966c2.182,1.776,4.628,3.038,7.34,3.786c2.711,0.748,5.47,1.122,8.274,1.122
		c3.366,0,6.452-0.53,9.257-1.589c2.805-1.06,5.22-2.665,7.247-4.815c2.025-2.151,3.6-4.753,4.722-7.808
		c1.122-3.054,1.683-6.482,1.683-10.285c0-7.043-1.996-12.623-5.984-16.737C265.054,551.055,259.414,548.997,252.12,548.997z
		 M252.214,592.476c-1.746,0-3.195-0.468-4.348-1.402c-1.154-0.936-2.089-2.229-2.805-3.881c-0.717-1.65-1.231-3.6-1.543-5.844
		c-0.312-2.244-0.467-4.675-0.467-7.293c0-7.167,0.825-12.436,2.478-15.802c1.651-3.366,3.911-5.049,6.779-5.049
		c3.179,0,5.454,1.512,6.826,4.534c1.371,3.024,2.057,7.279,2.057,12.764C261.19,585.151,258.198,592.476,252.214,592.476z"/>
	<path fill="#BE1E2D" d="M313.364,595.187c2.492-0.809,4.752-2.211,6.779-4.207c2.025-1.994,3.677-4.597,4.956-7.808
		c1.277-3.21,1.917-7.152,1.917-11.828c0-3.116-0.437-6.03-1.309-8.742c-0.874-2.711-2.104-5.063-3.693-7.06
		c-1.589-1.994-3.492-3.583-5.704-4.769c-2.213-1.183-4.661-1.776-7.34-1.776c-2.805,0-5.315,0.687-7.527,2.058
		c-2.213,1.371-3.85,3.365-4.909,5.983h-0.187c0-6.108,0.061-11.718,0.187-16.83c0.124-5.11,0.311-10.285,0.561-15.521
		c-0.811,0.126-1.839,0.234-3.086,0.328c-1.248,0.093-2.557,0.14-3.927,0.14c-1.372,0-2.681-0.047-3.927-0.14
		c-1.248-0.094-2.276-0.202-3.085-0.328c0.249,5.236,0.436,10.411,0.561,15.521c0.124,5.112,0.187,10.722,0.187,16.83v6.078
		c0,6.109-0.063,11.734-0.187,16.877c-0.125,5.143-0.312,10.332-0.561,15.567h2.244c1.37-0.872,2.726-1.807,4.067-2.805
		c1.339-0.996,2.665-1.87,3.974-2.618c1.309,1.87,2.992,3.383,5.049,4.535c2.057,1.152,4.582,1.729,7.573,1.729
		C308.408,596.402,310.87,595.996,313.364,595.187z M300.32,590.979c-1.028-0.996-1.839-2.353-2.431-4.067
		c-0.593-1.714-0.998-3.755-1.215-6.124c-0.219-2.368-0.327-4.924-0.327-7.667c0-3.366,0.202-6.219,0.607-8.556
		c0.405-2.338,0.997-4.238,1.777-5.704c0.778-1.464,1.713-2.508,2.805-3.132c1.09-0.622,2.291-0.936,3.6-0.936
		c5.36,0,8.041,5.424,8.041,16.27c0,7.605-0.795,13.076-2.384,16.409c-1.589,3.336-3.726,5.003-6.405,5.003
		C302.705,592.476,301.349,591.978,300.32,590.979z"/>
	<path fill="#BE1E2D" d="M358.058,569.895c-1.622-1.09-3.398-1.978-5.33-2.664c-1.933-0.686-3.709-1.371-5.33-2.058
		c-1.622-0.685-2.978-1.479-4.067-2.384c-1.091-0.903-1.636-2.104-1.636-3.601c0-1.62,0.638-2.929,1.917-3.927
		c1.277-0.996,2.852-1.496,4.722-1.496c1.496,0,2.773,0.267,3.833,0.795c1.059,0.53,1.963,1.201,2.711,2.011
		c0.748,0.811,1.34,1.668,1.776,2.571c0.436,0.904,0.748,1.729,0.935,2.478h2.618c0.187-1.37,0.468-2.773,0.841-4.208
		c0.374-1.433,0.842-2.772,1.403-4.021c-2.12-1.433-4.193-2.524-6.218-3.272c-2.026-0.748-4.348-1.122-6.966-1.122
		c-1.933,0-3.88,0.297-5.844,0.889c-1.963,0.593-3.725,1.496-5.283,2.711c-1.559,1.216-2.821,2.774-3.787,4.676
		c-0.967,1.902-1.449,4.16-1.449,6.778c0,2.744,0.529,4.988,1.589,6.732c1.059,1.746,2.384,3.195,3.974,4.348
		c1.59,1.154,3.319,2.104,5.189,2.852s3.6,1.481,5.189,2.197c1.589,0.718,2.913,1.513,3.974,2.385c1.06,0.873,1.59,2.026,1.59,3.459
		c0,1.31-0.593,2.525-1.777,3.647c-1.185,1.121-2.868,1.683-5.049,1.683c-1.622,0-3.039-0.218-4.254-0.654
		c-1.215-0.436-2.26-1.013-3.132-1.73c-0.874-0.716-1.605-1.526-2.197-2.431c-0.593-0.903-1.075-1.854-1.449-2.852h-2.337
		c-0.187,2.992-0.655,5.984-1.403,8.976c1.309,0.874,3.085,1.716,5.33,2.524c2.244,0.81,4.769,1.216,7.574,1.216
		c2.368,0,4.628-0.28,6.779-0.842c2.15-0.561,4.067-1.479,5.75-2.758c1.683-1.277,3.022-2.898,4.021-4.862
		c0.996-1.963,1.496-4.315,1.496-7.06c0-2.742-0.546-4.985-1.636-6.731C361.034,572.405,359.678,570.986,358.058,569.895z"/>
	<path fill="#BE1E2D" d="M395.177,548.997c-3.74,0-7.138,0.608-10.192,1.823c-3.055,1.216-5.657,2.884-7.807,5.003
		c-2.151,2.119-3.803,4.645-4.956,7.573c-1.154,2.931-1.73,6.109-1.73,9.537c0,2.868,0.405,5.72,1.215,8.556
		c0.81,2.837,2.166,5.376,4.067,7.62c1.901,2.244,4.409,4.021,7.527,5.33c3.116,1.309,6.95,1.963,11.501,1.963
		c2.866,0,5.344-0.359,7.433-1.075c2.088-0.716,3.817-1.604,5.189-2.665c0.311-0.935,0.623-1.87,0.935-2.805
		c0.311-0.935,0.685-1.838,1.122-2.712l-1.122-0.935c-0.874,1.122-2.213,2.136-4.021,3.039c-1.809,0.904-3.679,1.355-5.61,1.355
		c-4.551,0-8.01-1.511-10.378-4.535c-2.37-3.022-3.553-7.37-3.553-13.043c0-6.046,0.935-10.768,2.805-14.166
		c1.87-3.396,4.675-5.096,8.415-5.096c2.867,0,5.033,0.857,6.499,2.571c1.464,1.716,2.445,3.974,2.945,6.779h2.244
		c0.312-1.62,0.795-3.334,1.45-5.143c0.654-1.808,1.355-3.334,2.104-4.582c-2.244-1.309-4.598-2.368-7.059-3.179
		C401.736,549.403,398.729,548.997,395.177,548.997z"/>
	<path fill="#BE1E2D" d="M439.215,548.997c-2.931,0-5.782,0.515-8.555,1.543c-2.774,1.028-5.222,2.587-7.34,4.675
		c-2.12,2.09-3.819,4.691-5.096,7.808c-1.278,3.118-1.917,6.765-1.917,10.939c0,4.177,0.669,7.699,2.01,10.566
		c1.34,2.867,3.1,5.188,5.283,6.966c2.182,1.776,4.628,3.038,7.34,3.786c2.711,0.748,5.47,1.122,8.274,1.122
		c3.366,0,6.452-0.53,9.257-1.589c2.805-1.06,5.22-2.665,7.247-4.815c2.025-2.151,3.6-4.753,4.722-7.808
		c1.122-3.054,1.683-6.482,1.683-10.285c0-7.043-1.996-12.623-5.984-16.737C452.149,551.055,446.509,548.997,439.215,548.997z
		 M439.309,592.476c-1.746,0-3.195-0.468-4.348-1.402c-1.154-0.936-2.089-2.229-2.805-3.881c-0.717-1.65-1.231-3.6-1.543-5.844
		c-0.312-2.244-0.467-4.675-0.467-7.293c0-7.167,0.825-12.436,2.478-15.802c1.651-3.366,3.911-5.049,6.779-5.049
		c3.179,0,5.454,1.512,6.826,4.534c1.371,3.024,2.057,7.279,2.057,12.764C448.285,585.151,445.293,592.476,439.309,592.476z"/>
	<path fill="#BE1E2D" d="M495.41,594.252v-3.834c-0.561,0.313-1.122,0.547-1.683,0.702c-0.561,0.156-1.435,0.233-2.618,0.233
		c-1.061,0-1.933-0.188-2.618-0.562c-0.687-0.374-1.215-1.09-1.589-2.15c-0.374-1.059-0.64-2.586-0.795-4.581
		c-0.156-1.994-0.234-4.612-0.234-7.854c0-1.246,0.015-2.772,0.047-4.581c0.031-1.808,0.062-3.678,0.094-5.61
		c0.031-1.932,0.093-3.834,0.187-5.704c0.093-1.869,0.202-3.521,0.327-4.955l8.228,0.187c-0.187-0.748-0.28-1.526-0.28-2.337
		c0-0.748,0.093-1.59,0.28-2.524l-8.228,0.187c0-1.37,0.015-2.819,0.047-4.348c0.03-1.526,0.093-3.022,0.187-4.488
		c0.093-1.464,0.187-2.866,0.28-4.207c0.094-1.34,0.202-2.509,0.327-3.507l-0.935-0.654c-2.12,1.061-4.239,2.073-6.358,3.039
		c-2.12,0.967-4.271,1.886-6.452,2.758c0.125,2.37,0.218,4.395,0.281,6.078c0.061,1.683,0.093,3.491,0.093,5.423l-6.545-0.28
		c0.187,0.935,0.28,1.776,0.28,2.524c0,0.811-0.093,1.589-0.28,2.337l6.545-0.093c0,1.995-0.032,4.16-0.093,6.498
		c-0.063,2.338-0.141,4.707-0.234,7.106c-0.094,2.4-0.172,4.737-0.234,7.013c-0.062,2.275-0.093,4.316-0.093,6.124
		c0,9.476,3.958,14.212,11.875,14.212c1.807,0,3.646-0.219,5.517-0.654C492.605,595.312,494.162,594.813,495.41,594.252z"/>
	<path fill="#BE1E2D" d="M547.864,542.358c2.057-2.305,4.348-4.021,6.872-5.143s5.033-1.683,7.526-1.683
		c3.366,0,6.296,0.64,8.789,1.917c2.493,1.278,4.924,3.412,7.294,6.404h1.309c0.124-1.62,0.357-3.226,0.701-4.815
		c0.342-1.589,0.825-3.163,1.449-4.722c-1.061-0.622-2.354-1.215-3.88-1.776c-1.528-0.561-3.133-1.043-4.815-1.449
		c-1.684-0.404-3.429-0.732-5.236-0.981c-1.809-0.249-3.522-0.374-5.143-0.374c-4.925,0-9.631,0.654-14.119,1.963
		c-4.487,1.31-8.431,3.383-11.828,6.218c-3.398,2.838-6.109,6.515-8.134,11.033c-2.026,4.521-3.039,10.021-3.039,16.503
		c0,4.427,0.779,8.541,2.337,12.343c1.558,3.803,3.818,7.092,6.779,9.864c2.959,2.774,6.576,4.925,10.846,6.451
		c4.269,1.527,9.116,2.291,14.539,2.291c7.667,0,14.025-1.278,19.074-3.833c0.124-1.31,0.374-2.633,0.748-3.975
		c0.374-1.339,0.81-2.664,1.31-3.974l-1.216-0.748c-0.998,1.061-2.167,2.026-3.507,2.898c-1.341,0.874-2.758,1.606-4.254,2.197
		c-1.496,0.594-3.024,1.062-4.581,1.403c-1.56,0.343-3.086,0.514-4.582,0.514c-2.681,0-5.346-0.498-7.994-1.496
		c-2.65-0.996-5.019-2.571-7.106-4.722c-2.089-2.15-3.787-4.923-5.096-8.321c-1.309-3.396-1.963-7.495-1.963-12.296
		c0-4.986,0.638-9.271,1.917-12.856C544.138,547.611,545.806,544.666,547.864,542.358z"/>
	<path fill="#BE1E2D" d="M610.696,596.402c3.366,0,6.452-0.53,9.257-1.589c2.805-1.06,5.22-2.665,7.246-4.815
		c2.025-2.151,3.6-4.753,4.722-7.808c1.122-3.054,1.684-6.482,1.684-10.285c0-7.043-1.996-12.623-5.984-16.737
		c-3.989-4.113-9.631-6.171-16.924-6.171c-2.931,0-5.782,0.515-8.555,1.543c-2.774,1.028-5.222,2.587-7.34,4.675
		c-2.12,2.09-3.819,4.691-5.097,7.808c-1.278,3.118-1.916,6.765-1.916,10.939c0,4.177,0.669,7.699,2.01,10.566
		c1.34,2.867,3.101,5.188,5.283,6.966c2.181,1.776,4.628,3.038,7.34,3.786C605.132,596.028,607.891,596.402,610.696,596.402z
		 M601.626,574.056c0-7.167,0.825-12.436,2.478-15.802c1.651-3.366,3.911-5.049,6.779-5.049c3.179,0,5.453,1.512,6.825,4.534
		c1.37,3.024,2.058,7.279,2.058,12.764c0,14.648-2.992,21.973-8.977,21.973c-1.746,0-3.195-0.468-4.348-1.402
		c-1.154-0.936-2.089-2.229-2.806-3.881c-0.717-1.65-1.231-3.6-1.542-5.844C601.782,579.104,601.626,576.674,601.626,574.056z"/>
	<path fill="#BE1E2D" d="M709.574,588.408c-0.094-2.338-0.141-4.503-0.141-6.498c0-2.432,0.062-4.862,0.187-7.294
		c0.125-2.431,0.188-5.235,0.188-8.415c0-6.045-1.263-10.425-3.787-13.137c-2.524-2.711-6.124-4.067-10.799-4.067
		c-2.806,0-5.456,0.765-7.948,2.291c-2.493,1.528-4.675,3.726-6.545,6.592c-1.122-2.866-2.697-5.063-4.722-6.592
		c-2.026-1.526-4.441-2.291-7.246-2.291c-2.992,0-5.657,0.718-7.995,2.15c-2.337,1.435-4.38,3.46-6.124,6.078h-0.187l0.374-7.013
		c-1.248,0.126-2.417,0.233-3.507,0.327c-1.091,0.094-2.197,0.141-3.319,0.141s-2.229-0.047-3.319-0.141
		c-1.091-0.094-2.197-0.201-3.319-0.327c0.312,3.366,0.515,6.718,0.608,10.052c0.093,3.335,0.14,6.904,0.14,10.705v3.74
		c0,3.803-0.047,7.387-0.14,10.753c-0.094,3.366-0.297,6.607-0.608,9.724c0.872-0.125,1.901-0.187,3.086-0.187
		c1.184,0,2.492,0,3.927,0c1.434,0,2.759,0,3.974,0c1.216,0,2.229,0.062,3.039,0.187c-0.312-3.116-0.515-6.357-0.607-9.724
		c-0.094-3.366-0.141-6.95-0.141-10.753v-3.74c0-4.301,0.654-7.667,1.964-10.098c1.309-2.431,3.366-3.646,6.171-3.646
		c2.618,0,4.395,1.028,5.329,3.085c0.936,2.058,1.403,4.956,1.403,8.696v5.703c0,3.803-0.047,7.387-0.141,10.753
		s-0.297,6.607-0.607,9.724c0.872-0.125,1.9-0.187,3.085-0.187c1.184,0,2.492,0,3.928,0c1.433,0,2.758,0,3.974,0
		c1.215,0,2.228,0.062,3.038,0.187c-0.312-3.116-0.514-6.357-0.607-9.724s-0.14-6.95-0.14-10.753v-6.731
		c0-1.122,0.093-2.306,0.28-3.554c0.187-1.246,0.561-2.415,1.122-3.506c0.561-1.09,1.323-1.979,2.29-2.665
		c0.966-0.686,2.197-1.028,3.693-1.028c2.368,0,4.208,0.92,5.517,2.758c1.31,1.84,1.964,4.722,1.964,8.649
		c0,5.673-0.062,10.706-0.187,15.101c-0.126,4.395-0.406,8.213-0.842,11.453c0.81-0.125,1.838-0.187,3.085-0.187s2.556,0,3.928,0
		c1.37,0,2.679,0,3.927,0c1.246,0,2.274,0.062,3.086,0.187C709.775,593.006,709.667,590.746,709.574,588.408z"/>
	<path fill="#BE1E2D" d="M787.319,581.91c0-2.432,0.062-4.862,0.187-7.294c0.125-2.431,0.188-5.235,0.188-8.415
		c0-6.045-1.263-10.425-3.787-13.137c-2.524-2.711-6.124-4.067-10.799-4.067c-2.806,0-5.456,0.765-7.948,2.291
		c-2.493,1.528-4.675,3.726-6.545,6.592c-1.122-2.866-2.697-5.063-4.722-6.592c-2.026-1.526-4.441-2.291-7.246-2.291
		c-2.992,0-5.657,0.718-7.995,2.15c-2.337,1.435-4.38,3.46-6.124,6.078h-0.187l0.374-7.013c-1.248,0.126-2.417,0.233-3.507,0.327
		c-1.091,0.094-2.197,0.141-3.319,0.141s-2.229-0.047-3.319-0.141c-1.091-0.094-2.197-0.201-3.319-0.327
		c0.312,3.366,0.515,6.718,0.608,10.052c0.093,3.335,0.14,6.904,0.14,10.705v3.74c0,3.803-0.047,7.387-0.14,10.753
		c-0.094,3.366-0.297,6.607-0.608,9.724c0.872-0.125,1.901-0.187,3.086-0.187c1.184,0,2.492,0,3.927,0c1.434,0,2.759,0,3.974,0
		c1.216,0,2.229,0.062,3.039,0.187c-0.312-3.116-0.515-6.357-0.607-9.724c-0.094-3.366-0.141-6.95-0.141-10.753v-3.74
		c0-4.301,0.654-7.667,1.964-10.098c1.309-2.431,3.366-3.646,6.171-3.646c2.618,0,4.395,1.028,5.329,3.085
		c0.936,2.058,1.403,4.956,1.403,8.696v5.703c0,3.803-0.047,7.387-0.141,10.753s-0.297,6.607-0.607,9.724
		c0.872-0.125,1.9-0.187,3.085-0.187c1.184,0,2.492,0,3.928,0c1.433,0,2.758,0,3.974,0c1.215,0,2.228,0.062,3.038,0.187
		c-0.312-3.116-0.514-6.357-0.607-9.724s-0.14-6.95-0.14-10.753v-6.731c0-1.122,0.093-2.306,0.28-3.554
		c0.187-1.246,0.561-2.415,1.122-3.506c0.561-1.09,1.323-1.979,2.29-2.665c0.966-0.686,2.197-1.028,3.693-1.028
		c2.368,0,4.208,0.92,5.517,2.758c1.31,1.84,1.964,4.722,1.964,8.649c0,5.673-0.062,10.706-0.187,15.101
		c-0.126,4.395-0.406,8.213-0.842,11.453c0.81-0.125,1.838-0.187,3.085-0.187s2.556,0,3.928,0c1.37,0,2.679,0,3.927,0
		c1.246,0,2.274,0.062,3.086,0.187c-0.126-2.181-0.234-4.44-0.327-6.778C787.366,586.07,787.319,583.905,787.319,581.91z"/>
	<path fill="#BE1E2D" d="M838.884,560.265c0.093-3.334,0.295-6.686,0.607-10.052c-0.874,0.126-1.902,0.233-3.086,0.327
		c-1.185,0.094-2.493,0.141-3.927,0.141c-2.931,0-5.269-0.155-7.013-0.468c0.312,3.366,0.515,6.718,0.607,10.052
		c0.094,3.335,0.141,6.904,0.141,10.705v3.74c0,4.302-0.654,7.667-1.964,10.099c-1.309,2.431-3.365,3.646-6.171,3.646
		c-2.431,0-4.316-0.919-5.656-2.759c-1.342-1.838-2.011-4.722-2.011-8.648c0-5.672,0.062-10.721,0.188-15.147
		c0.124-4.425,0.404-8.321,0.841-11.688c-0.811,0.126-1.839,0.233-3.085,0.327c-1.248,0.094-2.557,0.141-3.928,0.141
		s-2.681-0.047-3.927-0.141c-1.247-0.094-2.276-0.201-3.085-0.327c0.124,2.369,0.233,4.722,0.327,7.06
		c0.093,2.337,0.14,4.504,0.14,6.498c0,2.431-0.062,4.862-0.187,7.293c-0.126,2.432-0.188,5.236-0.188,8.415
		c0,6.047,1.263,10.379,3.787,12.997s6.124,3.927,10.8,3.927c2.991,0,5.656-0.67,7.994-2.01c2.337-1.34,4.378-3.319,6.124-5.938
		h0.188l-0.374,6.731c1.246-0.125,2.415-0.187,3.506-0.187c1.09,0,2.197,0,3.319,0s2.228,0,3.319,0c1.09,0,2.197,0.062,3.319,0.187
		c-0.312-3.116-0.515-6.357-0.607-9.724c-0.094-3.366-0.141-6.95-0.141-10.753v-3.74C838.744,567.169,838.791,563.6,838.884,560.265
		z"/>
	<path fill="#BE1E2D" d="M891.01,581.91c0-2.432,0.062-4.862,0.188-7.294c0.124-2.431,0.187-5.235,0.187-8.415
		c0-6.045-1.262-10.425-3.786-13.137c-2.525-2.711-6.125-4.067-10.8-4.067c-2.992,0-5.657,0.718-7.994,2.15
		c-2.338,1.435-4.38,3.46-6.125,6.078h-0.187l0.374-7.013c-1.248,0.126-2.417,0.233-3.507,0.327
		c-1.091,0.094-2.197,0.141-3.319,0.141s-2.229-0.047-3.319-0.141s-2.197-0.201-3.318-0.327c0.311,3.366,0.514,6.718,0.607,10.052
		c0.094,3.335,0.14,6.904,0.14,10.705v3.74c0,3.803-0.046,7.387-0.14,10.753s-0.297,6.607-0.607,9.724
		c0.872-0.125,1.9-0.187,3.085-0.187c1.184,0,2.492,0,3.927,0c1.434,0,2.759,0,3.975,0c1.215,0,2.228,0.062,3.038,0.187
		c-0.312-3.116-0.514-6.357-0.607-9.724s-0.141-6.95-0.141-10.753v-3.74c0-4.301,0.655-7.667,1.964-10.098s3.366-3.646,6.171-3.646
		c2.432,0,4.315,0.92,5.657,2.758c1.34,1.84,2.01,4.722,2.01,8.649c0,5.673-0.062,10.706-0.187,15.101
		c-0.126,4.395-0.406,8.213-0.842,11.453c0.81-0.125,1.838-0.187,3.086-0.187c1.246,0,2.555,0,3.927,0c1.37,0,2.68,0,3.927,0
		c1.246,0,2.275,0.062,3.086,0.187c-0.126-2.181-0.233-4.44-0.327-6.778S891.01,583.905,891.01,581.91z"/>
	<path fill="#BE1E2D" d="M909.43,525.154c-2.058,0-3.804,0.718-5.236,2.15c-1.435,1.435-2.15,3.18-2.15,5.236
		s0.716,3.803,2.15,5.236c1.433,1.435,3.179,2.15,5.236,2.15c2.057,0,3.801-0.716,5.235-2.15c1.434-1.434,2.151-3.18,2.151-5.236
		s-0.718-3.802-2.151-5.236C913.231,525.872,911.487,525.154,909.43,525.154z"/>
	<path fill="#BE1E2D" d="M915.834,560.265c0.094-3.334,0.295-6.686,0.608-10.052c-1.746,0.312-4.084,0.468-7.013,0.468
		c-1.435,0-2.744-0.047-3.928-0.141c-1.185-0.094-2.213-0.201-3.085-0.327c0.311,3.366,0.514,6.718,0.607,10.052
		c0.094,3.335,0.141,6.904,0.141,10.705v3.74c0,3.803-0.047,7.387-0.141,10.753s-0.297,6.607-0.607,9.724
		c0.872-0.125,1.9-0.187,3.085-0.187c1.184,0,2.493,0,3.928,0c1.433,0,2.758,0,3.974,0c1.215,0,2.228,0.062,3.039,0.187
		c-0.313-3.116-0.515-6.357-0.608-9.724s-0.14-6.95-0.14-10.753v-3.74C915.695,567.169,915.741,563.6,915.834,560.265z"/>
	<path fill="#BE1E2D" d="M948.326,591.354c-1.061,0-1.933-0.188-2.617-0.562c-0.688-0.374-1.216-1.09-1.59-2.15
		c-0.374-1.059-0.64-2.586-0.795-4.581c-0.156-1.994-0.233-4.612-0.233-7.854c0-1.246,0.015-2.772,0.047-4.581
		c0.03-1.808,0.061-3.678,0.093-5.61c0.031-1.932,0.094-3.834,0.188-5.704c0.094-1.869,0.201-3.521,0.327-4.955l8.229,0.187
		c-0.188-0.748-0.281-1.526-0.281-2.337c0-0.748,0.094-1.59,0.281-2.524l-8.229,0.187c0-1.37,0.015-2.819,0.047-4.348
		c0.03-1.526,0.094-3.022,0.187-4.488c0.094-1.464,0.188-2.866,0.281-4.207c0.093-1.34,0.201-2.509,0.327-3.507l-0.936-0.654
		c-2.12,1.061-4.239,2.073-6.357,3.039c-2.12,0.967-4.271,1.886-6.452,2.758c0.124,2.37,0.218,4.395,0.28,6.078
		c0.062,1.683,0.094,3.491,0.094,5.423l-6.545-0.28c0.187,0.935,0.28,1.776,0.28,2.524c0,0.811-0.094,1.589-0.28,2.337l6.545-0.093
		c0,1.995-0.032,4.16-0.094,6.498c-0.062,2.338-0.14,4.707-0.233,7.106c-0.094,2.4-0.173,4.737-0.233,7.013
		c-0.063,2.275-0.094,4.316-0.094,6.124c0,9.476,3.958,14.212,11.875,14.212c1.807,0,3.646-0.219,5.517-0.654
		c1.869-0.437,3.427-0.935,4.675-1.496v-3.834c-0.562,0.313-1.122,0.547-1.684,0.702
		C950.383,591.276,949.509,591.354,948.326,591.354z"/>
	<path fill="#BE1E2D" d="M996.573,550.54c-0.624,0.094-1.248,0.141-1.87,0.141c-0.624,0-1.231-0.047-1.823-0.141
		c-0.593-0.094-1.231-0.201-1.917-0.327c-0.811,2.557-1.605,4.987-2.384,7.293c-0.78,2.307-1.59,4.614-2.432,6.919
		c-0.841,2.307-1.729,4.691-2.664,7.153c-0.936,2.463-1.964,5.128-3.086,7.994c-1.996-4.924-3.912-9.817-5.75-14.68
		c-1.84-4.862-3.663-9.755-5.471-14.68c-1.185,0.126-2.337,0.233-3.459,0.327s-2.276,0.141-3.46,0.141
		c-1.185,0-2.354-0.047-3.506-0.141c-1.154-0.094-2.323-0.201-3.507-0.327c0.748,1.87,1.854,4.581,3.319,8.135
		c1.464,3.553,3.086,7.479,4.862,11.781c1.776,4.301,3.584,8.695,5.423,13.184c1.838,4.488,3.507,8.509,5.003,12.062
		c-1.87,4.114-3.803,8.182-5.797,12.202c-1.996,4.021-4.021,8.088-6.078,12.202c0.686-0.126,1.34-0.234,1.964-0.328
		c0.622-0.093,1.276-0.14,1.963-0.14c0.686,0,1.34,0.047,1.964,0.14c0.622,0.094,1.277,0.202,1.964,0.328
		c1.433-3.866,3.1-8.167,5.002-12.903c1.9-4.738,3.864-9.522,5.891-14.353c2.025-4.83,4.035-9.615,6.031-14.353
		c1.994-4.736,3.817-9.054,5.47-12.95c1.65-3.895,3.053-7.167,4.207-9.817c1.153-2.648,1.885-4.379,2.197-5.189
		C997.881,550.339,997.195,550.446,996.573,550.54z"/>
	<path fill="#BE1E2D" d="M357.776,636.56c0.125-4.021,0.312-8.056,0.561-12.108c-1.061,0.126-2.213,0.234-3.459,0.327
		c-1.248,0.094-2.65,0.141-4.208,0.141c-1.559,0-2.961-0.047-4.208-0.141c-1.248-0.093-2.4-0.201-3.459-0.327
		c0.248,4.053,0.435,8.058,0.561,12.016c0.124,3.959,0.187,8.524,0.187,13.697c-1.809,0.063-3.772,0.11-5.891,0.141
		c-2.12,0.032-4.862,0.047-8.229,0.047c-3.366,0-6.187-0.015-8.461-0.047c-2.276-0.03-4.224-0.077-5.844-0.141
		c0-5.173,0.047-9.738,0.141-13.697c0.093-3.958,0.295-7.963,0.607-12.016c-1.061,0.126-2.213,0.234-3.459,0.327
		c-1.248,0.094-2.65,0.141-4.208,0.141c-1.559,0-2.961-0.047-4.208-0.141c-1.248-0.093-2.4-0.201-3.459-0.327
		c0.248,4.053,0.435,8.088,0.561,12.108c0.124,4.021,0.187,8.618,0.187,13.792v12.716c0,5.175-0.063,9.771-0.187,13.792
		c-0.126,4.021-0.313,7.964-0.561,11.827c1.059-0.125,2.212-0.187,3.459-0.187c1.246,0,2.648,0,4.208,0c1.558,0,2.96,0,4.208,0
		c1.246,0,2.399,0.062,3.459,0.187c-0.25-3.863-0.437-7.807-0.561-11.827c-0.125-4.021-0.187-8.617-0.187-13.792v-5.329
		c2.368-0.124,4.737-0.218,7.106-0.28c2.368-0.062,4.736-0.094,7.106-0.094c2.368,0,4.736,0.047,7.106,0.14
		c2.368,0.094,4.736,0.173,7.106,0.234v5.329c0,5.175-0.063,9.771-0.187,13.792c-0.126,4.021-0.313,7.964-0.561,11.827
		c1.059-0.125,2.212-0.187,3.459-0.187c1.246,0,2.648,0,4.208,0c1.557,0,2.96,0,4.208,0c1.246,0,2.399,0.062,3.459,0.187
		c-0.25-3.863-0.437-7.807-0.561-11.827c-0.125-4.021-0.187-8.617-0.187-13.792v-12.716
		C357.589,645.178,357.65,640.58,357.776,636.56z"/>
	<path fill="#BE1E2D" d="M390.688,642.497c-3.118,0-6,0.5-8.649,1.496c-2.65,0.998-4.941,2.494-6.872,4.488
		c-1.933,1.996-3.445,4.488-4.535,7.48c-1.091,2.991-1.636,6.514-1.636,10.565c0,4.114,0.608,7.652,1.823,10.612
		c1.216,2.961,2.867,5.408,4.956,7.34c2.088,1.933,4.503,3.319,7.247,4.161c2.742,0.841,5.641,1.262,8.695,1.262
		c3.553,0,6.42-0.359,8.603-1.075c2.181-0.716,4.051-1.667,5.61-2.852l2.057-5.236l-1.122-0.842c-3.366,2.806-7.2,4.208-11.5,4.208
		c-2.12,0-3.974-0.451-5.563-1.355c-1.589-0.903-2.898-2.15-3.927-3.74c-1.028-1.59-1.792-3.475-2.291-5.657
		c-0.5-2.181-0.748-4.519-0.748-7.013h26.835c0.061-0.187,0.093-0.561,0.093-1.122v-1.963c0-6.606-1.636-11.719-4.909-15.335
		C401.582,644.306,396.859,642.497,390.688,642.497z M382.834,662.133c0.062-1.808,0.234-3.631,0.514-5.47
		c0.281-1.838,0.701-3.49,1.262-4.956c0.561-1.464,1.309-2.665,2.244-3.6s2.088-1.402,3.459-1.402c2.431,0,4.161,1.402,5.189,4.207
		c1.028,2.806,1.604,6.546,1.729,11.221H382.834z"/>
	<path fill="#BE1E2D" d="M453.708,684.386c-0.437-0.436-0.764-1.075-0.981-1.917c-0.219-0.841-0.327-2.01-0.327-3.506
		c0-3.366,0.046-6.747,0.14-10.145c0.093-3.397,0.14-7.091,0.14-11.08c0-2.742-0.421-5.08-1.262-7.013
		c-0.841-1.932-2.026-3.507-3.553-4.722c-1.528-1.216-3.335-2.104-5.423-2.665c-2.089-0.562-4.38-0.842-6.873-0.842
		c-2.992,0-6,0.562-9.023,1.684c-3.024,1.122-5.844,2.743-8.462,4.861l1.216,5.61h0.654c0.436-0.685,1.075-1.323,1.917-1.917
		c0.841-0.592,1.776-1.137,2.805-1.636c1.028-0.498,2.104-0.889,3.226-1.169s2.212-0.421,3.272-0.421
		c2.805,0,5.002,0.795,6.592,2.385c1.59,1.589,2.384,3.506,2.384,5.75c0,0.811-0.109,1.496-0.327,2.057
		c-0.219,0.562-0.701,1.075-1.449,1.543s-1.886,0.936-3.413,1.402c-1.528,0.468-3.6,1.015-6.218,1.637
		c-2.12,0.5-4.021,1.107-5.704,1.823c-1.683,0.718-3.132,1.605-4.348,2.665c-1.215,1.061-2.15,2.337-2.805,3.833
		c-0.654,1.496-0.981,3.272-0.981,5.33c0,1.496,0.248,2.978,0.748,4.441c0.498,1.465,1.293,2.774,2.384,3.927
		c1.09,1.154,2.478,2.042,4.161,2.665c1.683,0.622,3.708,0.935,6.078,0.935c2.866,0,5.25-0.593,7.153-1.776
		c1.901-1.184,3.568-2.772,5.002-4.769c0.748,2.12,1.838,3.74,3.272,4.862c1.433,1.122,3.303,1.683,5.61,1.683
		c1.434,0,2.773-0.187,4.021-0.561c1.246-0.374,2.772-0.936,4.582-1.684v-2.244c-0.935,0-1.762-0.061-2.478-0.187
		C454.721,685.104,454.144,684.823,453.708,684.386z M440.291,668.351c-0.032,1.402-0.047,3.444-0.047,6.124
		c0,3.055-0.64,5.362-1.917,6.919c-1.278,1.56-2.945,2.338-5.002,2.338c-1.622,0-2.915-0.607-3.88-1.823
		c-0.967-1.216-1.449-2.976-1.449-5.283c0-2.368,0.388-4.175,1.168-5.423c0.779-1.246,1.776-2.228,2.992-2.945
		c1.215-0.716,2.555-1.309,4.021-1.776c1.464-0.468,2.852-1.075,4.161-1.823C440.337,665.718,440.321,666.948,440.291,668.351z"/>
	<path fill="#BE1E2D" d="M478.86,633.708c0.124-5.11,0.311-10.285,0.561-15.521c-0.811,0.126-1.839,0.234-3.085,0.328
		c-1.248,0.093-2.557,0.14-3.927,0.14c-1.372,0-2.681-0.047-3.927-0.14c-1.248-0.094-2.276-0.202-3.086-0.328
		c0.249,5.236,0.436,10.411,0.561,15.521c0.125,5.112,0.187,10.722,0.187,16.83v6.078c0,6.109-0.062,11.72-0.187,16.83
		c-0.125,5.112-0.312,10.191-0.561,15.24c0.81-0.125,1.838-0.187,3.086-0.187c1.246,0,2.555,0,3.927,0c1.371,0,2.68,0,3.927,0
		c1.246,0,2.274,0.062,3.085,0.187c-0.25-5.049-0.437-10.128-0.561-15.24c-0.125-5.11-0.187-10.721-0.187-16.83v-6.078
		C478.673,644.43,478.734,638.82,478.86,633.708z"/>
	<path fill="#BE1E2D" d="M511.305,684.854c-1.061,0-1.933-0.188-2.618-0.562c-0.687-0.374-1.215-1.09-1.589-2.15
		c-0.374-1.059-0.64-2.586-0.795-4.581c-0.156-1.994-0.234-4.612-0.234-7.854c0-1.246,0.015-2.772,0.047-4.581
		c0.031-1.808,0.062-3.678,0.094-5.61c0.031-1.932,0.093-3.834,0.187-5.704c0.093-1.869,0.202-3.521,0.327-4.955l8.228,0.187
		c-0.187-0.748-0.28-1.526-0.28-2.337c0-0.748,0.093-1.59,0.28-2.524l-8.228,0.187c0-1.37,0.015-2.819,0.047-4.348
		c0.03-1.526,0.093-3.022,0.187-4.488c0.093-1.464,0.187-2.866,0.28-4.207c0.094-1.34,0.202-2.509,0.327-3.507l-0.935-0.654
		c-2.12,1.061-4.239,2.073-6.358,3.039c-2.12,0.967-4.271,1.886-6.452,2.758c0.125,2.37,0.218,4.395,0.281,6.078
		c0.061,1.683,0.093,3.491,0.093,5.423l-6.545-0.28c0.187,0.935,0.28,1.776,0.28,2.524c0,0.811-0.093,1.589-0.28,2.337l6.545-0.093
		c0,1.995-0.032,4.16-0.093,6.498c-0.063,2.338-0.141,4.707-0.234,7.106c-0.094,2.4-0.172,4.737-0.234,7.013
		c-0.062,2.275-0.093,4.316-0.093,6.124c0,9.476,3.958,14.212,11.875,14.212c1.807,0,3.646-0.219,5.517-0.654
		c1.87-0.437,3.427-0.935,4.675-1.496v-3.834c-0.561,0.313-1.122,0.547-1.683,0.702
		C513.362,684.776,512.488,684.854,511.305,684.854z"/>
	<path fill="#BE1E2D" d="M563.103,675.41c0-2.432,0.062-4.862,0.188-7.294c0.125-2.431,0.188-5.235,0.188-8.415
		c0-6.045-1.262-10.425-3.787-13.137c-2.525-2.711-6.125-4.067-10.799-4.067c-2.992,0-5.658,0.718-7.995,2.15
		c-2.337,1.435-4.317,3.46-5.937,6.078l-0.187-0.188c0-6.108,0.061-11.718,0.187-16.83c0.124-5.11,0.311-10.285,0.561-15.521
		c-0.811,0.126-1.839,0.234-3.086,0.328c-1.248,0.093-2.557,0.14-3.927,0.14c-1.372,0-2.681-0.047-3.927-0.14
		c-1.248-0.094-2.276-0.202-3.085-0.328c0.249,5.236,0.436,10.411,0.561,15.521c0.124,5.112,0.187,10.722,0.187,16.83v6.078
		c0,6.109-0.063,11.72-0.187,16.83c-0.125,5.112-0.312,10.191-0.561,15.24c0.81-0.125,1.838-0.187,3.085-0.187
		c1.246,0,2.555,0,3.927,0c1.37,0,2.679,0,3.927,0c1.247,0,2.275,0.062,3.086,0.187c-0.126-1.495-0.234-3.256-0.328-5.282
		c-0.093-2.025-0.172-4.021-0.233-5.984c-0.063-1.963-0.11-3.771-0.141-5.423c-0.032-1.651-0.046-2.913-0.046-3.787v-3.74
		c0-4.301,0.654-7.667,1.963-10.098s3.366-3.646,6.171-3.646c2.432,0,4.314,0.92,5.656,2.758c1.34,1.84,2.01,4.722,2.01,8.649
		c0,5.673-0.062,10.706-0.186,15.101c-0.127,4.395-0.406,8.213-0.842,11.453c0.809-0.125,1.838-0.187,3.086-0.187
		c1.246,0,2.555,0,3.926,0s2.68,0,3.928,0c1.246,0,2.275,0.062,3.086,0.187c-0.127-2.181-0.234-4.44-0.328-6.778
		S563.103,677.405,563.103,675.41z"/>
	<path fill="#BE1E2D" d="M620.046,635.858c2.057-2.305,4.348-4.021,6.872-5.143s5.033-1.683,7.526-1.683
		c3.366,0,6.296,0.64,8.789,1.917c2.493,1.278,4.924,3.412,7.294,6.404h1.309c0.124-1.62,0.357-3.226,0.701-4.815
		c0.342-1.589,0.825-3.163,1.449-4.722c-1.061-0.622-2.354-1.215-3.88-1.776c-1.528-0.561-3.133-1.043-4.815-1.449
		c-1.684-0.404-3.429-0.732-5.236-0.981c-1.809-0.249-3.522-0.374-5.143-0.374c-4.925,0-9.631,0.654-14.119,1.963
		c-4.487,1.31-8.431,3.383-11.827,6.218c-3.398,2.838-6.11,6.515-8.135,11.033c-2.026,4.521-3.039,10.021-3.039,16.503
		c0,4.427,0.778,8.541,2.338,12.343c1.557,3.803,3.817,7.092,6.778,9.864c2.96,2.774,6.576,4.925,10.847,6.451
		c4.269,1.527,9.116,2.291,14.539,2.291c7.667,0,14.025-1.278,19.074-3.833c0.124-1.31,0.374-2.633,0.748-3.975
		c0.374-1.339,0.81-2.664,1.31-3.974l-1.216-0.748c-0.998,1.061-2.167,2.026-3.507,2.898c-1.341,0.874-2.758,1.606-4.254,2.197
		c-1.496,0.594-3.024,1.062-4.581,1.403c-1.56,0.343-3.086,0.514-4.582,0.514c-2.681,0-5.346-0.498-7.994-1.496
		c-2.65-0.996-5.019-2.571-7.106-4.722c-2.089-2.15-3.787-4.923-5.096-8.321c-1.309-3.396-1.964-7.495-1.964-12.296
		c0-4.986,0.639-9.271,1.917-12.856C616.321,641.111,617.989,638.166,620.046,635.858z"/>
	<path fill="#BE1E2D" d="M697.931,684.386c-0.437-0.436-0.764-1.075-0.981-1.917c-0.219-0.841-0.327-2.01-0.327-3.506
		c0-3.366,0.047-6.747,0.14-10.145c0.094-3.397,0.141-7.091,0.141-11.08c0-2.742-0.421-5.08-1.263-7.013
		c-0.841-1.932-2.025-3.507-3.553-4.722c-1.528-1.216-3.335-2.104-5.423-2.665c-2.089-0.562-4.38-0.842-6.872-0.842
		c-2.992,0-6.001,0.562-9.023,1.684c-3.024,1.122-5.844,2.743-8.462,4.861l1.216,5.61h0.654c0.436-0.685,1.075-1.323,1.917-1.917
		c0.842-0.592,1.776-1.137,2.805-1.636c1.028-0.498,2.104-0.889,3.227-1.169c1.121-0.28,2.211-0.421,3.272-0.421
		c2.805,0,5.002,0.795,6.592,2.385c1.589,1.589,2.384,3.506,2.384,5.75c0,0.811-0.109,1.496-0.327,2.057
		c-0.219,0.562-0.701,1.075-1.449,1.543s-1.886,0.936-3.413,1.402c-1.528,0.468-3.6,1.015-6.218,1.637
		c-2.12,0.5-4.021,1.107-5.703,1.823c-1.684,0.718-3.133,1.605-4.348,2.665c-1.216,1.061-2.151,2.337-2.806,3.833
		s-0.981,3.272-0.981,5.33c0,1.496,0.248,2.978,0.748,4.441c0.498,1.465,1.293,2.774,2.384,3.927
		c1.09,1.154,2.479,2.042,4.161,2.665c1.683,0.622,3.708,0.935,6.077,0.935c2.867,0,5.251-0.593,7.153-1.776
		c1.9-1.184,3.567-2.772,5.002-4.769c0.748,2.12,1.838,3.74,3.272,4.862c1.434,1.122,3.304,1.683,5.61,1.683
		c1.434,0,2.773-0.187,4.021-0.561c1.246-0.374,2.773-0.936,4.582-1.684v-2.244c-0.936,0-1.762-0.061-2.478-0.187
		C698.944,685.104,698.367,684.823,697.931,684.386z M684.514,668.351c-0.032,1.402-0.047,3.444-0.047,6.124
		c0,3.055-0.64,5.362-1.917,6.919c-1.278,1.56-2.945,2.338-5.002,2.338c-1.622,0-2.915-0.607-3.881-1.823
		c-0.967-1.216-1.449-2.976-1.449-5.283c0-2.368,0.389-4.175,1.169-5.423c0.778-1.246,1.776-2.228,2.992-2.945
		c1.216-0.716,2.555-1.309,4.021-1.776c1.464-0.468,2.852-1.075,4.161-1.823C684.561,665.718,684.544,666.948,684.514,668.351z"/>
	<path fill="#BE1E2D" d="M736.081,642.777c-3.18,0-5.923,1.015-8.229,3.039c-2.307,2.026-4.271,5.189-5.891,9.49l-0.187-0.187
		l0.28-11.407c-1.054,0.126-2.121,0.233-3.204,0.327c-1.084,0.094-2.15,0.141-3.202,0.141s-2.12-0.047-3.202-0.141
		c-1.083-0.094-2.149-0.201-3.201-0.327c0.271,3.366,0.45,6.718,0.531,10.052c0.082,3.335,0.123,6.904,0.123,10.705v3.74
		c0,3.803-0.041,7.387-0.123,10.753c-0.081,3.366-0.26,6.607-0.531,9.724c0.866-0.125,1.888-0.187,3.063-0.187s2.477,0,3.899,0
		s2.739,0,3.946,0c1.206,0,2.213,0.062,3.022,0.187c-0.312-3.116-0.515-6.357-0.608-9.724c-0.093-3.366-0.14-6.95-0.14-10.753v-3.74
		c0-2.492,0.81-4.658,2.431-6.498c1.62-1.838,3.834-2.758,6.639-2.758c0.996,0,1.885,0.125,2.665,0.374
		c0.778,0.249,1.479,0.561,2.104,0.935l0.842-0.748c-0.062-0.498-0.094-1.028-0.094-1.59c0-0.561,0-1.09,0-1.589v-2.992
		c0-1.434,0.047-2.68,0.141-3.74c0.093-1.06,0.233-2.057,0.421-2.992c-0.25,0-0.484-0.015-0.701-0.047
		C736.656,642.794,736.391,642.777,736.081,642.777z"/>
	<path fill="#BE1E2D" d="M764.785,642.497c-3.118,0-6.001,0.5-8.649,1.496c-2.65,0.998-4.94,2.494-6.872,4.488
		c-1.933,1.996-3.445,4.488-4.535,7.48c-1.091,2.991-1.636,6.514-1.636,10.565c0,4.114,0.607,7.652,1.823,10.612
		c1.215,2.961,2.866,5.408,4.955,7.34c2.088,1.933,4.503,3.319,7.246,4.161c2.742,0.841,5.642,1.262,8.696,1.262
		c3.553,0,6.419-0.359,8.602-1.075c2.182-0.716,4.052-1.667,5.61-2.852l2.057-5.236l-1.122-0.842
		c-3.365,2.806-7.199,4.208-11.5,4.208c-2.12,0-3.974-0.451-5.563-1.355c-1.59-0.903-2.898-2.15-3.927-3.74
		c-1.029-1.59-1.793-3.475-2.291-5.657c-0.5-2.181-0.748-4.519-0.748-7.013h26.835c0.062-0.187,0.094-0.561,0.094-1.122v-1.963
		c0-6.606-1.637-11.719-4.909-15.335C775.677,644.306,770.956,642.497,764.785,642.497z M756.93,662.133
		c0.062-1.808,0.233-3.631,0.515-5.47c0.28-1.838,0.701-3.49,1.262-4.956c0.562-1.464,1.31-2.665,2.244-3.6s2.088-1.402,3.46-1.402
		c2.431,0,4.16,1.402,5.188,4.207c1.029,2.806,1.604,6.546,1.73,11.221H756.93z"/>
</g>
</svg>
